<svg id="auryx" xmlns="http://www.w3.org/2000/svg" xmlns:xlink="http://www.w3.org/1999/xlink" viewBox="60 0 500 730"><defs><clipPath id="clip-path"><polygon points="302.45 102.61 137.9 274.68 302.45 724.79 467.68 272.94 302.45 102.61" style="fill:none"/></clipPath></defs><title>the four houses</title><polyline points="249.35 578.42 138.32 274.69 302.87 102.62 321.72 122.33" style="fill:none;stroke:#fdc173;stroke-miterlimit:10;stroke-width:4px"/><polyline points="460.65 293.21 302.87 724.8 271.8 639.82" style="fill:none;stroke:#fdc173;stroke-miterlimit:10;stroke-width:4px"/><polygon points="161.91 386.27 118.25 501.36 259.6 643.8 161.91 386.27" style="fill:#fdc173"/><polygon points="302.87 85.13 346.14 128.73 302.87 14.66 259.6 128.73 302.87 85.13" style="fill:#fdc173"/><polygon points="346.14 643.8 487.48 501.36 443.83 386.27 346.14 643.8" style="fill:#fdc173"/><path d="M237.79,688.91c-2.19,1.48-4.4,3-6.58,4.45-.44.3-.77.57-1.13-.06-1.8-3.12-4-5.89-5.7-9.11-1.45,1-3.12,1.34-4.69,2a1.81,1.81,0,0,0-1.21,1.4q-1.8,6.68-3.68,13.31a3.17,3.17,0,0,0,.24,2.53c1.56,2.94,3,5.92,4.56,8.88a4.26,4.26,0,0,0,5.32,1.56c3.21-1.92,6.42-3.86,9.64-5.77a2.75,2.75,0,0,0,1.15-1.38c1.58-3.76,3.16-7.54,4.8-11.28a2.14,2.14,0,0,0-.09-2.31C239.5,691.74,238.66,690.31,237.79,688.91Z" style="fill:#fdc173"/><path d="M332.39,396.38c1.46-3.48,2.36-7.13,3.47-10.72-2.8-5.67-5.57-11.37-8.43-17a4.27,4.27,0,0,1-.26-3.47c2.11-7.18,4.13-14.39,6.2-21.59,2.39-8.35,15.14-49.71,17.54-58.05l-5.62-6.2c-1.51,5.65-13.34,44.33-14.89,50q-5.31,19.38-10.69,38.75a2.4,2.4,0,0,0,.13,1.76Q326.13,383.11,332.39,396.38Z" style="fill:#fdc173"/><path d="M231.21,693.36l14-5.3a5.29,5.29,0,0,0,2.24-2.94c1.69-5.12,14.8-37.87,16.62-43,.5-1.39.65-2.56-.26-3.68a1,1,0,0,1-.25-.91.7.7,0,0,1-.19-.06c-.84-1.48-1.67-3-2.53-4.44a3.25,3.25,0,0,1-.32-2.69c.68-2.34,1.28-4.7,1.92-7,.08-.31,0-.77.39-.87s.54.39.7.71c.95,1.91,1.91,3.83,2.86,5.75l1.38,2.28,2.84-7.8c0-1.41-1.06-2.36-1.25-3.7-1.14-2.42-2.29-4.84-3.41-7.28a1.53,1.53,0,0,1-.17-.95c.85-3.25,1.73-6.49,2.61-9.73l.36-.06,3.74,9.23,1.42,2.64c1-2.89,1.9-5.53,2.83-8.17.3-.88-.2-1.48-.46-2.16l-.72-2q-2-4.47-4.06-8.93a1.6,1.6,0,0,1-.17-1.12c.95-3.45,1.89-6.91,3-10.8l4.85,10.65c.47.83.93,1.67,1.48,2.65a35.54,35.54,0,0,0,1.86-5c.7-1.86,1.16-3.83,2-5.63a14.94,14.94,0,0,0,.8-9.48c-1.8-9.22-3.32-18.52-5-27.78a5,5,0,0,1,.25-2.63q14.17-40.56,28.32-81.15a15.6,15.6,0,0,0,.9-2.56c.59-3.64,2.66-5.4,5.81-6.56,4.08-1.51,8-3.59,12-5.38a2.79,2.79,0,0,0,1.64-1.9q13.82-41,27.69-81.91a3.17,3.17,0,0,0,0-2.25c-.83-2.36-1.59-4.76-2.38-7.14a38.7,38.7,0,0,0-1.35-4,4.9,4.9,0,0,1,.07-4c2.81-7.92,5.56-15.86,8.31-23.8,4.19-12.11,8.45-24.21,12.48-36.37.88-2.66,2.08-4.23,4.6-4.59l.31-.05a69,69,0,0,1,7-2.65,1.85,1.85,0,0,0,1.34-1.46c.72-2.86,1.53-5.71,2.36-8.54a4,4,0,0,0-.09-2.59l-45.12-15.55L340,281.42a1.63,1.63,0,0,0,.36,1.9c1.17,1.11,2.24,2.33,3.36,3.5l5.62,6.2c3.82,4,7.62,8,11.46,12,.67.69.41,1.38.17,2.14-2.62,8.53-14,42.62-16.66,51.14q-4.21,13.69-8.48,27.36c-1.11,3.59-2,7.24-3.47,10.72a5.22,5.22,0,0,1-.36,2q-5.19,16.88-10.34,33.75A2.77,2.77,0,0,1,320,434c-5.72,2.74-11.42,5.51-17.16,8.2a3.36,3.36,0,0,0-1.95,2.23q-16.1,48.56-32.25,97.09Q252.42,590.26,236.18,639c-2.32,7-10.52,33.57-13,40.47-.79,2.23.24,3.33,1.19,4.68,1.67,3.22,3.9,6,5.7,9.11.36.63.69.36,1.13.06" style="fill:#f99d25"/><path d="M378.94,281.51l-.31.05c-2.52.36-3.72,1.93-4.6,4.59-4,12.16-8.29,24.26-12.48,36.37-2.75,7.94-5.5,15.88-8.31,23.8a4.9,4.9,0,0,0-.07,4,38.7,38.7,0,0,1,1.35,4c2-1,3.91-2,5.89-3a2.54,2.54,0,0,0,1.46-1.66q9.75-30,19.57-60.09a3.07,3.07,0,0,0-.09-2.4C380.51,285.31,379.73,283.4,378.94,281.51Z" style="fill:#fdc173"/><path d="M279.11,591.06l-4.85-10.65c-1.07,3.89-2,7.35-3,10.8a1.6,1.6,0,0,0,.17,1.12q2,4.47,4.06,8.93C276.84,597.9,277.66,594.37,279.11,591.06Z" style="fill:#fdc173"/><path d="M272.46,610.92l-3.74-9.23-.36.06c-.88,3.24-1.76,6.48-2.61,9.73a1.53,1.53,0,0,0,.17.95c1.12,2.44,2.27,4.86,3.41,7.28Z" style="fill:#fdc173"/><path d="M263.34,637.52c1-2.86,2-5.73,3-8.59-.95-1.92-1.91-3.84-2.86-5.75-.16-.32-.23-.83-.7-.71s-.31.56-.39.87c-.64,2.35-1.24,4.71-1.92,7a3.25,3.25,0,0,0,.32,2.69C261.67,634.55,262.5,636,263.34,637.52Z" style="fill:#fcc072"/><polygon points="334.83 159.95 328.81 175.81 321.72 163.43 334.83 159.95" style="fill:#fdc173"/><polygon points="463.01 187.7 414.62 154.53 386.82 149.31 491.96 258.74 514.01 264.82 463.01 187.7" style="fill:#fdc173"/><polygon points="451.1 220.71 409.27 177.61 450.29 276.64 464.35 283.1 451.1 220.71" style="fill:#f99d25"/><polygon points="412.54 193.6 432.33 239.9 426.49 277.27 415.09 258.98 412.54 193.6" style="fill:#fdc173"/><path d="M412,240.19c.16-.85-.75-30.39-.75-30.39l-11.88,35.07.53,16Z" style="fill:#f99d25"/><polygon points="439.97 112.9 451.64 110.26 461.22 108.09 520.15 146.36 527.59 166.28 443.2 128.52 439.97 112.9" style="fill:#fdc173"/><polygon points="389.3 268.95 397.15 249.31 396.47 245.62 401.87 231.5 386.66 243.33 351.8 238.56 329.5 211.18 330.12 237.91 351.64 257.16 389.3 268.95" style="fill:#f99d25"/><polygon points="392.79 239.83 388.28 231.38 351.7 226.21 346.63 232.59 352.25 239.49 387.11 244.25 392.79 239.83" style="fill:#fdc173"/><polygon points="486.24 252.78 487.52 243.24 454.93 202.44 460.74 186.15 463.01 187.7 514.01 264.82 491.96 258.74 486.24 252.78" style="fill:#f99d25"/><polygon points="440.94 210.54 437.78 225.87 451.51 263.4 448.06 271.25 450.29 276.64 464.35 283.1 451.1 220.71 440.94 210.54" style="fill:#fdc173"/><polygon points="426.54 226.36 422.69 231.92 421.54 252.69 414.93 254.96 415.09 258.98 426.49 277.27 432.33 239.9 426.54 226.36" style="fill:#f99d25"/><circle cx="372.41" cy="190.98" r="28.83" style="fill:#fdc173"/><path d="M372.46,209.2a28.8,28.8,0,0,0,16.65-41.71,28.82,28.82,0,1,1-41.82,37.63A28.78,28.78,0,0,0,372.46,209.2Z" style="fill:#f99d25"/><path d="M441.69,121.1l3.62,17.79,91.75,39.65,10.5-3.77s-90.08-51.12-90.94-51.46S441.69,121.1,441.69,121.1Z" style="fill:#f99d25"/><polygon points="420.97 97.1 362.3 104.58 335.71 130.42 313.25 140.59 304.48 155.98 307.67 167.15 386.79 146.18 416.98 152.73 510.05 215.43 530.65 215.19 442.82 140.26 437.58 113.43 420.97 97.1" style="fill:#f99d25"/><polygon points="394.91 119.89 388.94 113.63 374.63 116.08 367.74 126.62 394.91 119.89" style="fill:#fdc173"/><g style="clip-path:url(#clip-path)"><line x1="251.53" y1="494.39" x2="240.9" y2="522.97" style="fill:none;stroke:#f99d25;stroke-miterlimit:10"/><polygon points="273.89 490.62 281.8 469.36 267.35 451.89 244.98 455.67 237.08 476.92 251.53 494.39 273.89 490.62" style="fill:none;stroke:#f99d25;stroke-miterlimit:10"/><polygon points="244.46 544.05 248.76 532.48 240.9 522.97 228.73 525.03 224.43 536.6 232.29 546.11 244.46 544.05" style="fill:none;stroke:#f99d25;stroke-miterlimit:10"/><line x1="209.31" y1="468.63" x2="219.94" y2="440.05" style="fill:none;stroke:#f99d25;stroke-miterlimit:10"/><polygon points="186.95 472.41 179.04 493.66 193.49 511.14 215.85 507.36 223.76 486.1 209.31 468.63 186.95 472.41" style="fill:none;stroke:#f99d25;stroke-miterlimit:10"/><polygon points="216.38 418.97 212.08 430.54 219.94 440.05 232.11 437.99 236.41 426.43 228.55 416.92 216.38 418.97" style="fill:#f99d25"/><line x1="286.92" y1="374.64" x2="276.29" y2="403.22" style="fill:none;stroke:#f99d25;stroke-miterlimit:10"/><polygon points="309.29 370.86 317.19 349.6 302.74 332.13 280.38 335.91 272.47 357.16 286.92 374.64 309.29 370.86" style="fill:none;stroke:#f99d25;stroke-miterlimit:10"/><polygon points="279.85 424.29 284.16 412.73 276.29 403.21 264.12 405.27 259.82 416.84 267.69 426.35 279.85 424.29" style="fill:none;stroke:#f99d25;stroke-miterlimit:10"/><polygon points="317.12 418.86 321.43 407.29 313.56 397.78 301.39 399.84 297.09 411.41 304.95 420.92 317.12 418.86" style="fill:none;stroke:#f99d25;stroke-miterlimit:10"/><polygon points="253.38 390.06 261.29 368.81 246.84 351.33 224.48 355.11 216.57 376.37 231.02 393.84 253.38 390.06" style="fill:none;stroke:#f99d25;stroke-miterlimit:10"/><line x1="230.13" y1="272.95" x2="240.76" y2="244.37" style="fill:none;stroke:#f99d25;stroke-miterlimit:10"/><polygon points="207.77 276.73 199.86 297.98 214.31 315.46 236.67 311.68 244.58 290.43 230.13 272.95 207.77 276.73" style="fill:none;stroke:#f99d25;stroke-miterlimit:10"/><polygon points="237.2 223.29 232.89 234.86 240.76 244.37 252.93 242.31 257.23 230.75 249.37 221.24 237.2 223.29" style="fill:none;stroke:#f99d25;stroke-miterlimit:10"/><line x1="172.73" y1="358.41" x2="162.09" y2="386.99" style="fill:none;stroke:#f99d25;stroke-miterlimit:10"/><polygon points="195.09 354.63 202.99 333.37 188.54 315.9 166.18 319.68 158.27 340.93 172.72 358.41 195.09 354.63" style="fill:none;stroke:#f99d25;stroke-miterlimit:10"/><polygon points="165.65 408.06 169.96 396.5 162.09 386.99 149.92 389.04 145.62 400.61 153.49 410.12 165.65 408.06" style="fill:none;stroke:#f99d25;stroke-miterlimit:10"/><line x1="184.96" y1="245.18" x2="174.33" y2="273.76" style="fill:none;stroke:#f99d25;stroke-miterlimit:10"/><polygon points="207.32 241.4 215.23 220.15 200.77 202.67 178.41 206.45 170.5 227.71 184.96 245.18 207.32 241.4" style="fill:none;stroke:#f99d25;stroke-miterlimit:10"/><polygon points="177.89 294.84 182.19 283.27 174.33 273.76 162.16 275.82 157.85 287.38 165.72 296.89 177.89 294.84" style="fill:#f99d25"/><line x1="276.56" y1="284.31" x2="265.92" y2="312.88" style="fill:none;stroke:#f99d25;stroke-miterlimit:10"/><polygon points="298.92 280.53 306.82 259.27 292.37 241.8 270.01 245.57 262.1 266.83 276.56 284.31 298.92 280.53" style="fill:none;stroke:#f99d25;stroke-miterlimit:10"/><polygon points="269.49 333.96 273.79 322.39 265.92 312.88 253.75 314.94 249.45 326.51 257.32 336.02 269.49 333.96" style="fill:none;stroke:#f99d25;stroke-miterlimit:10"/><polygon points="315.61 223.51 323.52 202.26 309.06 184.78 286.7 188.56 278.8 209.82 293.25 227.29 315.61 223.51" style="fill:none;stroke:#f99d25;stroke-miterlimit:10"/><line x1="400.29" y1="320.68" x2="389.65" y2="349.25" style="fill:none;stroke:#f99d25;stroke-miterlimit:10"/><polygon points="422.65 316.9 430.56 295.64 416.1 278.17 393.74 281.94 385.83 303.2 400.29 320.68 422.65 316.9" style="fill:none;stroke:#f99d25;stroke-miterlimit:10"/><polygon points="393.22 370.33 397.52 358.76 389.65 349.25 377.49 351.31 373.18 362.88 381.05 372.39 393.22 370.33" style="fill:#f99d25"/><polygon points="321.75 308.65 326.05 297.08 318.19 287.57 306.02 289.63 301.71 301.19 309.58 310.7 321.75 308.65" style="fill:#f99d25"/><polygon points="292.91 159.8 297.21 148.24 289.35 138.73 277.18 140.78 272.88 152.35 280.74 161.86 292.91 159.8" style="fill:#f99d25"/><line x1="254.99" y1="162.05" x2="265.62" y2="133.47" style="fill:none;stroke:#f99d25;stroke-miterlimit:10"/><polygon points="232.63 165.83 224.72 187.08 239.18 204.56 261.54 200.78 269.44 179.53 254.99 162.05 232.63 165.83" style="fill:none;stroke:#f99d25;stroke-miterlimit:10"/><polygon points="262.06 112.39 257.76 123.96 265.62 133.47 277.79 131.41 282.1 119.85 274.23 110.34 262.06 112.39" style="fill:none;stroke:#f99d25;stroke-miterlimit:10"/><polygon points="232.77 306.75 238.45 291.49 228.07 278.94 212.01 281.66 206.33 296.92 216.71 309.47 232.77 306.75" style="fill:#f99d25"/><polygon points="445.45 367 453.36 345.75 438.91 328.27 416.55 332.05 408.64 353.31 423.09 370.78 445.45 367" style="fill:none;stroke:#f99d25;stroke-miterlimit:10"/><line x1="339.19" y1="606.1" x2="328.55" y2="634.68" style="fill:none;stroke:#f99d25;stroke-miterlimit:10"/><polygon points="361.55 602.32 369.46 581.07 355 563.59 332.64 567.37 324.73 588.62 339.19 606.1 361.55 602.32" style="fill:none;stroke:#f99d25;stroke-miterlimit:10"/><polygon points="332.12 655.75 336.42 644.19 328.55 634.68 316.39 636.74 312.08 648.3 319.95 657.81 332.12 655.75" style="fill:none;stroke:#f99d25;stroke-miterlimit:10"/><line x1="373.03" y1="433.57" x2="383.66" y2="404.99" style="fill:none;stroke:#f99d25;stroke-miterlimit:10"/><polygon points="350.67 437.35 342.76 458.6 357.21 476.08 379.57 472.3 387.48 451.05 373.03 433.57 350.67 437.35" style="fill:none;stroke:#f99d25;stroke-miterlimit:10"/><polygon points="380.1 383.92 375.8 395.48 383.66 404.99 395.83 402.94 400.13 391.37 392.27 381.86 380.1 383.92" style="fill:none;stroke:#f99d25;stroke-miterlimit:10"/><polygon points="411.23 435.56 415.53 424 407.66 414.49 395.5 416.54 391.19 428.11 399.06 437.62 411.23 435.56" style="fill:none;stroke:#f99d25;stroke-miterlimit:10"/><line x1="318.34" y1="513.25" x2="307.71" y2="541.83" style="fill:none;stroke:#f99d25;stroke-miterlimit:10"/><polygon points="340.7 509.47 348.61 488.22 334.16 470.74 311.8 474.52 303.89 495.78 318.34 513.25 340.7 509.47" style="fill:none;stroke:#f99d25;stroke-miterlimit:10"/><polygon points="311.27 562.91 315.58 551.34 307.71 541.83 295.54 543.89 291.24 555.46 299.11 564.97 311.27 562.91" style="fill:none;stroke:#f99d25;stroke-miterlimit:10"/><polygon points="348.62 548.75 352.93 537.18 345.06 527.67 332.89 529.73 328.59 541.29 336.46 550.8 348.62 548.75" style="fill:#f99d25"/><polygon points="317.86 627.39 325.77 606.14 311.32 588.66 288.95 592.44 281.05 613.7 295.5 631.17 317.86 627.39" style="fill:none;stroke:#f99d25;stroke-miterlimit:10"/><polygon points="269.76 485.67 275.44 470.41 265.06 457.86 249.01 460.57 243.33 475.83 253.71 488.38 269.76 485.67" style="fill:#f99d25"/><polygon points="311.54 218.91 317.21 203.65 306.83 191.1 290.78 193.81 285.1 209.07 295.48 221.63 311.54 218.91" style="fill:#f99d25"/><polygon points="206.45 409.24 210.75 397.68 202.89 388.17 190.72 390.22 186.41 401.79 194.28 411.3 206.45 409.24" style="fill:none;stroke:#f99d25;stroke-miterlimit:10"/><polygon points="305.21 365.93 310.89 350.67 300.51 338.12 284.45 340.83 278.77 356.1 289.15 368.64 305.21 365.93" style="fill:#f99d25"/><polygon points="375.5 467.38 381.18 452.11 370.8 439.56 354.74 442.28 349.06 457.54 359.44 470.09 375.5 467.38" style="fill:#f99d25"/></g></svg>