<?xml version="1.0" encoding="utf-8"?>
<!-- Generator: Adobe Illustrator 23.0.3, SVG Export Plug-In . SVG Version: 6.00 Build 0)  -->
<svg version="1.1" id="auryx" xmlns="http://www.w3.org/2000/svg" xmlns:xlink="http://www.w3.org/1999/xlink" x="0px" y="0px"
	 viewBox="0 0 429.3 627.7" style="enable-background:new 0 0 429.3 627.7;" xml:space="preserve">
<style type="text/css">
	.st0{clip-path:url(#SVGID_2_);}
	.st1{fill:none;stroke:#D81F27;stroke-miterlimit:10;}
	.st2{clip-path:url(#SVGID_2_);fill:none;stroke:#D81F27;stroke-miterlimit:10;}
	.st3{clip-path:url(#SVGID_2_);fill:#ED1C24;}
	.st4{fill:none;stroke:#F68639;stroke-width:4;stroke-miterlimit:10;}
	.st5{fill:none;stroke:#FDC173;stroke-width:4;stroke-miterlimit:10;}
	.st6{fill:#F68639;}
	.st7{fill:none;stroke:#000000;stroke-miterlimit:10;}
	.st8{fill:#D91F26;}
	.st9{fill:#D81F27;}
</style>
<g>
	<defs>
		<polygon id="SVGID_1_" points="184.2,5.5 19.6,177.6 184.2,627.7 349.4,175.8 		"/>
	</defs>
	<clipPath id="SVGID_2_">
		<use xlink:href="#SVGID_1_"  style="overflow:visible;"/>
	</clipPath>
	<g class="st0">
		<line class="st1" x1="133.3" y1="397.3" x2="122.6" y2="425.9"/>
		<polygon class="st1" points="155.6,393.5 163.5,372.3 149.1,354.8 126.7,358.6 118.8,379.8 133.3,397.3 		"/>
		<polygon class="st1" points="126.2,447 130.5,435.4 122.6,425.9 110.5,427.9 106.2,439.5 114,449 		"/>
	</g>
	<line class="st2" x1="91.1" y1="371.5" x2="101.7" y2="343"/>
	<polygon class="st2" points="68.7,375.3 60.8,396.6 75.2,414 97.6,410.3 105.5,389 91.1,371.5 	"/>
	<polygon class="st3" points="98.1,321.9 93.8,333.4 101.7,343 113.9,340.9 118.2,329.3 110.3,319.8 	"/>
	<g class="st0">
		<line class="st1" x1="168.7" y1="277.5" x2="158" y2="306.1"/>
		<polygon class="st1" points="191,273.8 198.9,252.5 184.5,235 162.1,238.8 154.2,260.1 168.7,277.5 		"/>
		<polygon class="st1" points="161.6,327.2 165.9,315.6 158,306.1 145.9,308.2 141.6,319.7 149.4,329.3 		"/>
	</g>
	<polygon class="st2" points="198.9,321.8 203.2,310.2 195.3,300.7 183.1,302.7 178.8,314.3 186.7,323.8 	"/>
	<polygon class="st2" points="135.1,293 143,271.7 128.6,254.2 106.2,258 98.3,279.3 112.8,296.7 	"/>
	<g class="st0">
		<line class="st1" x1="111.9" y1="175.9" x2="122.5" y2="147.3"/>
		<polygon class="st1" points="89.5,179.6 81.6,200.9 96.1,218.4 118.4,214.6 126.3,193.3 111.9,175.9 		"/>
		<polygon class="st1" points="118.9,126.2 114.6,137.8 122.5,147.3 134.7,145.2 139,133.7 131.1,124.1 		"/>
	</g>
	<g class="st0">
		<line class="st1" x1="54.5" y1="261.3" x2="43.8" y2="289.9"/>
		<polygon class="st1" points="76.8,257.5 84.7,236.3 70.3,218.8 47.9,222.6 40,243.8 54.5,261.3 		"/>
		<polygon class="st1" points="47.4,311 51.7,299.4 43.8,289.9 31.7,291.9 27.4,303.5 35.2,313 		"/>
	</g>
	<g class="st0">
		<line class="st1" x1="66.7" y1="148.1" x2="56.1" y2="176.7"/>
		<polygon class="st1" points="89.1,144.3 97,123.1 82.5,105.6 60.2,109.4 52.3,130.6 66.7,148.1 		"/>
	</g>
	<polygon class="st3" points="59.6,197.7 63.9,186.2 56.1,176.7 43.9,178.7 39.6,190.3 47.5,199.8 	"/>
	<g class="st0">
		<line class="st1" x1="158.3" y1="187.2" x2="147.7" y2="215.8"/>
		<polygon class="st1" points="180.7,183.4 188.6,162.2 174.1,144.7 151.8,148.5 143.8,169.7 158.3,187.2 		"/>
		<polygon class="st1" points="151.2,236.9 155.5,225.3 147.7,215.8 135.5,217.8 131.2,229.4 139.1,238.9 		"/>
	</g>
	<polygon class="st2" points="197.4,126.4 205.3,105.2 190.8,87.7 168.4,91.5 160.5,112.7 175,130.2 	"/>
	<line class="st2" x1="282" y1="223.6" x2="271.4" y2="252.2"/>
	<polygon class="st2" points="304.4,219.8 312.3,198.5 297.8,181.1 275.5,184.8 267.6,206.1 282,223.6 	"/>
	<polygon class="st3" points="275,273.2 279.3,261.7 271.4,252.2 259.2,254.2 254.9,265.8 262.8,275.3 	"/>
	<polygon class="st3" points="203.5,211.6 207.8,200 199.9,190.5 187.8,192.5 183.5,204.1 191.3,213.6 	"/>
	<polygon class="st3" points="174.7,62.7 179,51.1 171.1,41.6 158.9,43.7 154.6,55.3 162.5,64.8 	"/>
	<g class="st0">
		<line class="st1" x1="136.7" y1="65" x2="147.4" y2="36.4"/>
		<polygon class="st1" points="114.4,68.7 106.5,90 120.9,107.5 143.3,103.7 151.2,82.4 136.7,65 		"/>
		<polygon class="st1" points="143.8,15.3 139.5,26.9 147.4,36.4 159.5,34.3 163.8,22.8 156,13.2 		"/>
	</g>
	<polygon class="st3" points="114.5,209.7 120.2,194.4 109.8,181.8 93.8,184.6 88.1,199.8 98.5,212.4 	"/>
	<polygon class="st2" points="327.2,269.9 335.1,248.7 320.7,231.2 298.3,235 290.4,256.2 304.8,273.7 	"/>
	<g class="st0">
		<line class="st1" x1="220.9" y1="509" x2="210.3" y2="537.6"/>
		<polygon class="st1" points="243.3,505.2 251.2,484 236.7,466.5 214.4,470.3 206.5,491.5 220.9,509 		"/>
		<polygon class="st1" points="213.9,558.7 218.2,547.1 210.3,537.6 198.1,539.6 193.8,551.2 201.7,560.7 		"/>
	</g>
	<g class="st0">
		<line class="st1" x1="254.8" y1="336.5" x2="265.4" y2="307.9"/>
		<polygon class="st1" points="232.4,340.3 224.5,361.5 239,379 261.3,375.2 269.2,354 254.8,336.5 		"/>
		<polygon class="st1" points="261.8,286.8 257.5,298.4 265.4,307.9 277.6,305.8 281.9,294.3 274,284.8 		"/>
	</g>
	<polygon class="st2" points="293,338.5 297.3,326.9 289.4,317.4 277.2,319.4 272.9,331 280.8,340.5 	"/>
	<g class="st0">
		<line class="st1" x1="200.1" y1="416.2" x2="189.5" y2="444.7"/>
		<polygon class="st1" points="222.5,412.4 230.4,391.1 215.9,373.6 193.5,377.4 185.6,398.7 200.1,416.2 		"/>
		<polygon class="st1" points="193,465.8 197.3,454.2 189.5,444.7 177.3,446.8 173,458.4 180.9,467.9 		"/>
	</g>
	<polygon class="st3" points="230.4,451.7 234.7,440.1 226.8,430.6 214.6,432.6 210.3,444.2 218.2,453.7 	"/>
	<polygon class="st2" points="199.6,530.3 207.5,509 193.1,491.6 170.7,495.3 162.8,516.6 177.2,534.1 	"/>
	<polygon class="st3" points="151.5,388.6 157.2,373.3 146.8,360.8 130.8,363.5 125.1,378.7 135.5,391.3 	"/>
	<polygon class="st3" points="193.3,121.8 199,106.6 188.6,94 172.5,96.7 166.8,112 177.2,124.5 	"/>
	<polygon class="st2" points="88.2,312.1 92.5,300.6 84.6,291.1 72.5,293.1 68.2,304.7 76,314.2 	"/>
	<polygon class="st3" points="187,268.8 192.6,253.6 182.3,241 166.2,243.7 160.5,259 170.9,271.5 	"/>
	<polygon class="st3" points="257.2,370.3 262.9,355 252.5,342.5 236.5,345.2 230.8,360.4 241.2,373 	"/>
</g>
<polyline class="st4" points="131.1,481.3 20.1,177.6 184.6,5.5 203.5,25.2 "/>
<path class="st5" d="M131.1,481.3"/>
<polyline class="st4" points="342.4,196.1 184.6,627.7 153.5,542.7 "/>
<polygon class="st6" points="43.7,289.2 0,404.3 141.3,546.7 "/>
<polygon class="st6" points="227.9,546.7 369.2,404.3 325.6,289.2 "/>
<path class="st7" d="M216.5,248.6"/>
<path class="st6" d="M119.5,591.8c-2.2,1.5-4.4,2.9-6.6,4.4c-0.4,0.3-0.8,0.6-1.1-0.1c-1.8-3.1-4-5.9-5.7-9.1c-1.4,1-3.1,1.3-4.7,2
	c-0.7,0.3-1,0.6-1.2,1.4c-1.2,4.4-2.4,8.9-3.7,13.3c-0.3,0.9-0.2,1.7,0.2,2.5c1.6,2.9,3,5.9,4.6,8.9c0.9,1.7,3.7,2.5,5.3,1.6
	c3.2-1.9,6.4-3.9,9.6-5.8c0.6-0.3,0.9-0.8,1.2-1.4c1.6-3.8,3.2-7.5,4.8-11.3c0.4-0.9,0.4-1.5-0.1-2.3
	C121.2,594.6,120.4,593.2,119.5,591.8z"/>
<path class="st6" d="M214.1,299.3c1.5-3.5,2.4-7.1,3.5-10.7c-2.8-5.7-5.6-11.4-8.4-17c-0.6-1.2-0.6-2.2-0.3-3.5
	c2.1-7.2,4.1-14.4,6.2-21.6c2.4-8.3,15.1-49.7,17.5-58c-1.9-2.1-3.7-4.1-5.6-6.2c-1.5,5.6-13.3,44.3-14.9,50
	c-3.5,12.9-7.1,25.8-10.7,38.8c-0.2,0.7-0.1,1.2,0.1,1.8C205.8,281.6,210,290.4,214.1,299.3z"/>
<path class="st8" d="M113,596.3l14-5.3c1.1-0.7,1.8-1.6,2.2-2.9c1.7-5.1,14.8-37.9,16.6-42.9c0.5-1.4,0.7-2.6-0.3-3.7
	c-0.2-0.2-0.4-0.5-0.3-0.9c-0.1,0-0.1,0-0.2-0.1c-0.8-1.5-1.7-3-2.5-4.4c-0.5-0.8-0.6-1.7-0.3-2.7c0.7-2.3,1.3-4.7,1.9-7.1
	c0.1-0.3,0-0.8,0.4-0.9c0.5-0.1,0.5,0.4,0.7,0.7c1,1.9,1.9,3.8,2.9,5.7c0.4,0.7,0.9,1.4,1.4,2.3c1-2.7,1.9-5.3,2.8-7.8
	c0-1.4-1.1-2.4-1.2-3.7c-1.1-2.4-2.3-4.8-3.4-7.3c-0.1-0.3-0.2-0.7-0.2-1c0.8-3.2,1.7-6.5,2.6-9.7c0.1,0,0.2,0,0.4-0.1
	c1.2,3.1,2.5,6.2,3.7,9.2c0.4,0.8,0.9,1.6,1.4,2.6c1-2.9,1.9-5.5,2.8-8.2c0.3-0.9-0.2-1.5-0.5-2.2c-0.2-0.7-0.5-1.3-0.7-2
	c-1.4-3-2.7-6-4.1-8.9c-0.2-0.3-0.3-0.7-0.2-1.1c0.9-3.5,1.9-6.9,3-10.8c1.8,3.8,3.3,7.2,4.9,10.7c0.5,0.8,0.9,1.7,1.5,2.6
	c0.9-1.7,1.3-3.4,1.9-5c0.7-1.9,1.2-3.8,2-5.6c1.4-3.2,1.4-6.2,0.8-9.5c-1.8-9.2-3.3-18.5-5-27.8c-0.2-0.9-0.1-1.7,0.2-2.6
	c9.5-27,18.9-54.1,28.3-81.1c0.3-0.9,0.8-1.7,0.9-2.6c0.6-3.6,2.7-5.4,5.8-6.6c4.1-1.5,8-3.6,12-5.4c0.9-0.4,1.3-0.9,1.6-1.9
	c9.2-27.3,18.4-54.6,27.7-81.9c0.3-0.8,0.3-1.5,0-2.3c-0.8-2.4-1.6-4.8-2.4-7.1c-0.4-1.3-0.8-2.8-1.4-4c-0.6-1.4-0.4-2.6,0.1-4
	c2.8-7.9,5.6-15.9,8.3-23.8c4.2-12.1,8.4-24.2,12.5-36.4c0.9-2.7,2.1-4.2,4.6-4.6c0.1,0,0.2,0,0.3-0.1c2.3-1.1,4.7-1.8,7-2.7
	c0.7-0.3,1.1-0.6,1.3-1.5c0.7-2.9,1.5-5.7,2.4-8.5c0.3-0.9,0.2-1.7-0.1-2.6l-45.1-15.6l-4.4,30.7c-0.2,0.8-0.2,1.3,0.4,1.9
	c1.2,1.1,2.2,2.3,3.4,3.5c1.9,2.1,3.7,4.1,5.6,6.2c3.8,4,7.6,8,11.5,12c0.7,0.7,0.4,1.4,0.2,2.1c-2.6,8.5-14,42.6-16.7,51.1
	c-2.8,9.1-5.7,18.2-8.5,27.4c-1.1,3.6-2,7.2-3.5,10.7c0,0.7-0.2,1.3-0.4,2c-3.5,11.2-6.9,22.5-10.3,33.7c-0.3,1-0.9,1.5-1.7,1.8
	c-5.7,2.7-11.4,5.5-17.2,8.2c-1,0.5-1.6,1.1-2,2.2c-10.7,32.4-21.5,64.7-32.2,97.1c-10.8,32.5-21.6,65-32.5,97.6
	c-2.3,7-10.5,33.6-13,40.5c-0.8,2.2,0.2,3.3,1.2,4.7c1.7,3.2,3.9,6,5.7,9.1C112.2,596.8,112.5,596.6,113,596.3"/>
<path class="st6" d="M260.7,184.4c-0.1,0-0.2,0-0.3,0.1c-2.5,0.4-3.7,1.9-4.6,4.6c-4,12.2-8.3,24.3-12.5,36.4
	c-2.7,7.9-5.5,15.9-8.3,23.8c-0.5,1.4-0.7,2.6-0.1,4c0.6,1.3,0.9,2.7,1.4,4c2-1,3.9-2,5.9-3c0.7-0.4,1.2-0.8,1.5-1.7
	c6.5-20,13-40.1,19.6-60.1c0.3-0.9,0.3-1.6-0.1-2.4C262.3,188.2,261.5,186.3,260.7,184.4z"/>
<path class="st6" d="M160.9,494c-1.6-3.4-3.1-6.8-4.9-10.7c-1.1,3.9-2,7.3-3,10.8c-0.1,0.4,0,0.8,0.2,1.1c1.4,3,2.7,6,4.1,8.9
	C158.6,500.8,159.4,497.3,160.9,494z"/>
<path class="st6" d="M154.2,513.8c-1.2-3.1-2.5-6.2-3.7-9.2c-0.1,0-0.2,0-0.4,0.1c-0.9,3.2-1.8,6.5-2.6,9.7c-0.1,0.3,0,0.7,0.2,1
	c1.1,2.4,2.3,4.9,3.4,7.3C152.1,519.7,153.2,516.8,154.2,513.8z"/>
<path class="st6" d="M145.1,540.4c1-2.9,2-5.7,3-8.6c-1-1.9-1.9-3.8-2.9-5.7c-0.2-0.3-0.2-0.8-0.7-0.7c-0.4,0.1-0.3,0.6-0.4,0.9
	c-0.6,2.4-1.2,4.7-1.9,7.1c-0.3,1-0.2,1.9,0.3,2.7C143.4,537.5,144.2,538.9,145.1,540.4z"/>
<polygon class="st6" points="216.6,62.9 210.6,78.7 203.5,66.3 "/>
<polygon class="st6" points="344.8,90.6 296.4,57.4 268.6,52.2 373.7,161.6 395.8,167.7 "/>
<polygon class="st8" points="332.8,123.6 291,80.5 332,179.5 346.1,186 "/>
<polygon class="st6" points="294.3,96.5 314.1,142.8 308.2,180.2 296.8,161.9 "/>
<path class="st8" d="M293.8,143.1c0.2-0.9-0.8-30.4-0.8-30.4l-11.9,35.1l0.5,16L293.8,143.1z"/>
<polygon class="st6" points="321.7,15.8 333.4,13.2 343,11 401.9,49.3 409.3,69.2 324.9,31.4 "/>
<polygon class="st8" points="271,171.9 278.9,152.2 278.2,148.5 283.6,134.4 268.4,146.2 233.5,141.5 211.2,114.1 211.9,140.8 
	233.4,160.1 "/>
<polygon class="st6" points="274.5,142.7 270,134.3 233.5,129.1 228.4,135.5 234,142.4 268.9,147.2 "/>
<path class="st7" d="M244.4,74.2"/>
<polygon class="st8" points="368,155.7 369.3,146.1 336.7,105.3 342.5,89 344.8,90.6 395.8,167.7 373.7,161.6 "/>
<polygon class="st6" points="322.7,113.4 319.5,128.8 333.3,166.3 329.8,174.2 332,179.5 346.1,186 332.8,123.6 "/>
<polygon class="st8" points="308.3,129.3 304.4,134.8 303.3,155.6 296.7,157.9 296.8,161.9 308.2,180.2 314.1,142.8 "/>
<circle class="st6" cx="254.2" cy="93.9" r="28.8"/>
<path class="st8" d="M254.2,112.1c15.2-4.7,23.8-20.8,19.1-36c-0.6-2-1.4-3.9-2.4-5.7c5,3.6,8.9,8.7,10.8,15
	c4.7,15.2-3.9,31.3-19.1,36c-13.2,4-27.1-1.8-33.6-13.4C236.1,113,245.3,114.8,254.2,112.1z"/>
<path class="st8" d="M323.4,24l3.6,17.8l91.8,39.7l10.5-3.8c0,0-90.1-51.1-90.9-51.5C337.5,25.9,323.4,24,323.4,24z"/>
<polygon class="st9" points="302.7,0 244,7.5 217.5,33.3 195,43.5 186.2,58.9 189.4,70.1 268.5,49.1 298.7,55.6 391.8,118.3 
	412.4,118.1 324.6,43.2 319.3,16.3 "/>
<polygon class="st6" points="276.7,22.8 270.7,16.5 256.4,19 249.5,29.5 "/>
</svg>
