<?xml version="1.0" encoding="UTF-8"?><svg enable-background="new 0 0 595.28 841.89" version="1.1" viewBox="0 0 595.28 841.89" xml:space="preserve" xmlns="http://www.w3.org/2000/svg"><g stroke="#989898" stroke-miterlimit="10"><path d="m354.38 443.61s30.5-43.49 30.5-44.36-24.95-45.4-24.95-45.4l-50.6-3.12-30.15 46.44" fill="none"/><path d="m490.92 361.47c0.87 1.04 28.94 3.29 29.81 3.47 0.87 0.17 22.18 66.89 22.18 66.89l25.65-15.6v-29.81 36.74-6.93l-33.03-7.36-44.61-47.4z" fill="none"/><path d="m568.56 380.19-18.02-42.97s-14.9-38.99-13.86-39.16-15.6-6.93-15.6-6.93l29.46 46.09-13.86 7.97 31.88 35z" fill="none"/><path d="m459.21 210.89s40.38 28.68 40.38 29.11 27.73 31.71 27.73 31.71l9.36 26.34-24.26 9.53" fill="none"/><path d="m468.05 229.08 31.54 10.92-5.2 15.08s-43.49-1.56-44.36-2.08" fill="none"/><path d="m209.51 268.68 8.14-52.59-67.15 11.26 6.24 16.64 60.91-27.9-37.39-15.51 31.32-6.5-20.79 44.71s31.54-31.36 31.54-30.5-10.74-14.21-10.74-14.21l60.69 11.96s-49.95 1.13-49.95 2.25c0 1.13-68.9-15.38-68.45-15.25s40.16-14.17 40.16-14.17l17.55 15.21" fill="none"/><path d="m262.14 170.55c-0.32 0-35.68-7.47-36.13-7.67l-3.68 45.4" fill="none"/><path d="m442.92 227.87-22.35 60.3 29.46-4.33 0.87-30.32-48-30.32s-25.65-44.53-25.3-43.67c0.35 0.87-62.04-23.22-62.04-23.22l2.6 51.03 24.95-53.94-27.55 2.9" fill="none"/><path d="m441.36 536.4c-0.78 0 11.18 37.17 11.18 37.17l52.51-12.74s27.29-46.14 27.03-46.79 36.48-53.55 36.48-53.55l-24.78 75.9s-8.19 21.96-7.8 22.61-40.03 34.57-40.03 34.57" fill="none"/><path d="m447.6 517.43h34.83c0.26 0-1.56 37.43-1.56 37.43l-28.33 18.71-7.54 4.94-24.69 29.37 42.63 32.49 33.01-46.79-50.95-15.07" fill="none" stroke-width=".75"/><path d="m532.73 400.24-57.05 2.82-9.88 47.57 16.64 66.8s28.33-49.39 29.11-49.39 19.49 0.52 19.49 0.52l5.16 89.29-53.77-40.43 51.1-5.8 17.57 2.35-39.55-45.93 21.98 43.59" fill="none" stroke-width=".75"/><path d="m190.4 562.79 51.6 30.8s-22.03 62.71-22.22 63.03 11.11 22.68 10.92 22.35l42.76 11.57" fill="none"/><polyline points="209.51 631.28 219.78 656.62 273.45 690.54 254.87 696.78 219.78 656.62" fill="none"/><line x1="230.69" x2="254.61" y1="678.97" y2="648.56" fill="none"/><polyline points="273.45 690.54 308.02 680.01 298.79 657.27" fill="none"/><path d="m219.78 656.62s-41.07 4.35-40.81 4.68c0.26 0.32-4.09 9.16-3.77 9.49" fill="none"/><path d="m190.92 678.97c0.13 0.39-56.08-32.36-55.75-32.23 0.32 0.13 1.88-6.69 2.21-6.5s36 23.46 36 23.46" fill="none"/><path d="m116.97 535.75-43.02 0.65-17.68 22.35 21.96 11.96s31 32.75 31.06 32.36 28.2 3.25 28.2 3.25l-2.34 40.42s-16.31-12.74-16.64-12.87c0 0-46.85-49.78-46.53-49.78s19.36-18.84 19.36-18.84l25.63-29.5z" fill="none"/><polyline points="72.33 584.1 73.96 536.4 78.25 570.71" fill="none"/><path d="m42.77 412.81c0.45 0.13 53.03-7.67 53.03-7.67" fill="none"/><path d="m180.27 178.22-26.38 14.82-5.33 0.78-34.57 44.32s-22.68 20.92-22.35 20.92c0.32 0-14.36 11.89-14.04 12.09 0.32 0.19-4.81 19.49-4.81 19.49l-6.63 21.7s-0.45-38.53 0-38.21 57.7 18.06 57.7 18.06-27.68 12.22-27.29 12.22 31.06-47.83 31.06-47.83l-50.03 14.57" fill="none"/><line x1="442.92" x2="450.9" y1="227.87" y2="253.51" fill="#989898"/><polyline points="180.27 270.5 190.79 238.79 207.17 292.59" fill="none"/><polyline points="180.27 270.5 136.99 321.18 123.86 292.2 180.27 270.5 127.63 256.59 123.86 292.2 113.08 360.3 95.79 405.14 36.66 375.38" fill="none"/><line x1="127.63" x2="136.99" y1="256.59" y2="321.18" fill="none"/></g><g fill="none" stroke="#989898" stroke-miterlimit="10"><polyline points="226.01 162.89 266.52 156.82 314.52 153.4 305.86 175.88 266.52 156.82 262.14 170.55 318.16 207.33 357.49 248.32 351.78 219.9 305.86 175.88 337.82 164.85 351.78 219.9 343.11 153.4 398.91 184.37 367.37 245.54 318.16 207.33 351.78 219.9 318.16 207.33 289.39 234.28 272.28 206.03 297 251.09 289.07 222.82 330.12 260.79 318.16 207.33" stroke-width=".75"/><polygon points="305.86 175.88 343.11 153.4 314.52 153.4 262.14 170.55 289.57 222.32" stroke-width=".75"/><path d="m305.86 175.88-43.71-5.33-44.49 45.53 54.63-10.05s16.29 17.29 16.79 16.79 29.09-15.49 29.09-15.49l-12.31-31.45z" stroke-width=".75"/><path d="m297.64 253.51c0.25 0.43 32.48 7.28 32.48 7.28l27.38-12.48-60.5 2.78 54.78-31.19-62.71 2.92" stroke-width=".75"/><path d="m291.68 232.14 60.09-12.24 25.82-40.38 30.84 26.31-56.66 14.07 47.13-35.52s-15.16-20.01-14.9-19.58-6.41 14.73-6.41 14.73l26.51-0.65 4.33 26.96-9.53-21.46-21.31-4.85s-42.4-9.01-42.42-8.97 48.83-5.76 48.83-5.76l-40.9-11.39 61 25.47-20.1-14.08" stroke-width=".75"/><line x1="318.16" x2="297" y1="207.33" y2="251.09" stroke-width=".75"/><polyline points="404.11 178.87 421.61 186.8 408.44 205.83 459.21 210.89 421.61 186.8 442.92 227.87 459.21 210.89 398.91 184.37 442.92 227.87 408.44 205.83 367.37 245.54 351.78 219.9 402.9 223.19 367.37 245.54 357.49 248.32 408.44 205.83" stroke-width=".75"/><polyline points="351.78 219.9 330.12 260.79 360.09 302.21 420.57 288.17 402.9 223.19" stroke-width=".75"/><polyline points="408.44 205.83 468.05 229.08 450.03 283.84 499.59 240 442.92 227.87 468.05 229.08 421.61 186.8"/><line x1="459.21" x2="468.05" y1="210.89" y2="229.08"/><path d="m494.39 255.07-18.02 53.89-26.34-25.13s60.22-7.8 60.65-7.8 16.64-4.33 16.64-4.33l-14.9 35.87-62.38-23.74-6.76 60.65 33.1-35.52-3.99 31.36-29.11 4.16-22.7-26.51v-29.81l55.8 20.79-26.34-25.13-29.46 34.14 55.8-9.01 34.31-32.92 1.73 31.54-36.04 1.39 44.71-17.85-10.4-15.08-62.23 22.01" stroke-width=".75"/><polyline points="568.56 380.19 568.56 386.42 542.91 431.82 568.56 460.5" stroke-width=".75"/><polyline points="127.63 256.59 190.79 238.79 150.51 227.35 113.99 238.14 89.68 249.44 148.56 193.82" stroke-width=".5"/><path d="m29.64 378.63s12.44 34.25 13.13 34.18 0-19.88 0-19.88-9.81 34.38-9.36 34.44 30.96 6.16 30.96 6.16-28.17 21.97-27.71 22.03-12.22-36.68-12.22-36.68l18.32-6.08-9.36 14.56-8.97-8.47" stroke-width=".5"/><polyline points="56.28 467.52 40.95 515.48 37.96 463.36 36.01 513.79 24.44 456.34 36.66 375.38 42.77 392.92 29.64 378.63 54.07 317.02 66.16 274.14 48.87 309.68 77.6 271.15 89.68 249.44 71.81 292.59 123.86 292.2 89.68 249.44 66.16 274.14" stroke-width=".5"/><path d="m36.27 515.48h4.68l37.3 55.23s-4.31 11.7-5.28 12.54-16.69-24.5-16.69-24.5c-0.52 0.2-20.01-43.27-20.01-43.27s26.45 41.46 26.77 41.46 28.46-20.8 28.46-20.8l-50.56-20.66 76.55 20.27v56.27l22.35-29.24 2.86 26.77-5.33 50.69 41.93 20.96 55.68-39.98-14.69-45.05-10.79 55.1 48.69 36.04-23.22-46.09s-62.12-19.19-61.6-19.06 5.93 59.04 5.93 59.04l50.87 17.77 28.03-11.66-3.6-18.76-33.79 7.41 48.48-26.25-59.78 1.56 25.47-10.05-4.81 57.75 24.43 17.5" stroke-width=".5"/><path d="m56.28 558.76-15.34-43.28 22.09 41.46s9.29 26.84 8.97 27.16" stroke-width=".5"/><polyline points="117.49 535.75 131.62 573.54 137.51 606.32 117.49 592.03 101.51 535.99 108.89 602.72" stroke-width=".5"/><polyline points="118.16 633.47 137.51 606.32 142.71 589.56 131.62 573.54 91.5 536.14 117.49 592.03 78.25 570.71 91.5 536.14 91.37 565.25 73.96 536.4" stroke-width=".5"/><polyline points="91.37 565.25 139.85 562.79 91.5 536.14" stroke-width=".5"/><polygon points="142.71 589.56 190.4 562.79 139.85 562.79 183.65 554.21 190.4 517.23 248.67 553.64 229.91 517.23 190.4 517.23 220.3 576.17 229.91 517.23 183.65 554.21 248.67 553.64 220.3 576.17 183.65 554.21" stroke-width=".5"/><polyline points="190.4 562.79 229.91 517.23 256.3 474.02 259.94 412.81 264.27 452.97" stroke-width=".5"/><line x1="292.95" x2="354.94" y1="414.24" y2="443.61" stroke-width=".5"/><path d="m306.2 333.4 53.89-31.19 11.61 28.33 48.87-42.37 22.7 56.32 47.65 16.98 21.49-53.89s18.67-12.28 18.97-12.15" stroke-width=".75"/><line x1="420.57" x2="450.77" y1="288.17" y2="253.11" stroke-width=".75"/><polyline points="450.03 283.84 472.38 340.33 420.57 317.98 371.7 330.54" stroke-width=".75"/><line x1="360.09" x2="420.57" y1="302.21" y2="317.98" stroke-width=".75"/><polyline points="520.73 364.94 472.38 340.33 512.41 307.58" stroke-width=".75"/></g><g fill="none" stroke="#989898" stroke-miterlimit="10"><path d="m378.72 443.61 16.9 30.41 32.75-2.34-4.68-61.08s-30.67 2.21-30.41 2.86 2.34 60.56 2.34 60.56l46.79-31.71-14.04 29.37-49.65-28.07z" stroke-width=".75"/><polygon points="242.24 295.43 231.6 350.73 185.08 319.36 207.17 292.59" stroke-width=".75"/><polygon points="242.24 295.43 209.51 268.68 207.17 292.59 180.27 270.5" stroke-width=".5"/><path d="m84.22 353.15c0.65 0.13 52.77-31.97 52.77-31.97l-23.91 39.12-28.86-7.15z"/><polygon points="84.87 353.28 90.2 312.34 91.63 259.06 123.86 292.2 90.2 312.34 113.08 360.3 66.16 312.34 96.57 304.42 136.99 321.18 90.2 312.34 66.16 274.14" stroke-width=".5"/><path d="m113.08 360.3 14.56 48.67s30.41-1.62 30.41 0 1.3 62.71 1.3 62.71l14.56-29.89s-60.17-4.03-59.26-3.12 14.95 33.14 15.6 33.01 27.81-62.71 27.81-62.71l-43.41 29.7 13-29.7 2.6 62.71 43.67-29.89-15.86-32.82-44.98-48.67z" stroke-width=".5"/><polygon points="159.34 471.68 130.23 471.68 116.97 535.75 139.85 562.79 190.4 517.23" stroke-width=".5"/><path d="m159.34 471.68-44.71-33.01-50.17-4.68 31.32-28.85 31.84 3.83-63.16 25.02 1.56 13.78-9.75 18.97 58.35-28.07-18.84-33.53-29.76 42.63s50.69 1.17 50.95 0.78 10.66-39.57 10.66-39.57" stroke-width=".5"/><path d="m66.03 447.77-23.26-34.96s13-14.69 13.52-13.91 8.19 35.09 8.19 35.09-40.55-16.95-40.03-15.1 12.22-43.51 12.22-43.51 16.77-58.87 17.42-58.35 12.09-4.68 12.09-4.68-17.42-3.77-17.29-2.66c0.13 1.1 36 43.6 36 43.6l-28.61 45.61s-13.91-5.2-13.52-5.98 42.11-39.64 42.11-39.64l10.92 51.86-39.51-6.24-31.84 19.99 31.84 47.85-18.32-3.38s-14.31-6.11-13.52-7.02c0.78-0.91 0-37.45 0-37.45l5.2-40.26 7.02-3.25 12.22-65.7" stroke-width=".5"/><polyline points="156.74 243.98 180.27 200.58 148.56 193.82 150.51 227.35 181.44 178.87 190.79 238.79 180.27 200.58 226.01 162.89 217.65 161.59 181.44 178.87 217.65 216.08 195.21 178.87 217.65 161.59" stroke-width=".5"/><polygon points="195.21 178.87 226.01 162.89 181.44 178.87 180.27 200.58 150.51 227.35" stroke-width=".5"/><polyline points="217.65 161.59 212.5 195.35 153.88 193.04" stroke-width=".5"/><polyline points="315.56 156.3 262.14 170.55 212.5 195.35 266.52 156.82" stroke-width=".5"/><path d="m290.61 476.19 16.97-30.5s-65.88-3.81-65.34-2.08 12.84 29.81 14.06 30.41c1.21 0.61 34.31 2.17 34.31 2.17z" stroke-width=".5"/><path d="m354.38 443.61-46.8 2.08-14.63-31.45-33.01-1.43 30.67 63.38-48.37-32.58 22.03 9.36-7.97 21.05 51.28-28.33s-42.45 7.28-43.31 7.28 28.68-38.73 28.68-38.73l-50.71 29.37 17.7-30.8 47.64 32.88" stroke-width=".5"/><path d="m264.27 452.97 26.34 23.22 32.58 59.57s-21.14 27.68-20.1 27.03 56.14-27.03 56.14-27.03h-36.04l31.19 52.72 4.85-52.72-43.32 52.72 7.28-52.72 40.2 39.55 10.4-12.52-50.6-27.03" stroke-width=".5"/><path d="m359.23 535.75 14.56 27.03-57.88 25.69-12.82-25.69 60.3 12.52-9.01 13.17h-38.47s-46.44 40.81-46.61 41.24 29.5 27.55 29.5 27.55 61.39-27.55 60.61-27.9 60.91-21.49 60.91-21.49l-1.65 15.6s-42.02-14.99-41.24-14.38-61.52-20.62-61.52-20.62l43.49 40.9 3.99-54.07" stroke-width=".5"/><line x1="290.61" x2="292.95" y1="476.19" y2="414.24" stroke-width=".5"/><polyline points="279.17 397.17 242.24 443.61 173.9 441.79 127.63 408.97" stroke-width=".5"/><path d="m536.67 345.18s-25.43 55.01-25.41 56.12-20.34-39.83-20.34-39.83l-18.54-21.14 64.29 4.85z" stroke-width=".5"/><path d="m536.67 345.18-24.26-37.6 38.12 29.63-17.81 63.03s35.83-19.15 35.83-18.5-23.74 48.92-23.74 48.92l-44.97 6.7 11.41-36.07 33.55 29.36 25.58 25.58-1.84-33.08-37.52 45.4-37.69-18.45 39.38-49.86-41.8-38.77" stroke-width=".5"/><path d="m511.55 468.04-11.7-30.67s25.21 13.26 25.99 12.74 18.97-19.44 18.97-19.44l-13.78 37.9-5.2-18.45-14.28 17.92z" stroke-width=".5"/><polyline points="520.73 364.94 511.26 401.3 465.8 450.63 525.84 450.11 511.55 468.04 535.53 408.87 525.84 450.11 511.26 401.3 568.56 423.16 532.73 400.24" stroke-width=".5"/><path d="m531.04 468.56 4.49-59.69-35.68 28.5-57.44 4.94 50.95 7.8 6.5-12.74-34.05 13.26-23.39-8.32-63.68 1.3 14.56-30.15 35.09 58.22 37.43-21.05-42.11-40.03 18.71 31.71-49.13-28.85-8.4-14.21-13.17-68.71-34.57-21.57s-30.93 23.65-30.93 24.43 15.34 37.17 15.34 37.17l15.6-61.6 47.74 90.28-63.34-28.68-12.22-19.84-16.38 63.51 28.59-43.67 38.38-16.72 11.78-23.31-65.5 2.86-54.07-8.58-20.53 25.91-35.35-2.25 10.92-55.88 44.97 32.23-9.9-29.4-57.16 23.94 11.18 29.11-59.26-27.29 48.09-1.82-4.81-48.87 29.24-1.82-52.77-24.69-32.88 48.22 61.21 27.16 67.06 5.46-55.88 23.65" stroke-width=".5"/><line x1="423.69" x2="378.72" y1="410.6" y2="443.61" stroke-width=".5"/><path d="m462.94 640.37s-2.69 7.97-3.21 8.19-34.66 22.22-34.66 22.22-67.23-14.64-65.85-15.21c1.39-0.56 47.48 3.94 47.48 3.94l11.96-36.04s11.61 14.38 13 12.48c1.39-1.91 13.34-57.44 13.34-57.44l-26.34 44.97 41.07 25.08-28.07-12.61s-47.48-5.55-47.48-4.68-24.95 24.3-24.95 24.3l-4.85-67.1 23.05 20.62 6.76 22.18-29.81-42.8 65.93 19.41-46.53-45.1s50.77-8.45 51.64-8.27-5.11 53.37-5.11 53.37l-36.13 23.39-24.78-1.91 12.65 41.42s-36.74 27.03-35.7 27.55-6.56-8.14-6.66-7.8c-0.1 0.35 29.53-34.96 29.53-34.96l-22.87 42.76s-45.75 2.43-45.75 3.12 39.09-10.92 39.09-10.92l-21.67-10.53-17.42 21.44-35.74-4.68-63.94-17.81h39.77s-56.64-8.1-55.49-8.19 44.58-14.17 44.58-14.17l-28.85 22.35-17.55-15.27 36.13-32.43-18.58 47.7s67.19-12.09 67.28-11.65c0.09 0.43 24.35-15.08 24.26-13.86s8.14 48 8.14 48l-17.16-10.92-15.25-23.22-3.34 29.46 27.6-43.32-13.17-23.74-11.09 37.6-38.43-10.7 62.69-3.16-27.86-4.9 14.69-18.84 16.46-66.93-37.08-9.14-6.67 39.97 27.29 36.13s-34.4-9.1-34.31-8.49 47.48 32.23 47.48 32.23l16.33 3.81" stroke-width=".5"/><polyline points="282.46 653.46 329.7 690.54 372.05 670.79 393.19 684.13 336.35 698.34 393.19 675.9 329.7 690.54 393.19 684.13 431.66 635.95 377.42 609.1 359.23 655.58 418.66 623.48 372.05 670.79 384.18 631.28 406.71 659.52 393.19 675.9 359.23 655.58 372.05 670.79" stroke-width=".5"/><polyline points="359.4 629.37 377.42 609.1 363.39 575.3" stroke-width=".5"/><line x1="373.78" x2="377.42" y1="562.79" y2="609.1" stroke-width=".5"/></g><g fill="none" stroke="#989898" stroke-miterlimit="10" stroke-width=".5"><polyline points="330.12 260.79 337.13 308.97 357.49 246.76"/><path d="m319.03 370.83c2.51-0.26 52.68-40.29 52.68-40.29l-7.28 40.29-58.23-37.43 3.12 17.33"/><path d="m359.92 353.85s0.63-50.51 0.17-51.64l-22.96 6.76 27.29 61.86 20.45 28.42"/><path d="m371.7 330.54"/><line x1="321.54" x2="364.43" y1="370.57" y2="370.83"/><path d="m459.21 210.89c0.56 0.4 35.18 44.19 35.18 44.19l16.29 20.97-10.86-35.72"/><line x1="468.05" x2="494.39" y1="229.08" y2="255.07"/><path d="m402.9 223.19c0.87-0.78 40.03 4.68 40.03 4.68l6.41 54.93"/><path d="m475.75 308.38c0.9-0.24 55.63-12.95 55.63-12.95"/><path d="m519.94 289.47c-0.38 0.92 16.29 55.02 16.29 55.02-0.17-0.26 0.45-46.44 0.45-46.44"/><line x1="63.04" x2="116.97" y1="556.94" y2="535.75"/><path d="m142.71 589.56s-51.85-23.71-51.34-24.3 17.94 37.82 17.94 37.82-37.61-18.13-36.97-18.97 45.16 7.93 45.16 7.93l1.04 41.85-9.23-30.8 25.86 43.67 38.21-44.58 10.97-48.52-52.73 19.9 41.76 28.62 47.46-26.43-30.44-12.95-17.03 39.38 1.82 68.62-37.82-30.54-18.84-6.37 54.84-31.71-35.87 4.16"/><polyline points="208.82 631.28 173.38 602.16 242 593.59"/><path d="m173.38 602.16-33.53-39.38s-61.27 7.06-61.31 7.16"/><line x1="285.75" x2="303.08" y1="562.79" y2="562.79"/><polyline points="406.71 659.52 425.38 670.59 429.15 653.02"/><path d="m393.19 675.9v8.23l32.19-13.54s-6.42-47.62-6.4-47.65 10.17 30.08 10.17 30.08l-22.44 6.5-34.66 11.26 53.33-0.2 37.56-30.21-31.28-4.42-2.51 17.07 33.79-12.65"/><path d="m452.54 573.57s-4.38-56.14-4.51-56.14-6.67 18.97-6.67 18.97l39.51 18.45-32.84-37.43-22.53 37.51 15.86-18.54 41.07-18.97s22.52 43.57 22.61 43.41-24.17-5.98-24.17-5.98l14.73 38.73s11.22 3.6 11.7 3.21 28.72-38.22 28.72-38.22l-30.97 2.26-9.44 32.75"/><polyline points="462.94 640.37 507.3 596.79 505.05 560.84"/><path d="m480.87 554.86s49.69-18.58 49.73-18.8 2.92-24.43 2.92-24.43"/><polyline points="551.1 513.97 530.61 536.06 482.43 517.43"/><polyline points="37.96 463.36 36.66 455.56 24.44 456.34 40.95 515.48"/></g></svg>