<svg xmlns="http://www.w3.org/2000/svg" xmlns:xlink="http://www.w3.org/1999/xlink" version="1.1" x="0px" y="0px" viewBox="0 0 595.28 841.89" enable-background="new 0 0 595.28 841.89" xml:space="preserve">
<g id="thick_lines">
	<path fill="none" stroke="#989898" stroke-miterlimit="10" d="M354.38,443.61c0,0,30.5-43.49,30.5-44.36s-24.95-45.4-24.95-45.4   l-50.6-3.12l-30.15,46.44"/>
	<path fill="none" stroke="#989898" stroke-miterlimit="10" d="M490.92,361.47c0.87,1.04,28.94,3.29,29.81,3.47   c0.87,0.17,22.18,66.89,22.18,66.89l25.65-15.6v-29.81v36.74v-6.93l-33.03-7.36L490.92,361.47z"/>
	<path fill="none" stroke="#989898" stroke-miterlimit="10" d="M568.56,380.19l-18.02-42.97c0,0-14.9-38.99-13.86-39.16   c1.04-0.17-15.6-6.93-15.6-6.93l29.46,46.09l-13.86,7.97L568.56,380.19z"/>
	<path fill="none" stroke="#989898" stroke-miterlimit="10" d="M459.21,210.89c0,0,40.38,28.68,40.38,29.11s27.73,31.71,27.73,31.71   l9.36,26.34l-24.26,9.53"/>
	<path fill="none" stroke="#989898" stroke-miterlimit="10" d="M468.05,229.08L499.59,240l-5.2,15.08c0,0-43.49-1.56-44.36-2.08"/>
	<path fill="none" stroke="#989898" stroke-miterlimit="10" d="M209.51,268.68l8.14-52.59l-67.15,11.26l6.24,16.64l60.91-27.9   l-37.39-15.51l31.32-6.5l-20.79,44.71c0,0,31.54-31.36,31.54-30.5s-10.74-14.21-10.74-14.21l60.69,11.96c0,0-49.95,1.13-49.95,2.25   c0,1.13-68.9-15.38-68.45-15.25s40.16-14.17,40.16-14.17l17.55,15.21"/>
	<path fill="none" stroke="#989898" stroke-miterlimit="10" d="M262.14,170.55c-0.32,0-35.68-7.47-36.13-7.67l-3.68,45.4"/>
	<path fill="none" stroke="#989898" stroke-miterlimit="10" d="M442.92,227.87l-22.35,60.3l29.46-4.33l0.87-30.32l-48-30.32   c0,0-25.65-44.53-25.3-43.67c0.35,0.87-62.04-23.22-62.04-23.22l2.6,51.03l24.95-53.94l-27.55,2.9"/>
	<path fill="none" stroke="#989898" stroke-miterlimit="10" d="M441.36,536.4c-0.78,0,11.18,37.17,11.18,37.17l52.51-12.74   c0,0,27.29-46.14,27.03-46.79c-0.26-0.65,36.48-53.55,36.48-53.55l-24.78,75.9c0,0-8.19,21.96-7.8,22.61s-40.03,34.57-40.03,34.57"/>
	<path fill="none" stroke="#989898" stroke-width="0.75" stroke-miterlimit="10" d="M447.6,517.43c0,0,34.57,0,34.83,0   c0.26,0-1.56,37.43-1.56,37.43l-28.33,18.71l-7.54,4.94l-24.69,29.37l42.63,32.49l33.01-46.79L445,578.51"/>
	<path fill="none" stroke="#989898" stroke-width="0.75" stroke-miterlimit="10" d="M532.73,400.24l-57.05,2.82l-9.88,47.57   l16.64,66.8c0,0,28.33-49.39,29.11-49.39c0.78,0,19.49,0.52,19.49,0.52l5.16,89.29l-53.77-40.43l51.1-5.8l17.57,2.35l-39.55-45.93   l21.98,43.59"/>
	<path fill="none" stroke="#989898" stroke-miterlimit="10" d="M190.4,562.79l51.6,30.8c0,0-22.03,62.71-22.22,63.03   c-0.19,0.32,11.11,22.68,10.92,22.35l42.76,11.57"/>
	<polyline fill="none" stroke="#989898" stroke-miterlimit="10" points="209.51,631.28 219.78,656.62 273.45,690.54 254.87,696.78    219.78,656.62  "/>
	<line fill="none" stroke="#989898" stroke-miterlimit="10" x1="230.69" y1="678.97" x2="254.61" y2="648.56"/>
	<polyline fill="none" stroke="#989898" stroke-miterlimit="10" points="273.45,690.54 308.02,680.01 298.79,657.27  "/>
	<path fill="none" stroke="#989898" stroke-miterlimit="10" d="M219.78,656.62c0,0-41.07,4.35-40.81,4.68   c0.26,0.32-4.09,9.16-3.77,9.49"/>
	<path fill="none" stroke="#989898" stroke-miterlimit="10" d="M190.92,678.97c0.13,0.39-56.08-32.36-55.75-32.23   c0.32,0.13,1.88-6.69,2.21-6.5s36,23.46,36,23.46"/>
	<path fill="none" stroke="#989898" stroke-miterlimit="10" d="M116.97,535.75l-43.02,0.65l-17.68,22.35l21.96,11.96   c0,0,31,32.75,31.06,32.36c0.06-0.39,28.2,3.25,28.2,3.25l-2.34,40.42c0,0-16.31-12.74-16.64-12.87c0,0-46.85-49.78-46.53-49.78   c0.32,0,19.36-18.84,19.36-18.84L116.97,535.75z"/>
	<polyline fill="none" stroke="#989898" stroke-miterlimit="10" points="72.33,584.1 73.96,536.4 78.25,570.71  "/>
	<path fill="none" stroke="#989898" stroke-miterlimit="10" d="M42.77,412.81c0.45,0.13,53.03-7.67,53.03-7.67"/>
	<path fill="none" stroke="#989898" stroke-miterlimit="10" d="M180.27,178.22l-26.38,14.82l-5.33,0.78l-34.57,44.32   c0,0-22.68,20.92-22.35,20.92c0.32,0-14.36,11.89-14.04,12.09c0.32,0.19-4.81,19.49-4.81,19.49l-6.63,21.7c0,0-0.45-38.53,0-38.21   s57.7,18.06,57.7,18.06s-27.68,12.22-27.29,12.22s31.06-47.83,31.06-47.83L77.6,271.15"/>
	<line fill="#989898" stroke="#989898" stroke-miterlimit="10" x1="442.92" y1="227.87" x2="450.9" y2="253.51"/>
	<polyline fill="none" stroke="#989898" stroke-miterlimit="10" points="180.27,270.5 190.79,238.79 207.17,292.59  "/>
	<polyline fill="none" stroke="#989898" stroke-miterlimit="10" points="180.27,270.5 136.99,321.18 123.86,292.2 180.27,270.5    127.63,256.59 123.86,292.2 113.08,360.3 95.79,405.14 36.66,375.38  "/>
	<line fill="none" stroke="#989898" stroke-miterlimit="10" x1="127.63" y1="256.59" x2="136.99" y2="321.18"/>
</g>
<g id="thin_lines">
	<polyline fill="none" stroke="#989898" stroke-width="0.75" stroke-miterlimit="10" points="226.01,162.89 266.52,156.82    314.52,153.4 305.86,175.88 266.52,156.82 262.14,170.55 318.16,207.33 357.49,248.32 351.78,219.9 305.86,175.88 337.82,164.85    351.78,219.9 343.11,153.4 398.91,184.37 367.37,245.54 318.16,207.33 351.78,219.9 318.16,207.33 289.39,234.28 272.28,206.03    297,251.09 289.07,222.82 330.12,260.79 318.16,207.33  "/>
	<polygon fill="none" stroke="#989898" stroke-width="0.75" stroke-miterlimit="10" points="305.86,175.88 343.11,153.4    314.52,153.4 262.14,170.55 289.57,222.32  "/>
	<path fill="none" stroke="#989898" stroke-width="0.75" stroke-miterlimit="10" d="M305.86,175.88l-43.71-5.33l-44.49,45.53   l54.63-10.05c0,0,16.29,17.29,16.79,16.79c0.5-0.5,29.09-15.49,29.09-15.49L305.86,175.88z"/>
	<path fill="none" stroke="#989898" stroke-width="0.75" stroke-miterlimit="10" d="M297.64,253.51c0.25,0.43,32.48,7.28,32.48,7.28   l27.38-12.48L297,251.09l54.78-31.19l-62.71,2.92"/>
	<path fill="none" stroke="#989898" stroke-width="0.75" stroke-miterlimit="10" d="M291.68,232.14l60.09-12.24l25.82-40.38   l30.84,26.31l-56.66,14.07l0,0l47.13-35.52c0,0-15.16-20.01-14.9-19.58c0.26,0.43-6.41,14.73-6.41,14.73l26.51-0.65l4.33,26.96   l-9.53-21.46l-21.31-4.85c0,0-42.4-9.01-42.42-8.97c-0.02,0.04,48.83-5.76,48.83-5.76l-40.9-11.39l61,25.47l-20.1-14.08"/>
	<line fill="none" stroke="#989898" stroke-width="0.75" stroke-miterlimit="10" x1="318.16" y1="207.33" x2="297" y2="251.09"/>
	<polyline fill="none" stroke="#989898" stroke-width="0.75" stroke-miterlimit="10" points="404.11,178.87 421.61,186.8    408.44,205.83 459.21,210.89 421.61,186.8 442.92,227.87 459.21,210.89 398.91,184.37 442.92,227.87 408.44,205.83 367.37,245.54    351.78,219.9 402.9,223.19 367.37,245.54 357.49,248.32 408.44,205.83  "/>
	<polyline fill="none" stroke="#989898" stroke-width="0.75" stroke-miterlimit="10" points="351.78,219.9 330.12,260.79    360.09,302.21 420.57,288.17 402.9,223.19  "/>
	<polyline fill="none" stroke="#989898" stroke-miterlimit="10" points="408.44,205.83 468.05,229.08 450.03,283.84 499.59,240    442.92,227.87 468.05,229.08 421.61,186.8  "/>
	<line fill="none" stroke="#989898" stroke-miterlimit="10" x1="459.21" y1="210.89" x2="468.05" y2="229.08"/>
	<path fill="none" stroke="#989898" stroke-width="0.75" stroke-miterlimit="10" d="M494.39,255.07l-18.02,53.89l-26.34-25.13   c0,0,60.22-7.8,60.65-7.8c0.43,0,16.64-4.33,16.64-4.33l-14.9,35.87l-62.38-23.74l-6.76,60.65l33.1-35.52l-3.99,31.36l-29.11,4.16   l0,0l-22.7-26.51v-29.81l55.8,20.79l-26.34-25.13l-29.46,34.14l55.8-9.01l34.31-32.92l1.73,31.54l-36.04,1.39l44.71-17.85   l-10.4-15.08l-62.23,22.01"/>
	<polyline fill="none" stroke="#989898" stroke-width="0.75" stroke-miterlimit="10" points="568.56,380.19 568.56,386.42    542.91,431.82 568.56,460.5  "/>
	<polyline fill="none" stroke="#989898" stroke-width="0.5" stroke-miterlimit="10" points="127.63,256.59 190.79,238.79    150.51,227.35 113.99,238.14 89.68,249.44 148.56,193.82  "/>
	<path fill="none" stroke="#989898" stroke-width="0.5" stroke-miterlimit="10" d="M29.64,378.63c0,0,12.44,34.25,13.13,34.18   s0-19.88,0-19.88s-9.81,34.38-9.36,34.44c0.45,0.06,30.96,6.16,30.96,6.16S36.2,455.5,36.66,455.56s-12.22-36.68-12.22-36.68   l18.32-6.08l-9.36,14.56l-8.97-8.47"/>
	<polyline fill="none" stroke="#989898" stroke-width="0.5" stroke-miterlimit="10" points="56.28,467.52 40.95,515.48    37.96,463.36 36.01,513.79 24.44,456.34 36.66,375.38 42.77,392.92 29.64,378.63 54.07,317.02 66.16,274.14 48.87,309.68    77.6,271.15 89.68,249.44 71.81,292.59 123.86,292.2 89.68,249.44 66.16,274.14  "/>
	<path fill="none" stroke="#989898" stroke-width="0.5" stroke-miterlimit="10" d="M36.27,515.48h4.68l37.3,55.23   c0,0-4.31,11.7-5.28,12.54s-16.69-24.5-16.69-24.5C55.76,558.95,36.27,515.48,36.27,515.48s26.45,41.46,26.77,41.46   s28.46-20.8,28.46-20.8l-50.56-20.66l76.55,20.27v56.27l22.35-29.24l2.86,26.77l-5.33,50.69l41.93,20.96l55.68-39.98l-14.69-45.05   l-10.79,55.1l48.69,36.04l-23.22-46.09c0,0-62.12-19.19-61.6-19.06s5.93,59.04,5.93,59.04l50.87,17.77l28.03-11.66l-3.6-18.76   l-33.79,7.41l48.48-26.25l-59.78,1.56l25.47-10.05l-4.81,57.75l24.43,17.5"/>
	<path fill="none" stroke="#989898" stroke-width="0.5" stroke-miterlimit="10" d="M56.28,558.76l-15.34-43.28l22.09,41.46   c0,0,9.29,26.84,8.97,27.16"/>
	<polyline fill="none" stroke="#989898" stroke-width="0.5" stroke-miterlimit="10" points="117.49,535.75 131.62,573.54    137.51,606.32 117.49,592.03 101.51,535.99 108.89,602.72  "/>
	<polyline fill="none" stroke="#989898" stroke-width="0.5" stroke-miterlimit="10" points="118.16,633.47 137.51,606.32    142.71,589.56 131.62,573.54 91.5,536.14 117.49,592.03 78.25,570.71 91.5,536.14 91.37,565.25 73.96,536.4  "/>
	<polyline fill="none" stroke="#989898" stroke-width="0.5" stroke-miterlimit="10" points="91.37,565.25 139.85,562.79    91.5,536.14  "/>
	<polygon fill="none" stroke="#989898" stroke-width="0.5" stroke-miterlimit="10" points="142.71,589.56 190.4,562.79    139.85,562.79 183.65,554.21 190.4,517.23 248.67,553.64 229.91,517.23 190.4,517.23 220.3,576.17 229.91,517.23 183.65,554.21    248.67,553.64 220.3,576.17 183.65,554.21  "/>
	<polyline fill="none" stroke="#989898" stroke-width="0.5" stroke-miterlimit="10" points="190.4,562.79 229.91,517.23    256.3,474.02 259.94,412.81 264.27,452.97  "/>
	<line fill="none" stroke="#989898" stroke-width="0.5" stroke-miterlimit="10" x1="292.95" y1="414.24" x2="354.94" y2="443.61"/>
	<path fill="none" stroke="#989898" stroke-width="0.75" stroke-miterlimit="10" d="M306.2,333.4l53.89-31.19l11.61,28.33   l48.87-42.37l22.7,56.32l47.65,16.98l21.49-53.89c0,0,18.67-12.28,18.97-12.15"/>
	<line fill="none" stroke="#989898" stroke-width="0.75" stroke-miterlimit="10" x1="420.57" y1="288.17" x2="450.77" y2="253.11"/>
	<polyline fill="none" stroke="#989898" stroke-width="0.75" stroke-miterlimit="10" points="450.03,283.84 472.38,340.33    420.57,317.98 371.7,330.54  "/>
	<line fill="none" stroke="#989898" stroke-width="0.75" stroke-miterlimit="10" x1="360.09" y1="302.21" x2="420.57" y2="317.98"/>
	<polyline fill="none" stroke="#989898" stroke-width="0.75" stroke-miterlimit="10" points="520.73,364.94 472.38,340.33    512.41,307.58  "/>
</g>
<g id="Layer_7">
	<path fill="none" stroke="#989898" stroke-width="0.75" stroke-miterlimit="10" d="M378.72,443.61l16.9,30.41l32.75-2.34   l-4.68-61.08c0,0-30.67,2.21-30.41,2.86c0.26,0.65,2.34,60.56,2.34,60.56l46.79-31.71l-14.04,29.37L378.72,443.61z"/>
	<polygon fill="none" stroke="#989898" stroke-width="0.75" stroke-miterlimit="10" points="242.24,295.43 231.6,350.73    185.08,319.36 207.17,292.59  "/>
	<polygon fill="none" stroke="#989898" stroke-width="0.5" stroke-miterlimit="10" points="242.24,295.43 209.51,268.68    207.17,292.59 180.27,270.5  "/>
	<path fill="none" stroke="#989898" stroke-miterlimit="10" d="M84.22,353.15c0.65,0.13,52.77-31.97,52.77-31.97l-23.91,39.12   L84.22,353.15z"/>
	<polygon fill="none" stroke="#989898" stroke-width="0.5" stroke-miterlimit="10" points="84.87,353.28 90.2,312.34 91.63,259.06    123.86,292.2 90.2,312.34 113.08,360.3 66.16,312.34 96.57,304.42 136.99,321.18 90.2,312.34 66.16,274.14  "/>
	<path fill="none" stroke="#989898" stroke-width="0.5" stroke-miterlimit="10" d="M113.08,360.3l14.56,48.67   c0,0,30.41-1.62,30.41,0s1.3,62.71,1.3,62.71l14.56-29.89c0,0-60.17-4.03-59.26-3.12c0.91,0.91,14.95,33.14,15.6,33.01   c0.65-0.13,27.81-62.71,27.81-62.71l-43.41,29.7l13-29.7l2.6,62.71l43.67-29.89l-15.86-32.82L113.08,360.3z"/>
	<polygon fill="none" stroke="#989898" stroke-width="0.5" stroke-miterlimit="10" points="159.34,471.68 130.23,471.68    116.97,535.75 139.85,562.79 190.4,517.23  "/>
	<path fill="none" stroke="#989898" stroke-width="0.5" stroke-miterlimit="10" d="M159.34,471.68l-44.71-33.01l-50.17-4.68   l31.32-28.85l31.84,3.83l-63.16,25.02l1.56,13.78l-9.75,18.97l58.35-28.07l-18.84-33.53l-29.76,42.63c0,0,50.69,1.17,50.95,0.78   c0.26-0.39,10.66-39.57,10.66-39.57"/>
	<path fill="none" stroke="#989898" stroke-width="0.5" stroke-miterlimit="10" d="M66.03,447.77l-23.26-34.96   c0,0,13-14.69,13.52-13.91s8.19,35.09,8.19,35.09s-40.55-16.95-40.03-15.1s12.22-43.51,12.22-43.51s16.77-58.87,17.42-58.35   c0.65,0.52,12.09-4.68,12.09-4.68s-17.42-3.77-17.29-2.66c0.13,1.1,36,43.6,36,43.6L56.28,398.9c0,0-13.91-5.2-13.52-5.98   c0.39-0.78,42.11-39.64,42.11-39.64l10.92,51.86l-39.51-6.24l-31.84,19.99l31.84,47.85l-18.32-3.38c0,0-14.31-6.11-13.52-7.02   c0.78-0.91,0-37.45,0-37.45l5.2-40.26l7.02-3.25l12.22-65.7"/>
	<polyline fill="none" stroke="#989898" stroke-width="0.5" stroke-miterlimit="10" points="156.74,243.98 180.27,200.58    148.56,193.82 150.51,227.35 181.44,178.87 190.79,238.79 180.27,200.58 226.01,162.89 217.65,161.59 181.44,178.87 217.65,216.08    195.21,178.87 217.65,161.59  "/>
	<polygon fill="none" stroke="#989898" stroke-width="0.5" stroke-miterlimit="10" points="195.21,178.87 226.01,162.89    181.44,178.87 180.27,200.58 150.51,227.35  "/>
	<polyline fill="none" stroke="#989898" stroke-width="0.5" stroke-miterlimit="10" points="217.65,161.59 212.5,195.35    153.88,193.04  "/>
	<polyline fill="none" stroke="#989898" stroke-width="0.5" stroke-miterlimit="10" points="315.56,156.3 262.14,170.55    212.5,195.35 266.52,156.82  "/>
	<path fill="none" stroke="#989898" stroke-width="0.5" stroke-miterlimit="10" d="M290.61,476.19l16.97-30.5   c0,0-65.88-3.81-65.34-2.08s12.84,29.81,14.06,30.41C257.51,474.63,290.61,476.19,290.61,476.19z"/>
	<path fill="none" stroke="#989898" stroke-width="0.5" stroke-miterlimit="10" d="M354.38,443.61l-46.8,2.08l-14.63-31.45   l-33.01-1.43l30.67,63.38l-48.37-32.58l22.03,9.36l-7.97,21.05l51.28-28.33c0,0-42.45,7.28-43.31,7.28s28.68-38.73,28.68-38.73   l-50.71,29.37l17.7-30.8l47.64,32.88"/>
	<path fill="none" stroke="#989898" stroke-width="0.5" stroke-miterlimit="10" d="M264.27,452.97l26.34,23.22l32.58,59.57   c0,0-21.14,27.68-20.1,27.03c1.04-0.65,56.14-27.03,56.14-27.03h-36.04l31.19,52.72l4.85-52.72l-43.32,52.72l7.28-52.72l40.2,39.55   l10.4-12.52l-50.6-27.03"/>
	<path fill="none" stroke="#989898" stroke-width="0.5" stroke-miterlimit="10" d="M359.23,535.75l14.56,27.03l-57.88,25.69   l-12.82-25.69l60.3,12.52l-9.01,13.17h-38.47c0,0-46.44,40.81-46.61,41.24s29.5,27.55,29.5,27.55s61.39-27.55,60.61-27.9   c-0.78-0.35,60.91-21.49,60.91-21.49l-1.65,15.6c0,0-42.02-14.99-41.24-14.38s-61.52-20.62-61.52-20.62l43.49,40.9l3.99-54.07"/>
	<line fill="none" stroke="#989898" stroke-width="0.5" stroke-miterlimit="10" x1="290.61" y1="476.19" x2="292.95" y2="414.24"/>
	<polyline fill="none" stroke="#989898" stroke-width="0.5" stroke-miterlimit="10" points="279.17,397.17 242.24,443.61    173.9,441.79 127.63,408.97  "/>
	<path fill="none" stroke="#989898" stroke-width="0.5" stroke-miterlimit="10" d="M536.67,345.18c0,0-25.43,55.01-25.41,56.12   c0.02,1.11-20.34-39.83-20.34-39.83l-18.54-21.14L536.67,345.18z"/>
	<path fill="none" stroke="#989898" stroke-width="0.5" stroke-miterlimit="10" d="M536.67,345.18l-24.26-37.6l38.12,29.63   l-17.81,63.03c0,0,35.83-19.15,35.83-18.5s-23.74,48.92-23.74,48.92l-44.97,6.7l11.41-36.07l33.55,29.36l25.58,25.58l-1.84-33.08   l-37.52,45.4l-37.69-18.45l39.38-49.86l-41.8-38.77"/>
	<path fill="none" stroke="#989898" stroke-width="0.5" stroke-miterlimit="10" d="M511.55,468.04l-11.7-30.67   c0,0,25.21,13.26,25.99,12.74c0.78-0.52,18.97-19.44,18.97-19.44l-13.78,37.9l-5.2-18.45L511.55,468.04z"/>
	<polyline fill="none" stroke="#989898" stroke-width="0.5" stroke-miterlimit="10" points="520.73,364.94 511.26,401.3    465.8,450.63 525.84,450.11 511.55,468.04 535.53,408.87 525.84,450.11 511.26,401.3 568.56,423.16 532.73,400.24  "/>
	<path fill="none" stroke="#989898" stroke-width="0.5" stroke-miterlimit="10" d="M531.04,468.56l4.49-59.69l-35.68,28.5   l-57.44,4.94l50.95,7.8l6.5-12.74l-34.05,13.26l-23.39-8.32l-63.68,1.3l14.56-30.15l35.09,58.22l37.43-21.05l-42.11-40.03   l18.71,31.71l-49.13-28.85l-8.4-14.21l-13.17-68.71l-34.57-21.57c0,0-30.93,23.65-30.93,24.43c0,0.78,15.34,37.17,15.34,37.17   l15.6-61.6l47.74,90.28l-63.34-28.68l-12.22-19.84l-16.38,63.51l28.59-43.67l38.38-16.72l11.78-23.31l-65.5,2.86l-54.07-8.58   l-20.53,25.91l-35.35-2.25l10.92-55.88l44.97,32.23l-9.9-29.4l-57.16,23.94l11.18,29.11l-59.26-27.29l48.09-1.82l-4.81-48.87   l29.24-1.82l-52.77-24.69l-32.88,48.22l61.21,27.16l67.06,5.46l-55.88,23.65"/>
	<line fill="none" stroke="#989898" stroke-width="0.5" stroke-miterlimit="10" x1="423.69" y1="410.6" x2="378.72" y2="443.61"/>
	<path fill="none" stroke="#989898" stroke-width="0.5" stroke-miterlimit="10" d="M462.94,640.37c0,0-2.69,7.97-3.21,8.19   c-0.52,0.22-34.66,22.22-34.66,22.22s-67.23-14.64-65.85-15.21c1.39-0.56,47.48,3.94,47.48,3.94l11.96-36.04   c0,0,11.61,14.38,13,12.48c1.39-1.91,13.34-57.44,13.34-57.44l-26.34,44.97l41.07,25.08l-28.07-12.61c0,0-47.48-5.55-47.48-4.68   c0,0.87-24.95,24.3-24.95,24.3l-4.85-67.1l23.05,20.62l6.76,22.18l-29.81-42.8l65.93,19.41l-46.53-45.1c0,0,50.77-8.45,51.64-8.27   s-5.11,53.37-5.11,53.37l-36.13,23.39l-24.78-1.91l12.65,41.42c0,0-36.74,27.03-35.7,27.55c1.04,0.52-6.56-8.14-6.66-7.8   c-0.1,0.35,29.53-34.96,29.53-34.96l-22.87,42.76c0,0-45.75,2.43-45.75,3.12c0,0.69,39.09-10.92,39.09-10.92l-21.67-10.53   l-17.42,21.44l-35.74-4.68l-63.94-17.81h39.77c0,0-56.64-8.1-55.49-8.19c1.15-0.09,44.58-14.17,44.58-14.17l-28.85,22.35   l-17.55-15.27l36.13-32.43l-18.58,47.7c0,0,67.19-12.09,67.28-11.65c0.09,0.43,24.35-15.08,24.26-13.86s8.14,48,8.14,48   l-17.16-10.92l-15.25-23.22l-3.34,29.46l27.6-43.32l-13.17-23.74l-11.09,37.6l-38.43-10.7l62.69-3.16l-27.86-4.9l14.69-18.84   l16.46-66.93l-37.08-9.14L242,593.59l27.29,36.13c0,0-34.4-9.1-34.31-8.49s47.48,32.23,47.48,32.23l16.33,3.81"/>
	<polyline fill="none" stroke="#989898" stroke-width="0.5" stroke-miterlimit="10" points="282.46,653.46 329.7,690.54    372.05,670.79 393.19,684.13 336.35,698.34 393.19,675.9 329.7,690.54 393.19,684.13 431.66,635.95 377.42,609.1 359.23,655.58    418.66,623.48 372.05,670.79 384.18,631.28 406.71,659.52 393.19,675.9 359.23,655.58 372.05,670.79  "/>
	<polyline fill="none" stroke="#989898" stroke-width="0.5" stroke-miterlimit="10" points="359.4,629.37 377.42,609.1    363.39,575.3  "/>
	<line fill="none" stroke="#989898" stroke-width="0.5" stroke-miterlimit="10" x1="373.78" y1="562.79" x2="377.42" y2="609.1"/>
</g>
<g id="really_thin_0.5">
	<polyline fill="none" stroke="#989898" stroke-width="0.5" stroke-miterlimit="10" points="330.12,260.79 337.13,308.97    357.49,246.76  "/>
	<path fill="none" stroke="#989898" stroke-width="0.5" stroke-miterlimit="10" d="M319.03,370.83   c2.51-0.26,52.68-40.29,52.68-40.29l-7.28,40.29L306.2,333.4l3.12,17.33"/>
	<path fill="none" stroke="#989898" stroke-width="0.5" stroke-miterlimit="10" d="M359.92,353.85c0,0,0.63-50.51,0.17-51.64   l-22.96,6.76l27.29,61.86l20.45,28.42"/>
	<path fill="none" stroke="#989898" stroke-width="0.5" stroke-miterlimit="10" d="M371.7,330.54"/>
	<line fill="none" stroke="#989898" stroke-width="0.5" stroke-miterlimit="10" x1="321.54" y1="370.57" x2="364.43" y2="370.83"/>
	<path fill="none" stroke="#989898" stroke-width="0.5" stroke-miterlimit="10" d="M459.21,210.89c0.56,0.4,35.18,44.19,35.18,44.19   l16.29,20.97l-10.86-35.72"/>
	<line fill="none" stroke="#989898" stroke-width="0.5" stroke-miterlimit="10" x1="468.05" y1="229.08" x2="494.39" y2="255.07"/>
	<path fill="none" stroke="#989898" stroke-width="0.5" stroke-miterlimit="10" d="M402.9,223.19c0.87-0.78,40.03,4.68,40.03,4.68   l6.41,54.93"/>
	<path fill="none" stroke="#989898" stroke-width="0.5" stroke-miterlimit="10" d="M475.75,308.38c0.9-0.24,55.63-12.95,55.63-12.95   "/>
	<path fill="none" stroke="#989898" stroke-width="0.5" stroke-miterlimit="10" d="M519.94,289.47   c-0.38,0.92,16.29,55.02,16.29,55.02c-0.17-0.26,0.45-46.44,0.45-46.44"/>
	<line fill="none" stroke="#989898" stroke-width="0.5" stroke-miterlimit="10" x1="63.04" y1="556.94" x2="116.97" y2="535.75"/>
	<path fill="none" stroke="#989898" stroke-width="0.5" stroke-miterlimit="10" d="M142.71,589.56c0,0-51.85-23.71-51.34-24.3   s17.94,37.82,17.94,37.82s-37.61-18.13-36.97-18.97c0.64-0.84,45.16,7.93,45.16,7.93l1.04,41.85l-9.23-30.8l25.86,43.67   l38.21-44.58l10.97-48.52l-52.73,19.9l41.76,28.62l47.46-26.43l-30.44-12.95l-17.03,39.38l1.82,68.62l-37.82-30.54l-18.84-6.37   l54.84-31.71l-35.87,4.16"/>
	<polyline fill="none" stroke="#989898" stroke-width="0.5" stroke-miterlimit="10" points="208.82,631.28 173.38,602.16    242,593.59  "/>
	<path fill="none" stroke="#989898" stroke-width="0.5" stroke-miterlimit="10" d="M173.38,602.16l-33.53-39.38   c0,0-61.27,7.06-61.31,7.16"/>
	<line fill="none" stroke="#989898" stroke-width="0.5" stroke-miterlimit="10" x1="285.75" y1="562.79" x2="303.08" y2="562.79"/>
	<polyline fill="none" stroke="#989898" stroke-width="0.5" stroke-miterlimit="10" points="406.71,659.52 425.38,670.59    429.15,653.02  "/>
	<path fill="none" stroke="#989898" stroke-width="0.5" stroke-miterlimit="10" d="M393.19,675.9v8.23l32.19-13.54   c0,0-6.42-47.62-6.4-47.65c0.02-0.03,10.17,30.08,10.17,30.08l-22.44,6.5l-34.66,11.26l53.33-0.2l37.56-30.21l-31.28-4.42   l-2.51,17.07l33.79-12.65"/>
	<path fill="none" stroke="#989898" stroke-width="0.5" stroke-miterlimit="10" d="M452.54,573.57c0,0-4.38-56.14-4.51-56.14   s-6.67,18.97-6.67,18.97l39.51,18.45l-32.84-37.43l-22.53,37.51l15.86-18.54l41.07-18.97c0,0,22.52,43.57,22.61,43.41   c0.09-0.16-24.17-5.98-24.17-5.98l14.73,38.73c0,0,11.22,3.6,11.7,3.21c0.48-0.39,28.72-38.22,28.72-38.22l-30.97,2.26l-9.44,32.75   "/>
	<polyline fill="none" stroke="#989898" stroke-width="0.5" stroke-miterlimit="10" points="462.94,640.37 507.3,596.79    505.05,560.84  "/>
	<path fill="none" stroke="#989898" stroke-width="0.5" stroke-miterlimit="10" d="M480.87,554.86c0,0,49.69-18.58,49.73-18.8   s2.92-24.43,2.92-24.43"/>
	<polyline fill="none" stroke="#989898" stroke-width="0.5" stroke-miterlimit="10" points="551.1,513.97 530.61,536.06    482.43,517.43  "/>
	<polyline fill="none" stroke="#989898" stroke-width="0.5" stroke-miterlimit="10" points="37.96,463.36 36.66,455.56    24.44,456.34 40.95,515.48  "/>
</g>


</svg>
