<?xml version="1.0" encoding="UTF-8"?><svg viewBox="0 100 595.28 595.28" xmlns="http://www.w3.org/2000/svg"><title>the four houses</title><polyline points="67.73 267.46 193.54 267.46 264.2 215.25" fill="none" stroke="#ffd100" stroke-miterlimit="10"/><polyline points="87.12 253.38 189.49 253.38 274.51 187.83" fill="none" stroke="#ffd100" stroke-miterlimit="10"/><polyline points="262.84 125.71 262.84 180.39 233.51 202.66" fill="none" stroke="#ffd100" stroke-miterlimit="10"/><line x1="281.51" x2="281.51" y1="112.14" y2="161.15" fill="none" stroke="#ffd100" stroke-miterlimit="10"/><polyline points="47.11 282.44 248.18 282.44 282.66 309.49" fill="none" stroke="#ffd100" stroke-miterlimit="10"/><path d="m216.7 250.35 12.3 19.87h89.85" fill="none" stroke="#ffd100" stroke-miterlimit="10"/><polyline points="119.99 253.38 161.99 224.54 197.53 224.54" fill="none" stroke="#ffd100" stroke-miterlimit="10"/><path d="m250.49 270.22c1.2 0 42.9-31.72 42.9-31.72h45" fill="none" stroke="#ffd100" stroke-miterlimit="10"/><line x1="289.19" x2="318.89" y1="270.22" y2="292.39" fill="none" stroke="#ffd100" stroke-miterlimit="10"/><polyline points="296.87 100.98 296.87 202.66 318.89 218.02" fill="none" stroke="#ffd100" stroke-miterlimit="10"/><polyline points="296.87 116.29 318.89 132.46 318.89 188.67" fill="none" stroke="#ffd100" stroke-miterlimit="10"/><line x1="334.66" x2="334.66" y1="128.44" y2="225.83" fill="none" stroke="#ffd100" stroke-miterlimit="10"/><path d="m262.84 152.79c0 2-54.66 40.44-54.66 40.44v16.31" fill="none" stroke="#ffd100" stroke-miterlimit="10"/><circle cx="208.17" cy="214.92" r="5.22" fill="none" stroke="#ffd100" stroke-miterlimit="10"/><circle cx="268.08" cy="212.09" r="5.22" fill="none" stroke="#ffd100" stroke-miterlimit="10"/><circle cx="196.44" cy="224.74" r="4.29" fill="#ffd100"/><circle cx="339.59" cy="238.29" r="5.49" fill="#ffd100"/><circle cx="274.51" cy="188.67" r="4.29" fill="#ffd100"/><circle cx="318.89" cy="187.83" r="4.29" fill="#ffd100"/><circle cx="281.51" cy="161.15" r="5.49" fill="#ffd100"/><circle cx="323.89" cy="270.11" r="5.22" fill="none" stroke="#ffd100" stroke-miterlimit="10"/><circle cx="285.89" cy="312.04" r="3.87" fill="none" stroke="#ffd100" stroke-miterlimit="10"/><circle cx="318.89" cy="292.39" r="4.29" fill="#ffd100"/><circle cx="234.05" cy="202.52" r="3.52" fill="#ffd100"/><circle cx="321.73" cy="220.63" r="3.46" fill="none" stroke="#ffd100" stroke-miterlimit="10"/><circle cx="334.66" cy="225.83" r="2.65" fill="#ffd100"/><line x1="264.91" x2="217.4" y1="295.97" y2="330.1" fill="none" stroke="#ffd100" stroke-miterlimit="10"/><line x1="35.23" x2="217.4" y1="302.52" y2="302.52" fill="none" stroke="#ffd100" stroke-miterlimit="10"/><polyline points="56.2 367.06 208.18 367.06 267.35 322.08" fill="none" stroke="#ffd100" stroke-miterlimit="10"/><polyline points="67.73 302.52 80.08 344.57 169.06 344.57" fill="none" stroke="#ffd100" stroke-miterlimit="10"/><polyline points="92.17 344.57 126.31 315.9 196.44 315.9" fill="none" stroke="#ffd100" stroke-miterlimit="10"/><line x1="192.15" x2="217.4" y1="367.06" y2="383.73" fill="none" stroke="#ffd100" stroke-miterlimit="10"/><polyline points="59.57 378.76 128.4 378.76 164.89 403.95" fill="none" stroke="#ffd100" stroke-miterlimit="10"/><polyline points="146.42 391.09 161.63 380.72 184.1 380.72" fill="none" stroke="#ffd100" stroke-miterlimit="10"/><line x1="56.2" x2="197.53" y1="357.92" y2="357.92" fill="none" stroke="#ffd100" stroke-miterlimit="10"/><circle cx="201.44" cy="315.78" r="5.22" fill="none" stroke="#ffd100" stroke-miterlimit="10"/><circle cx="216.4" cy="302.52" r="4.48" fill="#ffd100"/><path d="M82.3,447.39c2.43-.79,51.43-34.91,51.43-34.91h66.43" fill="none" stroke="#ffd100" stroke-miterlimit="10"/><polyline points="111.7 427.72 123.57 449.86 161.77 449.86" fill="none" stroke="#ffd100" stroke-miterlimit="10"/><path d="M144.31,449.86c.67,0,30.08-22.14,30.08-22.14" fill="none" stroke="#ffd100" stroke-miterlimit="10"/><polyline points="109.05 392.58 82.3 392.58 77.98 378.76" fill="none" stroke="#ffd100" stroke-miterlimit="10"/><path d="M100.34,502.91c-.37-1.12,44-35.62,44-35.62" fill="none" stroke="#ffd100" stroke-miterlimit="10"/><line x1="119.41" x2="106.55" y1="486.88" y2="447.33" fill="none" stroke="#ffd100" stroke-miterlimit="10"/><circle cx="169.06" cy="344.57" r="4.48" fill="#ffd100"/><circle cx="222.12" cy="387.86" r="6.43" fill="none" stroke="#ffd100" stroke-miterlimit="10"/><circle cx="222.12" cy="387.86" r="3.6" fill="#ffd100"/><circle cx="208.17" cy="214.92" r="3.59" fill="#ffd100"/><circle cx="268.08" cy="212.09" r="3.18" fill="#ffd100"/><circle cx="198.21" cy="357.92" r="3.4" fill="#ffd100"/><circle cx="271.7" cy="319.52" r="5.22" fill="none" stroke="#ffd100" stroke-miterlimit="10"/><circle cx="271.7" cy="319.52" r="3.62" fill="#ffd100"/><circle cx="216.36" cy="331.16" r="4.48" fill="#ffd100"/><circle cx="188.4" cy="380.94" r="4.45" fill="none" stroke="#ffd100" stroke-miterlimit="10"/><circle cx="164.21" cy="403.95" r="3.93" fill="#ffd100"/><circle cx="108.1" cy="392.37" r="2.97" fill="#ffd100"/><line x1="229.04" x2="282.66" y1="270.22" y2="230.38" fill="none" stroke="#ffd100" stroke-miterlimit="10"/><circle cx="281.24" cy="231.74" r="2.83" fill="#ffd100"/><circle cx="161.77" cy="449.86" r="3.93" fill="#ffd100"/><circle cx="204.71" cy="412.48" r="4.45" fill="none" stroke="#ffd100" stroke-miterlimit="10"/><circle cx="204.71" cy="412.48" r="2.65" fill="#ffd100"/><circle cx="105.12" cy="443.37" r="2.92" fill="#ffd100"/><circle cx="105.12" cy="443.37" r="4.45" fill="none" stroke="#ffd100" stroke-miterlimit="10"/><circle cx="177.09" cy="425.22" r="3.8" fill="none" stroke="#ffd100" stroke-miterlimit="10"/><circle cx="144.31" cy="467.29" r="2.97" fill="#ffd100"/><line x1="542.88" x2="474.96" y1="277.5" y2="277.5" fill="none" stroke="#ffd100" stroke-miterlimit="10"/><polyline points="559.77 289.63 462.95 289.63 441.77 324.76" fill="none" stroke="#ffd100" stroke-miterlimit="10"/><polyline points="555.02 316.45 505.85 316.45 488.1 301.52" fill="none" stroke="#ffd100" stroke-miterlimit="10"/><polyline points="553.52 322.08 461.32 322.08 432.75 372.64 384.23 372.64" fill="none" stroke="#ffd100" stroke-miterlimit="10"/><polyline points="448.61 344.57 420.79 344.57 395.63 322.08" fill="none" stroke="#ffd100" stroke-miterlimit="10"/><line x1="450.93" x2="420.44" y1="310.57" y2="310.57" fill="none" stroke="#ffd100" stroke-miterlimit="10"/><polyline points="418.68 604.85 418.68 429.94 461.32 349.05" fill="none" stroke="#ffd100" stroke-miterlimit="10"/><polyline points="412.18 604.85 412.18 491.5 373.79 464.31" fill="none" stroke="#ffd100" stroke-miterlimit="10"/><polyline points="541.47 360.32 468.07 360.32 435.69 420.42" fill="none" stroke="#ffd100" stroke-miterlimit="10"/><line x1="440" x2="440" y1="603.85" y2="450.72" fill="none" stroke="#ffd100" stroke-miterlimit="10"/><polyline points="440 543.53 485.08 424.22 485.08 380.43" fill="none" stroke="#ffd100" stroke-miterlimit="10"/><line x1="546.21" x2="506.87" y1="342.57" y2="342.57" fill="none" stroke="#ffd100" stroke-miterlimit="10"/><polyline points="532.14 386.86 517.95 386.86 474.96 518.02" fill="none" stroke="#ffd100" stroke-miterlimit="10"/><line x1="440" x2="361.84" y1="389.49" y2="389.49" fill="none" stroke="#ffd100" stroke-miterlimit="10"/><polyline points="432.75 402.39 345.08 402.39 329.1 421.42" fill="none" stroke="#ffd100" stroke-miterlimit="10"/><circle cx="477.24" cy="277.26" r="3.43" fill="#ffd100"/><circle cx="415.57" cy="310.69" r="5.22" fill="none" stroke="#ffd100" stroke-miterlimit="10"/><circle cx="415.57" cy="310.69" r="3.62" fill="#ffd100"/><circle cx="442.01" cy="323.79" r="5.49" fill="#ffd100"/><circle cx="502.08" cy="342.57" r="5.22" fill="none" stroke="#ffd100" stroke-miterlimit="10"/><circle cx="384.23" cy="372.64" r="4.05" fill="#ffd100"/><circle cx="485.71" cy="298.8" r="3.85" fill="none" stroke="#ffd100" stroke-miterlimit="10"/><circle cx="485.08" cy="380.22" r="3.62" fill="none" stroke="#ffd100" stroke-miterlimit="10"/><circle cx="485.08" cy="380.22" r="3.62" fill="#ffd100"/><circle cx="502.08" cy="342.57" r="3.73" fill="#ffd100"/><circle cx="393.82" cy="319.09" r="3.85" fill="none" stroke="#ffd100" stroke-miterlimit="10"/><circle cx="461.71" cy="348.44" r="4" fill="#ffd100"/><circle cx="433.4" cy="425.89" r="5.19" fill="none" stroke="#ffd100" stroke-miterlimit="10"/><circle cx="440" cy="446.06" r="5.22" fill="none" stroke="#ffd100" stroke-miterlimit="10"/><circle cx="440" cy="446.06" r="3.73" fill="#ffd100"/><circle cx="474.96" cy="518.02" r="4.63" fill="none" stroke="#ffd100" stroke-miterlimit="10"/><circle cx="474.96" cy="518.02" r="4.63" fill="#ffd100"/><circle cx="358.1" cy="389.49" r="3.85" fill="none" stroke="#ffd100" stroke-miterlimit="10"/><path d="M354.25,604.85c.07,0,0-148.48,0-148.48l30-43.89" fill="none" stroke="#ffd100" stroke-miterlimit="10"/><line x1="373.79" x2="373.79" y1="604.85" y2="496.69" fill="none" stroke="#ffd100" stroke-miterlimit="10"/><path d="m373.79 589.26c0-1.41 27.13-25.25 27.13-25.25v-47.55" fill="none" stroke="#ffd100" stroke-miterlimit="10"/><line x1="329.1" x2="329.1" y1="604.85" y2="441.84" fill="none" stroke="#ffd100" stroke-miterlimit="10"/><polyline points="329.1 571.74 304.26 557.79 304.26 470.26" fill="none" stroke="#ffd100" stroke-miterlimit="10"/><polyline points="225.72 604.85 225.72 560.78 255.85 523.65" fill="none" stroke="#ffd100" stroke-miterlimit="10"/><circle cx="384.23" cy="411.91" r="4.05" fill="#ffd100"/><circle cx="370.06" cy="461.04" r="5.22" fill="none" stroke="#ffd100" stroke-miterlimit="10"/><circle cx="370.06" cy="461.04" r="3.73" fill="#ffd100"/><circle cx="328.47" cy="422.82" r="5.09" fill="#ffd100"/><line x1="211.88" x2="211.88" y1="603.72" y2="584.56" fill="none" stroke="#ffd100" stroke-miterlimit="10"/><polyline points="291.7 604.85 291.7 516.46 271.7 501.03" fill="none" stroke="#ffd100" stroke-miterlimit="10"/><circle cx="400.92" cy="513.18" r="3.12" fill="none" stroke="#ffd100" stroke-miterlimit="10"/><circle cx="373.79" cy="496.69" r="3.46" fill="#ffd100"/><circle cx="329.09" cy="437.74" r="4.2" fill="none" stroke="#ffd100" stroke-miterlimit="10"/><circle cx="304.47" cy="469.4" r="5.09" fill="#ffd100"/><circle cx="259.21" cy="519.83" r="5.22" fill="none" stroke="#ffd100" stroke-miterlimit="10"/><circle cx="259.21" cy="519.83" r="3.73" fill="#ffd100"/><circle cx="271.7" cy="501.03" r="3.46" fill="#ffd100"/><circle cx="211.88" cy="580.47" r="4.09" fill="none" stroke="#ffd100" stroke-miterlimit="10"/><line x1="244.24" x2="244.24" y1="603.72" y2="550.77" fill="none" stroke="#ffd100" stroke-miterlimit="10"/><path d="M244.24,574c0-.23,35.28-41.32,35.28-41.32V519.83" fill="none" stroke="#ffd100" stroke-miterlimit="10"/><polyline points="291.7 596.3 270.47 589.25 270.47 552.86" fill="none" stroke="#ffd100" stroke-miterlimit="10"/><circle cx="270.47" cy="553.75" r="3.46" fill="#ffd100"/><circle cx="279.52" cy="516.7" r="3.13" fill="none" stroke="#ffd100" stroke-miterlimit="10"/><circle cx="244.24" cy="550.77" r="2.52" fill="#ffd100"/><polygon points="499.9 540.92 594.71 473.45 557.91 362.53" fill="#ffeba1"/><polygon points="229.72 131.29 113.89 131.29 77.15 242.05" fill="#ffeba1"/><polygon points="517.95 242.05 481.21 131.29 365.38 131.29" fill="#ffeba1"/><polygon points="37.18 362.53 0.39 473.45 95.19 540.92" fill="#ffeba1"/><polygon points="210 622.62 297.55 684.91 385.09 622.62" fill="#ffeba1"/><polyline points="180.79 604.85 461.64 604.85 563.05 292.73 495.39 243.56" fill="none" stroke="#ffeba1" stroke-miterlimit="10" stroke-width="4px"/><polyline points="379.69 159.5 297.55 99.82 32.04 292.73 110.54 534.31" fill="none" stroke="#ffeba1" stroke-miterlimit="10" stroke-width="4px"/><path d="M450.84,206.11c14.34,10.94,44.4,11.17,44.4,11.17l-7.17,41.12s-29.43,31-46,37.55c7.55-11.89,18.11-45.1,18.11-45.1L440.91,218Z" fill="#ffd100"/><path d="M428.85,191.62c-14.29-11-22.29-40-22.29-40L368.7,169.2s-22.28,36.44-24.35,54.19c9.53-10.37,38.87-29.18,38.87-29.18L419.9,204.3Z" fill="#ffd100"/><polygon points="437.11 226.43 445.06 262.55 419.4 285.94 408.44 282.17 399.03 291.23 392.61 291.23 389.97 282.17 425.06 252.74 421.29 226.43" fill="#ffd100"/><polygon points="415.47 208.83 378.49 208.38 360.8 238.25 366.72 248.22 359.76 259.27 361.07 265.56 370.47 266.3 392.16 225.97 418.68 224.31" fill="#ffd100"/><polygon points="378.62 317.45 387.71 341.79 376.39 354.99 360.54 354.99 309.99 421.4 309.99 439.88 227.57 540.89 219.06 538.14 212.26 545.38 221.17 548.73 213.78 557.79 204.4 554.86 197.78 563.08 207.23 565.82 198.16 576.93 188.71 573.61 181.04 582.44 191.03 585.67 164.02 615.71 135.29 632.68 142.46 609.67" fill="#ffeba1"/><path d="M374.13,296h21.5L159.44,594.58s-8.3,9.43-17,15.09c-1.51-8.3-3.39-28.3-3.39-28.3l16.6-18.45H168.5l15.84-17.54-1.13-14.19,16.23-17.84h11.69l15.85-18-1.51-14,55.46-66,8.65.75,13.24-15.84-3-12.45,10.56-13.59,11.12-.37,10-14.65-3-8,14.45-15.09,8.57,1.88,9.81-12.83-2.83-10.56Z" fill="#ffd100"/><polygon points="304.26 327.85 276.19 327.85 261.5 347.67 261.5 359.21 186.4 452.81 170.73 455.91 101.72 552.63 92.17 592.81 106.55 578.34" fill="#ffeba1"/><path d="M361.84,283.53l-4.71-21L117.55,558.47s-7.38,10.16-11,19.87c8.43-.35,28.35-2.89,28.35-2.89l14.36-20.24-2.81-12.52,13.64-19.31,14.09-2L188,501.64l-2.57-11.41,14.1-19.41,13.95-1.59,52.26-68.59-2.63-8.28L275.7,376l12.81.21,10.93-13.28L297.37,352l12.1-13,8.46,1.19,11.55-17.4-3.71-8,10.36-12.38,10.93.44Z" fill="#ffd100"/><polygon points="393.56 240.95 408.44 253.65 408.44 262.55 389.22 271.7 381.37 266.3 386.6 242.47" fill="#ffeba1"/><polygon points="477.54 149 480.37 122.6 502.3 117.82 502.3 140.15" fill="#ffeba1"/><rect transform="translate(51.46 446.52) rotate(-54.27)" x="420.43" y="165.48" width="81.8" height="15.15" fill="#ffd100"/><polygon points="449.21 189.36 452.23 220.29 406.57 238.83 418.27 189.36" fill="#ffeba1"/><polygon points="423.24 282.44 445.06 262.55 435.14 260.28 420.44 271.7" fill="#ffeba1"/><polygon points="378.41 208.38 363.35 233.77 373.5 233.05 384.23 217.84" fill="#ffeba1"/><path d="M440.91,217l36.63,20.26S462.64,272.13,442,295a283.67,283.67,0,0,0,18.11-45.1Z" fill="#ffeba1"/><path d="m420.79 205.38-28.32-29.47s-30.6 22.41-48.12 47.28a292.82 292.82 0 0 1 39.88-27.92z" fill="#ffeba1"/><polyline points="108.07 557.21 185.55 456.93 171.78 458.68 105.04 552.52" fill="#ffd100"/></svg>