<?xml version="1.0" encoding="UTF-8"?><svg viewBox="0 0 595.28 740" xmlns="http://www.w3.org/2000/svg"><defs><clipPath id="a"><polygon points="289.07 170.36 516.97 565.1 61.16 565.1" fill="none" stroke="#b6b8dd" stroke-miterlimit="10" stroke-width="4px"/></clipPath></defs><title>pyxis</title><g clip-path="url(#a)" fill="none" stroke="#8b85ca" stroke-miterlimit="10"><line x1="246.85" x2="36.45" y1="363.9" y2="363.9"/><line x1="541.39" x2="288.92" y1="363.9" y2="363.9"/><line x1="141.88" x2="68.48" y1="327.47" y2="327.47"/><line x1="477.71" x2="225.93" y1="327.47" y2="327.47"/><line x1="520.35" x2="477.71" y1="327.47" y2="327.47"/><line x1="415.2" x2="68.48" y1="291.04" y2="291.04"/><line x1="483.15" x2="457.17" y1="291.04" y2="291.04"/><line x1="183.74" x2="68.48" y1="254.62" y2="254.62"/><line x1="483.15" x2="225.92" y1="254.62" y2="254.62"/><line x1="392.33" x2="68.48" y1="218.19" y2="218.19"/><line x1="369.41" x2="68.48" y1="181.76" y2="181.76"/><line x1="260" x2="68.48" y1="145.33" y2="145.33"/><line x1="309.77" x2="-26.6" y1="400.24" y2="400.24"/><line x1="436.18" x2="352.01" y1="400.24" y2="400.24"/><line x1="562.29" x2="478.09" y1="400.24" y2="400.24"/><line x1="78.69" x2="-47.68" y1="436.75" y2="436.75"/><line x1="499.14" x2="120.66" y1="436.75" y2="436.75"/><line x1="141.7" x2="-26.72" y1="473.18" y2="473.31"/><line x1="309.86" x2="183.75" y1="473.18" y2="473.18"/><line x1="394.12" x2="351.88" y1="473.18" y2="473.18"/><line x1="562.24" x2="436.05" y1="473.18" y2="473.18"/><line x1="162.73" x2="68.48" y1="509.61" y2="509.61"/><line x1="499.14" x2="204.79" y1="509.61" y2="509.61"/><line x1="521.17" x2="68.48" y1="545.4" y2="546.04"/><path d="M330.89,582.47c-62.32-.79-124.34.81-185.61,0"/><line x1="456.78" x2="372.94" y1="582.47" y2="582.47"/><line x1="483.15" x2="456.78" y1="582.47" y2="582.47"/><path d="M394,618.89c-61.82-.49-123.3.17-184.23,0"/><line x1="483.15" x2="436.05" y1="618.89" y2="618.89"/><path d="M483.15,655.32c-70.92-.67-140.17.5-210.36,0"/><path d="M483.15,691.75c-46-.29-91-.09-136.09,0"/><line x1="457.06" x2="204.66" y1="655.36" y2="218.18"/><line x1="267.98" x2="204.88" y1="254.62" y2="145.33"/><line x1="394.12" x2="352.01" y1="473.1" y2="400.17"/><line x1="478.25" x2="288.92" y1="545.96" y2="218.03"/><line x1="373.04" x2="304.93" y1="290.89" y2="172.92"/><line x1="436.18" x2="394.06" y1="400.24" y2="327.29"/><line x1="512.27" x2="457.21" y1="532.03" y2="436.68"/><line x1="436.14" x2="336.48" y1="327.32" y2="154.7"/><line x1="543.82" x2="457.17" y1="513.82" y2="363.74"/><line x1="575.36" x2="429.63" y1="495.61" y2="243.19"/><line x1="606.91" x2="520.35" y1="477.39" y2="327.47"/><line x1="183.74" x2="141.61" y1="254.42" y2="181.76"/><line x1="246.92" x2="204.88" y1="363.86" y2="291.05"/><line x1="288.92" x2="246.92" y1="436.7" y2="363.86"/><line x1="393.98" x2="351.96" y1="618.89" y2="546.02"/><line x1="330.89" x2="99.53" y1="582.47" y2="181.76"/><line x1="393.98" x2="351.92" y1="691.75" y2="618.89"/><line x1="141.88" x2="99.72" y1="327.63" y2="254.62"/><line x1="352.01" x2="204.79" y1="691.59" y2="436.6"/><line x1="291.44" x2="78.69" y1="659.53" y2="291.04"/><line x1="120.66" x2="99.68" y1="436.6" y2="400.26"/><line x1="141.7" x2="120.66" y1="473.03" y2="436.6"/><path d="m232.38 630.09c-21.84-40.76-48.06-79.59-69.65-120.64"/><line x1="78.69" x2="21.01" y1="436.75" y2="336.84"/><path d="m55.16 541.71-28.48-49.34-26-45-21.47-37.19-14.91-25.84-6.3-10.93-0.09-0.14"/><line x1="225.91" x2="246.85" y1="400.33" y2="363.9"/><line x1="183.67" x2="162.64" y1="181.76" y2="145.33"/><line x1="99.75" x2="162.73" y1="473.15" y2="582.31"/><line x1="99.47" x2="15.56" y1="546.16" y2="400.24"/><line x1="162.73" x2="131.02" y1="509.45" y2="564.38"/><line x1="204.79" x2="183.75" y1="436.6" y2="473.04"/><line x1="306.81" x2="99.47" y1="187.05" y2="546.16"/><line x1="99.75" x2="68.02" y1="473.15" y2="528.11"/><line x1="204.89" x2="120.74" y1="291.04" y2="436.8"/><line x1="275.36" x2="225.92" y1="168.99" y2="254.62"/><line x1="99.61" x2="67.92" y1="473.06" y2="527.95"/><line x1="99.53" x2="36.38" y1="400.35" y2="509.73"/><line x1="204.69" x2="141.31" y1="218.2" y2="327.99"/><line x1="248.9" x2="225.94" y1="141.64" y2="181.41"/><line x1="212.17" x2="4.83" y1="132.4" y2="491.52"/><line x1="99.72" x2="-26.72" y1="254.62" y2="473.31"/><line x1="180.62" x2="120.57" y1="114.19" y2="218.19"/><line x1="149.07" x2="-58.27" y1="95.98" y2="455.09"/><line x1="373.14" x2="162.73" y1="217.86" y2="582.31"/><line x1="401.45" x2="267.89" y1="241.69" y2="473.03"/><line x1="309.86" x2="225.66" y1="473.18" y2="619.02"/><line x1="352.01" x2="330.87" y1="400.17" y2="436.79"/><line x1="433" x2="372.95" y1="259.9" y2="363.9"/><line x1="464.54" x2="309.86" y1="278.11" y2="546.04"/><line x1="352.26" x2="288.75" y1="545.45" y2="655.45"/><line x1="457.17" x2="393.98" y1="363.74" y2="473.18"/><line x1="351.92" x2="320.3" y1="618.89" y2="673.66"/><line x1="457.08" x2="372.95" y1="436.75" y2="582.47"/><line x1="527.64" x2="478.14" y1="314.54" y2="400.27"/><line x1="559.19" x2="351.85" y1="332.76" y2="691.87"/><line x1="415.02" x2="383.4" y1="655.32" y2="710.09"/><line x1="478.11" x2="436.05" y1="546.04" y2="618.89"/><line x1="590.73" x2="478.11" y1="350.97" y2="546.04"/><line x1="622.28" x2="414.94" y1="369.18" y2="728.3"/></g><polygon points="289.07 170.36 516.97 565.1 61.16 565.1" fill="none" stroke="#b6b8dd" stroke-miterlimit="10" stroke-width="4px"/><polyline points="495.97 501.75 540.64 579.12 454.82 579.12" fill="none" stroke="#b6b8dd" stroke-miterlimit="10" stroke-width="4px"/><polyline points="238.07 232.74 289.37 143.9 338.38 228.8" fill="none" stroke="#b6b8dd" stroke-miterlimit="10" stroke-width="4px"/><polyline points="131.55 579.12 38.09 579.12 79.08 508.12" fill="none" stroke="#b6b8dd" stroke-miterlimit="10" stroke-width="4px"/><polygon points="196.45 304.84 61.46 304.84 128.95 421.74" fill="#b6b8dd"/><polygon points="359.01 580.13 224.03 580.13 291.52 697.03" fill="#b6b8dd"/><polygon points="449.78 421.74 517.27 304.84 382.28 304.84" fill="#b6b8dd"/><path d="M304.3,311.28s-181.52,324.39-204.73,359C90.85,679.45,79,686.39,79,686.39l2.87,11.17,14.73,9.55L108.88,698a78.89,78.89,0,0,1,4-18.6C122.05,663,334,282.48,334,282.48Z" fill="#8b85ca"/><path d="M470.05,124.28c17.65-61.68-17.26-108.5-17.26-108.5a159.85,159.85,0,0,1-6.6,52.93l-.43,1.44,8.63,8.12-2.2,7.52-9.49-7,0,.07c-.89,2.22-1.85,4.42-2.9,6.58l9.57,8.23L445,100.43l-8.87-8.15v0a77,77,0,0,1-4.95,7.32l-.08.13,8.49,7.06-5,7.46-8.9-8.28,0,.05c-1.32,1.35-2.71,2.63-4.16,3.86l-.07.07,7.59,9-6.91,6.22L415,114.67l-.86.53a54.28,54.28,0,0,1-19.17,7.49c4.82,14-13.79,55.73-36.7,34.22-2.85,19.3.31,35.86-25.19,65.85,7.76,2,9.95,16.12-3.88,36.16l24.88.42C378.68,206.44,452.4,186,470.05,124.28Z" fill="#b6b8dd"/><polygon points="301.7 307.8 304 339.54 332.67 295.34 323.67 260.24" fill="#b6b8dd"/><circle cx="82.6" cy="713.7" r="16.39" fill="none" stroke="#b6b8dd" stroke-miterlimit="10" stroke-width="11px"/><path d="m337.5 268.79c15.62 50.07 73.86 71.91 102.38 116.21s31.64 43.52 32.84 73.53c-3.45-7.89-6.51-9.71-6.51-9.71s5.2 15.82-6.88 42.1c0.66-10-0.56-12.95-0.56-12.95s-4.49 24.93-23 30.83c7.61-8.68 7.72-15.29 7.72-15.29h-4.79l2.91-6.27 2-23.52s-3.47 5-6 8c4.92-11-4.37-56.16-43.61-96.19-36-33.63-68.24-86.82-62.1-98.78s5.6-7.96 5.6-7.96z" fill="#b6b8dd"/><path d="m332.38 287.2s-4.67 27.66 8 74.23c5.81 21.37 15.44 54.78 18.6 94 3.72 46.33-1.57 100.8-32.78 153.23l9.43-3.87 1.86 3.32 4.48-1.48 2.92 8.69 9.62-19.32 2.5-2.72 1.21-12.6 3.63-2.59 3.59 17.15 2.47-1 1.29 7s14.14-17.66 17.23-36.33a28.58 28.58 0 0 1 3.65 7.07s-1.61-78.6-33.31-119.14-42.5-128.16-35.38-158 10.99-7.64 10.99-7.64z" fill="#b6b8dd"/><polygon points="308.98 331.86 354.51 261.67 348.49 242.05 315.9 255.97" fill="#8b85ca"/><path d="m334.58 259.77-5.69-0.1c13.84-20 11.65-34.14 3.89-36.16 25.5-30 22.33-46.55 25.19-65.85 22.91 21.51 41.51-20.21 36.69-34.21a54.53 54.53 0 0 0 19.18-7.5l0.86-0.52 7.09 10.49 6.9-6.22-7.59-9 0.07-0.06c1.46-1.23 2.84-2.52 4.16-3.87h0.05l8.9 8.27 5-7.45-8.49-7.07 0.09-0.12a78.32 78.32 0 0 0 4.94-7.33l8.87 8.14 4.38-6.74-9.57-8.24c1-2.16 2-4.36 2.89-6.58v-0.06l9.49 7 2.2-7.52-8.58-8.17 0.43-1.44a159.8 159.8 0 0 0 6.6-52.92s12.47 16.66 18.7 43.2c0 0-10.73 43.69-36.62 72.92s-42.06 33.24-58.61 51.5-41.42 75.61-41.42 75.61z" fill="#8b85ca"/><g fill="#8b85ca" opacity=".8"><path d="M366.59,226.68a10.7,10.7,0,0,0-.78-2.19,24.79,24.79,0,0,1-.82-3.42c-.15-.6-.33-1.14-.52-1.71s-.24-1.23-.41-1.87c-.09-.33-.16-.6-.29-1s-.35-1-.54-1.49c-.05-.22-.17-.8-.54-.84-.28-1-.5-1.93-.76-2.8a20.13,20.13,0,0,0,2.84.11c.83,0,1.76.31,2.5.3,1-.07,1.77.31,2.65.3.13-.05.39-.21.49-.18,1.17.38,2.28-.11,3.41-.28a7,7,0,0,1,1.2-.08c.05-.14.15-.12.27-.16a7.54,7.54,0,0,1,2.23.64c.08.1-3.5,0-3.44.21s2.32.07,2.52.13c-8.45,1.37-4.41,1-1.83.51.39,0,1-.18,1.74-.17-.46.11-1.42.61-1.64.63-1,.2-.87.41-2,.34a27.24,27.24,0,0,0-3.42.39,4.39,4.39,0,0,1,2.06-.69c-1.34-.35-1.56.64-3,.51a1.6,1.6,0,0,0-.45.07l-.49-.13a17.92,17.92,0,0,1-1.89,0s.28.17.35.2a1.1,1.1,0,0,0,.71.12,1.54,1.54,0,0,1,.63-.06c.18.06.48-.18.69-.17a4.88,4.88,0,0,1,1.2.28,5.92,5.92,0,0,1-1.28.12h-.88c-.06,0-.07.19-.05.28l.29,0c1.33,0,3.24-.7,4.22-.21l.12,0a.09.09,0,0,0,.06,0,1.26,1.26,0,0,1,.63.15l-.54-.06a7,7,0,0,1-2.24.27l-1.17,0h-.58l-.29,0a.76.76,0,0,0-.22,0c0,.08-.22-.21-.28-.13s-.18.1-.53,0l-.12,0c-.14.12-.21.39-.22.86a3.63,3.63,0,0,0,.08.58l.11.68.22,1.36c.29,1.81.53,3.63.7,5.46l.1.22.05-.13V224a3.18,3.18,0,0,1,.27,1.34c-.05.21-.12-.3-.29-.39l0,.21-.15,0c.06.06,0,.13,0,.2-.35-.92-.73-1.84-1.07-2.77-.15.17,0,.44,0,.58a2.85,2.85,0,0,1,.37.89,15.4,15.4,0,0,1,.51,2.5,2.59,2.59,0,0,1,0,.48C367,227.26,366.64,227,366.59,226.68Zm-1.3-12.11c-.05.14-.13.29-.19.5l0,.23a.8.8,0,0,0,.12.31c0,.43.12,1,.19,1.55a6.2,6.2,0,0,0,0-1.71c0,.15.08.3.12.47a6,6,0,0,1,.12.61c.06.4.1.81.12,1.21.05.82,0,1.63.1,2.45.11.47.23.95.37,1.42a8.88,8.88,0,0,0,.41.94c-.3-1.72-.5-3.47-.72-5.21-.35-2.06-.18-2.73-.05-3.09.5.14.82.24,1.07.3a6.08,6.08,0,0,0-1.53-.64A1.78,1.78,0,0,0,365.29,214.57Zm-.39-.46c-.08-.27-.17-.53-.27-.81l.36,0a13,13,0,0,0,1.7.09,4.21,4.21,0,0,0,.78-.08,3.44,3.44,0,0,0,.84-.24c-1.44.12-2.27.24-3.32.23.86.08.52,0-.41-.06l.23.67A1,1,0,0,1,364.9,214.11Z"/><path d="M367.25,221.41v2a4.73,4.73,0,0,0,.32-.89,13.55,13.55,0,0,0-.21-2.46,24.42,24.42,0,0,0-.45-3.51l-.18-.87a1.15,1.15,0,0,1-.05-.2v-.18l0-.33s.05,0,0-.1c-.18.17-.4.21,0,2.09A36,36,0,0,1,367.25,221.41Z"/><path d="m367.33 215.23a1.87 1.87 0 0 1 0.3 0h0.64a3 3 0 0 0-0.64-0.18h-0.3a0.79 0.79 0 0 1-0.2 0c0.15 0.04 0.2 0.15 0.2 0.18z"/><path d="M366.7,214.86h.08a1.68,1.68,0,0,0,.31.11,3.15,3.15,0,0,0-.73-.41h-.09A4.26,4.26,0,0,1,366.7,214.86Z"/></g><g fill="#8b85ca" opacity=".8"><path d="M359.21,217.82a10.77,10.77,0,0,0,2.36-.12,27.57,27.57,0,0,1,3.57.22c.63,0,1.21,0,1.82,0s1.27.14,1.94.16c.34,0,.67,0,1,0h.54c.08,0,.35.1.1-.22a6.72,6.72,0,0,0,1.16.21,2,2,0,0,0-.38-.85c-.16-.25.06-.46-.18-.9-.48-.77-.52-1.71-.92-2.49-.1-.09-.37-.26-.39-.36-.18-1.24-1.13-2-1.8-3a7.6,7.6,0,0,1-.61-1.06c-.15,0-.17-.08-.27-.17a8,8,0,0,1-.44-2.32c0-.12,1.63,3.17,1.75,3s-1-2.15-1-2.35c5.07,7.07,2.93,3.55,1.3,1.44-.14-.39-.62-.81-1-1.52.32.38,1.19,1,1.31,1.22.65.84.77.61,1.24,1.69a28.15,28.15,0,0,0,1.9,2.94c-.41-.29-1.35-1-1.55-1.57.29,1.38,1.28,1.14,1.8,2.48a1.68,1.68,0,0,0,.27.38l.1.5.19.4.25.51.56,1.08a22.44,22.44,0,0,1,1,2.23c-.07-.14.12-.12.09-.25-.24-1.24-1.33-2.78-1.76-3.92,0-.2-.38-.36-.47-.55a4.42,4.42,0,0,1-.29-1.22,6.09,6.09,0,0,1,.68,1.11l.69,1.45a6.23,6.23,0,0,0,.67.79l-.42-1-.35-.79c-.66-1.26-2.11-2.65-2.13-3.77l-.09-.09a.08.08,0,0,0,0-.07,1.44,1.44,0,0,1-.15-.64l.19.51c1.08,1.09,1.5,2.7,2.33,4a1.16,1.16,0,0,1,.14.31c.07.18.13.38.19.58a5,5,0,0,0,.4,1,23.15,23.15,0,0,1,1.76,3.9q-.67,0-1.35,0c-1.78,0-3.37-.09-4.76-.17l-2.79-.36c-1.85-.25-3.69-.55-5.52-.92l-.25,0,.12.09-.24-.08a3.42,3.42,0,0,1-1.38-.13c-.19-.11.32,0,.45-.17l-.2,0,0-.15c-.08,0-.13-.05-.19-.1,1-.06,2-.16,3-.21-.13-.2-.43-.14-.58-.16a3,3,0,0,1-1,.09,15.87,15.87,0,0,1-2.58-.24,3.61,3.61,0,0,1-.46-.17C358.53,218,358.9,217.78,359.21,217.82ZM372.54,220a10.76,10.76,0,0,1-1.26-.26l-.36,0a1.4,1.4,0,0,0-.45,0c-.61-.08-1.1-.18-1.65-.27a5.79,5.79,0,0,0,.85.34,3.53,3.53,0,0,0,1.05.17,8.1,8.1,0,0,1-1.37-.06c-.41-.06-.82-.14-1.22-.24-.81-.19-1.6-.44-2.42-.61-.49,0-1-.06-1.48-.06a8.71,8.71,0,0,0-1,.11c1.76.22,3.5.53,5.25.82l1.32.21a13.41,13.41,0,0,0,1.65.17c1.3.09,2.79.15,4.39.17-.37-1.13-.85-2.41-1.4-3.76.37,1.36.69,2.49.92,3.47C374.33,220.17,373.4,220.11,372.54,220Zm.46-.24c.5,0,1,0,1.47-.05l-.27-.61c-.33-.83-.72-1.75-1.13-2.57a4.8,4.8,0,0,0-1.19-1.69,39.71,39.71,0,0,1,2.32,4.26c-.5-1.23-.33-.73.22.57l-1.14.06A.78.78,0,0,1,373,219.77Z"/><path d="M364.14,220l-1.94-.57a5.52,5.52,0,0,0,.78.56,14.61,14.61,0,0,0,2.45.51,25.06,25.06,0,0,0,3.55.6l.9.07.49,0h.79c1.07,0,2.19,0,3.33-.08a4.47,4.47,0,0,0,1.07-.08l-4.24,0-.95,0-.6-.06-1.13-.12A37.56,37.56,0,0,1,364.14,220Z"/><path d="M374.41,215.16a8.71,8.71,0,0,1-.66-1.21,2.79,2.79,0,0,0,.12.67l.11.33.07.16.08.22c.49,1,1,2,1.44,3.06A30.76,30.76,0,0,0,374.41,215.16Z"/><path d="M375.56,221h1.09c-.29-.8-.67-1.7-1.08-2.62.26.87.45,1.64.64,2.36l-.61,0C375.83,220.87,375.76,221,375.56,221Z"/></g><g fill="#8b85ca" opacity=".8"><path d="M378.25,203.12a6.36,6.36,0,0,0,1.09-1.38,14.81,14.81,0,0,1,1.94-1.83,10.51,10.51,0,0,0,.9-1,11.68,11.68,0,0,0,2.09-2.12c.1-.07.37-.28.08-.45a8,8,0,0,0,2-2.19c.21-.35.69-.52.9-.87.31-.6,1-.92,1.33-1.47,0-.1,0-.36.05-.41.81-.51.87-1.49,1.2-2.3a3.83,3.83,0,0,1,.44-.8c-.1-.11,0-.16,0-.26a4.84,4.84,0,0,1,1.46-1c.11,0-1.43,2.22-1.27,2.29s1-1.42,1.16-1.52c-2.41,6.1-1,3.37-.34,1.45.2-.22.25-.72.58-1.2-.1.36-.09,1.24-.17,1.39-.26.76,0,.8-.57,1.48a17.47,17.47,0,0,0-1.11,2.38c0-.41,0-1.35.3-1.69-.85.64-.13,1.35-.83,2.15a.91.91,0,0,0-.13.33l-.31.23c-.54.69-.81,1.45-1.4,2.08,0-.06.2,0,.26-.05.68-.42.77-1.14,1.3-1.72.13-.1.05-.42.15-.54a2.71,2.71,0,0,1,.74-.6,7.78,7.78,0,0,1-1,1.7,1.15,1.15,0,0,0,0,.49c.2-.23.38-.47.56-.71.57-.9.79-2.45,1.6-2.8a.56.56,0,0,0,0-.1h0a.74.74,0,0,1,.39-.32l-.27.31c-.21,1.17-1.16,2-1.69,3-.09.25-.57.43-.66.68a4.53,4.53,0,0,1-1.47,1.76,69.22,69.22,0,0,1-6.76,5.11,1.3,1.3,0,0,1-.1.15h.13l-.18.08a1.86,1.86,0,0,1-.79.67c-.18,0,.13-.19.1-.35l-.13.09-.1-.11c0,.07-.1,0-.17,0,.45-.59.87-1.21,1.34-1.8-.21-.05-.32.15-.41.22a1.57,1.57,0,0,1-.41.59c-.35.53-1,.84-1.47,1.27a2.39,2.39,0,0,1-.37.15C378.07,203.63,378.06,203.26,378.25,203.12Zm8.09-5.63a6.54,6.54,0,0,1-.66.28l-.17.15a.53.53,0,0,0-.17.24l-1,.72a3,3,0,0,0,1.3-.66,11.91,11.91,0,0,1-3.16,2.12,9.57,9.57,0,0,0-.78.78,4.48,4.48,0,0,0-.43.64c2.59-2.06,5.6-3.72,7.75-6.19C388.08,196.19,387.28,196.87,386.34,197.49Zm.06-.43a9.84,9.84,0,0,0,.78-1,5.38,5.38,0,0,0,1.55-2.68,19.73,19.73,0,0,1-1.55,2.68c.66-.77.15-.24-.69.82C386.49,196.94,386.45,197,386.4,197.06Z"/><path d="M382.37,201.78c-.48.22-.93.47-1.41.7a4.39,4.39,0,0,0,.82-.07,7.89,7.89,0,0,0,1.61-1,16.27,16.27,0,0,0,4.16-3.49.82.82,0,0,0,.26-.35A31.86,31.86,0,0,1,382.37,201.78Z"/><path d="M389.91,195.46a4.26,4.26,0,0,1,.51-.85,2.4,2.4,0,0,0-.78.67c-.24.38-.49.75-.75,1.1A5.55,5.55,0,0,0,389.91,195.46Z"/><path d="M387.81,197.54l.21-.19a7.34,7.34,0,0,0,.87-1c-.4.29-.81.55-1.2.84A.28.28,0,0,1,387.81,197.54Z"/></g><g fill="#8b85ca" opacity=".8"><path d="M396.94,193a.73.73,0,0,0-.6.06c-.29.1-.63-.23-1-.29a1.29,1.29,0,0,0-.47,0,1.71,1.71,0,0,0-1.06-.21c-.05,0-.17-.1-.1.23-.38-.15-.75-.33-1-.1-.13.06-.32-.19-.45-.13s-.48-.15-.69-.06c0,.05-.05.24-.08.22-.37-.28-.54.3-.78.57-.1.08-.17.17-.28.18s0,.13,0,.18a1.26,1.26,0,0,1-.67-.44c0-.09.84-.34.8-.5s-.59.13-.64.1c1.78-2.08.87-1.4.34-.67-.11,0-.2.27-.39.32.09-.15.22-.71.27-.75.21-.29.14-.49.43-.52s.57-.54.76-.68c-.06.28-.2.89-.37.86.4.23.26-.77.63-.76a.22.22,0,0,0,.09-.1l.15.08c.29,0,.5-.32.81-.28,0,0-.07-.14-.1-.16-.3-.25-.45.15-.72.12-.06,0-.08.23-.14.24s-.23-.11-.35-.18c.16-.25.41-.24.62-.32,0,0,.06-.21.08-.3a1.63,1.63,0,0,0-.31,0c-.33.14-.65,1-1,.58l0,.05,0,0c-.05,0-.11,0-.19-.09h.15c.25-.59.71-.39,1.06-.66.07-.1.26.15.33.05a.62.62,0,0,1,.79,0,16.16,16.16,0,0,1,3.16,1.82l.06,0,0-.09.08.08c.11,0,.23,0,.38.17s-.08,0-.09.15l.06,0,0,.15s0,.05.06.1c-.25,0-.49.11-.75.14.07.19.14.15.18.17s.15-.12.24-.07.49.24.71.3a1.43,1.43,0,0,1,.15.18C397.08,192.82,397,193.06,396.94,193Zm-3.71-2.48c.09.08.18.2.28.31l.08,0a.08.08,0,0,0,.1,0l.46.3a1.36,1.36,0,0,0-.55-.55c.44,0,.94.63,1.43,1a1.44,1.44,0,0,0,.4.09.75.75,0,0,0,.25-.09c-1.23-.63-2.54-1.83-3.68-1.87C392.42,190.05,392.81,190.22,393.23,190.53Zm-.09.22a1.46,1.46,0,0,0-.42,0c-.39,0-.81,0-1,.55a2.66,2.66,0,0,1,1-.55c-.35,0-.09,0,.37,0C393.09,190.76,393.12,190.76,393.14,190.75Z"/><path d="M395.29,190.77l.6.61q-.15-.31-.3-.57c-.26-.35-.48-.35-.72-.56a3.2,3.2,0,0,0-2-.88.09.09,0,0,0-.14,0A7.2,7.2,0,0,1,395.29,190.77Z"/><path d="M391.67,189.14a.55.55,0,0,1-.31.16.43.43,0,0,0,.37.15,3.66,3.66,0,0,1,.44-.13A.88.88,0,0,0,391.67,189.14Z"/><path d="M392.73,189.39l-.11,0a.87.87,0,0,0-.45,0c.18.12.37.26.55.36A.43.43,0,0,1,392.73,189.39Z"/></g><g fill="#8b85ca" opacity=".8"><path d="M400.44,195.68a2.73,2.73,0,0,0-1.15.19c-.57.18-1.17-.1-1.81-.08a25.66,25.66,0,0,1-2.9.08c-.08,0-.31-.07-.22.26a3.56,3.56,0,0,0-2,.12c-.25.09-.59-.12-.85,0s-.9,0-1.31.09c-.05.06-.14.26-.19.25-.66-.21-1.08.43-1.58.76a2,2,0,0,1-.57.25c0,.15,0,.13-.08.2a2.55,2.55,0,0,1-1.23-.31c-.06-.08,1.68-.54,1.61-.7a10.89,10.89,0,0,0-1.24.25c3.75-2.56,1.89-1.65.76-.77-.2,0-.42.32-.8.42.2-.18.54-.8.65-.85.44-.34.32-.53.9-.63a7.76,7.76,0,0,0,1.55-.87c-.15.3-.51,1-.83,1,.73.15.6-.85,1.31-.92a.51.51,0,0,0,.21-.14l.26.06a13.26,13.26,0,0,1,1.6-.47s-.11-.14-.16-.15c-.55-.18-.88.26-1.41.29-.11,0-.19.25-.29.27s-.43-.06-.65-.1a3.41,3.41,0,0,1,1.23-.47c.09,0,.16-.23.2-.33a4.28,4.28,0,0,0-.59.1c-.67.22-1.41,1.15-2,.82l-.05.06,0,0a.37.37,0,0,1-.34-.05l.27,0c.58-.67,1.43-.57,2.14-.93.15-.11.49.1.64,0a2.09,2.09,0,0,1,1.52-.19,36.49,36.49,0,0,1,5.77,1.18l.12,0-.07-.09.13.07a1,1,0,0,1,.71.08c.11.1-.16,0-.2.18l.11,0v.15s.08,0,.11.09c-.48.1-1,.23-1.45.32.09.18.23.12.31.13a.71.71,0,0,1,.46-.12c.41-.13.91.13,1.33.15l.26.15C400.74,195.45,400.6,195.71,400.44,195.68Zm-6.73-1.75a2.83,2.83,0,0,1,.48.26h.15a.22.22,0,0,0,.19,0l.85.21a1.86,1.86,0,0,0-1-.45,6.29,6.29,0,0,1,2.59.74,6.26,6.26,0,0,0,.75,0,2.54,2.54,0,0,0,.49-.15c-2.25-.38-4.59-1.34-6.76-1.13C392.23,193.61,392.94,193.7,393.71,193.93Zm-.2.25a5.53,5.53,0,0,0-.83.13,2.55,2.55,0,0,0-1.92.78,10.44,10.44,0,0,1,1.92-.78c-.67.08-.17.07.71-.09A.24.24,0,0,1,393.51,194.18Z"/><path d="M397.62,193.72c.35.18.7.32,1.06.5a4.92,4.92,0,0,0-.48-.52,4.54,4.54,0,0,0-1.31-.42,8.1,8.1,0,0,0-3.69-.48.36.36,0,0,0-.29.06A15.91,15.91,0,0,1,397.62,193.72Z"/><path d="M390.92,192.83a1.9,1.9,0,0,1-.62.24,1.15,1.15,0,0,0,.7.07c.28-.08.57-.17.85-.23A2.67,2.67,0,0,0,390.92,192.83Z"/><path d="M392.91,192.86h-.19a2.84,2.84,0,0,0-.87.06c.34.08.67.19,1,.26A.32.32,0,0,1,392.91,192.86Z"/></g><g fill="#8b85ca" opacity=".8"><path d="M412.76,183.77a14.26,14.26,0,0,0-.49-2.63,34.35,34.35,0,0,1-.35-4c-.07-.71-.18-1.35-.29-2s-.07-1.44-.16-2.19c0-.38-.08-.76-.14-1.14l-.06-.38,0-.26c0-.08,0-.4-.23-.09a10,10,0,0,0,0-1.26,2.51,2.51,0,0,0-.88.64,1,1,0,0,1-.4.17,1.21,1.21,0,0,0-.25.08,1.9,1.9,0,0,0-.38.25c-.74.69-1.75,1-2.52,1.62-.08.13-.21.45-.32.5-1.29.53-2,1.71-2.89,2.65a8.07,8.07,0,0,1-1,.92c0,.15-.05.2-.13.32a10.34,10.34,0,0,1-2.42,1.1c-.13,0,3.13-2.54,3-2.63s-2.14,1.61-2.35,1.71c6.74-7.11,3.32-4,1.33-1.72-.39.25-.76.85-1.47,1.39.35-.42.9-1.49,1.08-1.66.8-.89.53-1,1.62-1.73a35.42,35.42,0,0,0,2.83-2.75,5.53,5.53,0,0,1-1.42,2c1.43-.69,1-1.62,2.35-2.52a2.21,2.21,0,0,0,.36-.38l.52-.25.4-.29.43-.35,1.06-.86a27,27,0,0,1,2.22-1.68c-.13.11-.16-.09-.29,0a10.09,10.09,0,0,0-2,1.38c-.63.52-1.4,1.18-1.8,1.43-.21.1-.32.49-.52.63a5.54,5.54,0,0,1-1.26.64,8.7,8.7,0,0,1,1.08-1l1.33-1a6.67,6.67,0,0,0,.71-.88l-1.63,1.18c-1.25,1-2.49,2.87-3.69,3.2l-.08.13a.12.12,0,0,0-.08,0,1.65,1.65,0,0,1-.66.34l.52-.34c1-1.4,2.64-2.28,3.94-3.49.12-.18,1.31-.71,1.81-1.18a30.78,30.78,0,0,1,4-2.94l.17,1.35c.24,2,.44,3.8.57,5.32l.09,3.15c0,2.1,0,4.2-.05,6.29l.07.27.07-.14,0,.28a4.3,4.3,0,0,1,.09,1.56c-.08.23-.08-.36-.24-.49v.24l-.15,0c0,.08,0,.15-.07.23l-.69-3.35c-.17.17-.07.49-.06.66a3.83,3.83,0,0,1,.24,1.07,20.52,20.52,0,0,1,.17,2.92,3.41,3.41,0,0,1-.1.54C413.08,184.5,412.76,184.12,412.76,183.77Zm.07-15.16a12.92,12.92,0,0,1-.07,1.43l0,.4a1.5,1.5,0,0,0,.11.5v1.88a8.43,8.43,0,0,0,.2-1,3.85,3.85,0,0,0,0-1.18,9.48,9.48,0,0,1,.16,1.53c0,.47,0,.93,0,1.39-.07.93-.18,1.84-.23,2.78,0,.55.09,1.1.18,1.67a10.52,10.52,0,0,0,.27,1.14c-.06-2,0-4,0-5.93v-1.49c0-.26,0-.46,0-.77l-.07-1c-.11-1.44-.29-3.09-.52-4.86-1.18.71-2.52,1.58-3.92,2.55,1.46-.79,2.66-1.46,3.7-2C412.71,166.68,412.79,167.68,412.83,168.61Zm-.31-.5c-.08-.52-.17-1-.27-1.53l-.69.5c-.83.57-1.76,1.22-2.57,1.87l-.56.46-.4.4a3.9,3.9,0,0,0-.61.79c.58-.54,1.05-1,1.82-1.64s1.51-1.26,2.32-1.88c-1.26.87-.7.52.66-.44l.22,1.17A1,1,0,0,1,412.52,168.11Z"/><path d="M414.13,178l-.27,2.23a5,5,0,0,0,.44-.93,17.45,17.45,0,0,0,.12-2.8,32.18,32.18,0,0,0,0-4.05l-.07-1-.05-.51-.13-.88c-.17-1.19-.38-2.45-.61-3.72a4.78,4.78,0,0,0-.24-1.17c.21,1.59.42,3.16.63,4.73l.12,1.06,0,.65.06,1.28A46.38,46.38,0,0,1,414.13,178Z"/><path d="M407.29,168a11.48,11.48,0,0,1-1.14,1,5.37,5.37,0,0,0,1.35-.73l1.42-1.1,1.53-1.14c-.5.28-1,.6-1.59.95l-.84.55Z"/><path d="m413.35 165.14-0.11-0.84v-0.22c-0.85 0.54-1.79 1.2-2.75 1.91 0.94-0.54 1.78-1 2.55-1.39l0.06 0.51c0.07-0.27 0.17-0.19 0.25 0.03z"/></g><g fill="#8b85ca" opacity=".8"><path d="M409.06,169.26a13.38,13.38,0,0,0,2.18,1.46,35.12,35.12,0,0,1,3.07,2.53,20,20,0,0,0,1.63,1.2c.51.47,1.06,1,1.64,1.41.29.23.59.46.9.68l.65.44.75.5c.19.16.72.61,1,.41l2.19,1.72a27.58,27.58,0,0,0-3.13,2.27,7.85,7.85,0,0,1-1.2.76,4,4,0,0,0-.82.48c-.74.69-1.73,1-2.49,1.6-.08.13-.21.44-.31.49-1.28.52-2,1.69-2.85,2.62a7.91,7.91,0,0,1-1,.91c.06.14,0,.19-.13.31a10,10,0,0,1-2.38,1.08c-.13,0,3.08-2.5,2.92-2.59s-2.11,1.58-2.32,1.68c6.63-7,3.26-3.92,1.3-1.7-.38.25-.74.83-1.43,1.37.34-.42.87-1.47,1.05-1.64.79-.88.52-.95,1.59-1.71a34.24,34.24,0,0,0,2.78-2.71,5.34,5.34,0,0,1-1.39,2c1.41-.67,1-1.6,2.31-2.49a2.12,2.12,0,0,0,.36-.37l.51-.24a10.12,10.12,0,0,0,1.24-1,3.78,3.78,0,0,1,.8-.63s-.31,0-.38.05c-.82.24-.41.39-1.67,1.22-.2.1-.31.49-.5.63a5.6,5.6,0,0,1-1.25.62,17.67,17.67,0,0,1,2.25-1.91c.06,0,.18-.2.14-.25a.71.71,0,0,0,0-.17l-.08,0-.26.18-.54.41c-1.23,1-2.45,2.83-3.63,3.16l-.08.12a.11.11,0,0,0-.08,0,1.52,1.52,0,0,1-.66.33l.52-.33c1-1.38,2.6-2.25,3.87-3.44.25-.28,1-.52.92-.53.07-.23.16-.25.65-.41l0-.07c0-.19-.11-.47-.47-.91L415,176.69c-1.5-1.43-3-2.88-4.38-4.38l-.24-.14.05.15-.17-.23a4,4,0,0,1-1.15-1c-.11-.21.31.2.51.18l-.17-.17.12-.1c-.09,0-.09-.12-.11-.2l2.83,1.82c0-.23-.3-.39-.42-.5a3.56,3.56,0,0,1-.92-.57,19.68,19.68,0,0,1-2.17-1.9c-.11-.14-.21-.29-.31-.44S408.81,169,409.06,169.26Zm9.58,9.89a5.7,5.7,0,0,0-.22-.56l-.2-.19a.92.92,0,0,0-.32-.2l-1.26-1.27a7.66,7.66,0,0,0,.56.84,6.77,6.77,0,0,0,.66.71,10.63,10.63,0,0,1-1-.84c-.34-.32-.65-.65-1-1-.61-.69-1.17-1.41-1.79-2.09-.41-.35-.84-.7-1.29-1a11.37,11.37,0,0,0-1-.59c1.4,1.29,2.74,2.66,4.09,4l1,1,.52.5.3.36a4.3,4.3,0,0,1,.6,1l-1.26.54a5.7,5.7,0,0,0,1.86-.56A3,3,0,0,0,418.64,179.15Zm.63.16c.18.15.37.28.56.41l-.57.42a15.72,15.72,0,0,0-1.56,1.11,6,6,0,0,0-1.44,1.55l1.65-1.51c.46-.42.88-.79,1.35-1.15-.88.57-.41.3.64-.42l-.43-.3A.58.58,0,0,1,419.27,179.31Z"/><path d="M412.16,174.24l-1.38-1.74a5,5,0,0,0,.35.95,15.71,15.71,0,0,0,1.88,2,30,30,0,0,0,2.82,2.82l.76.66.38.31.08.12.21.31s0,.06.11.07,0-.26-.14-.5l-.13-.19-.45-.4-.94-.84A46.46,46.46,0,0,1,412.16,174.24Z"/><path d="m416.11 180.21a10.85 10.85 0 0 1-1.12 0.95 4.66 4.66 0 0 0 1.33-0.72l0.39-0.31 0.18-0.16a0.8 0.8 0 0 1-0.23 0h-0.1z"/><path d="m417.37 179.77a1.34 1.34 0 0 0-0.39 0.13 2.74 2.74 0 0 0 1-0.17 3.85 3.85 0 0 1-0.61 0.04z"/></g><g fill="#8b85ca" opacity=".8"><path d="M419.87,159.16a5.41,5.41,0,0,0,.95-1.38,13.75,13.75,0,0,1,1.76-1.84,10.73,10.73,0,0,0,.8-1,10.78,10.78,0,0,0,1.87-2.13c.09-.07.34-.28,0-.44a7,7,0,0,0,1.77-2.19c.18-.34.64-.53.82-.88.25-.59.88-.92,1.18-1.46,0-.1,0-.35,0-.4.75-.53.73-1.48,1-2.27a3.8,3.8,0,0,1,.36-.79c-.1-.1-.05-.15,0-.25a4.4,4.4,0,0,1,1.35-1.06c.11,0-1.22,2.2-1.06,2.26s.89-1.41,1-1.51c-1.85,6-.69,3.29-.21,1.41.18-.22.19-.7.47-1.18-.07.35,0,1.2-.05,1.35-.19.75,0,.77-.43,1.45a14.69,14.69,0,0,0-.89,2.34c-.05-.4-.15-1.31.15-1.65-.79.65,0,1.31-.63,2.12a.87.87,0,0,0-.1.31l-.29.24c-.47.69-.67,1.43-1.2,2.07,0-.07.2,0,.26-.06.63-.43.66-1.13,1.13-1.72.11-.1,0-.4.1-.53a2.77,2.77,0,0,1,.67-.6,6.64,6.64,0,0,1-.85,1.68,1.08,1.08,0,0,0,0,.47c.17-.23.33-.46.49-.71.48-.88.57-2.39,1.33-2.76a.25.25,0,0,0,0-.1h.05a.74.74,0,0,1,.35-.32l-.23.31c-.11,1.13-1,2-1.41,3-.06.25-.52.43-.58.68a4.16,4.16,0,0,1-1.3,1.76,63.45,63.45,0,0,1-6.21,5.19,1.19,1.19,0,0,1-.08.16h.12l-.17.08a1.78,1.78,0,0,1-.72.69c-.17,0,.12-.2.07-.35l-.11.09-.11-.1c0,.06-.1,0-.17.05.39-.6.76-1.21,1.17-1.8-.22,0-.3.16-.38.23a1.67,1.67,0,0,1-.36.59c-.3.52-.94.85-1.34,1.28l-.35.16C419.74,159.65,419.7,159.3,419.87,159.16Zm7.47-5.76a4.43,4.43,0,0,1-.62.3l-.16.16a.45.45,0,0,0-.14.23l-.94.74a2.84,2.84,0,0,0,1.21-.7,10.49,10.49,0,0,1-2.91,2.17,8.88,8.88,0,0,0-.71.79,4,4,0,0,0-.36.64c2.36-2.09,5.18-3.82,7.08-6.29C428.94,152.09,428.21,152.77,427.34,153.4Zm0-.42a8.93,8.93,0,0,0,.68-1,4.93,4.93,0,0,0,1.29-2.65,17.47,17.47,0,0,1-1.29,2.65c.58-.77.13-.24-.61.82A.33.33,0,0,1,427.37,153Z"/><path d="M423.81,157.7c-.45.23-.87.5-1.33.73a4.17,4.17,0,0,0,.8-.1,7.73,7.73,0,0,0,1.5-1.05,15,15,0,0,0,3.78-3.54.72.72,0,0,0,.23-.35A29.44,29.44,0,0,1,423.81,157.7Z"/><path d="M430.68,151.3a3.8,3.8,0,0,1,.42-.83,2.07,2.07,0,0,0-.7.68c-.21.37-.42.73-.65,1.08A4.82,4.82,0,0,0,430.68,151.3Z"/><path d="M428.79,153.39l.19-.19a6.08,6.08,0,0,0,.77-1c-.36.3-.75.57-1.11.86A.28.28,0,0,1,428.79,153.39Z"/></g><g fill="#8b85ca" opacity=".8"><path d="M433.3,167.87a5.41,5.41,0,0,0,.95-1.38,13.75,13.75,0,0,1,1.76-1.84,10.73,10.73,0,0,0,.8-1,11.07,11.07,0,0,0,1.87-2.13c.08-.07.33-.28,0-.44a6.85,6.85,0,0,0,1.78-2.19c.18-.34.64-.53.82-.88.25-.59.88-.92,1.18-1.46,0-.1-.05-.35,0-.4.75-.53.73-1.48,1-2.27a3.35,3.35,0,0,1,.36-.79c-.11-.1-.05-.15,0-.25a4.36,4.36,0,0,1,1.34-1.06c.12,0-1.22,2.2-1,2.26s.89-1.41,1-1.51c-1.85,6-.7,3.29-.21,1.41.18-.22.18-.7.47-1.18-.07.35,0,1.2-.05,1.35-.2.75,0,.77-.43,1.45a14.33,14.33,0,0,0-.89,2.34c-.05-.4-.15-1.31.15-1.65-.79.65,0,1.31-.63,2.12a1.12,1.12,0,0,0-.11.31l-.28.24c-.47.69-.67,1.43-1.2,2.07,0-.07.2,0,.25-.06.64-.43.66-1.13,1.14-1.72.11-.1,0-.4.09-.53a3,3,0,0,1,.68-.6,7,7,0,0,1-.85,1.68,1.08,1.08,0,0,0,0,.47c.17-.23.33-.46.48-.71.49-.88.57-2.39,1.34-2.76a.46.46,0,0,1,0-.1h0a.74.74,0,0,1,.35-.32l-.24.31c-.1,1.13-1,2-1.4,3-.06.25-.52.43-.59.68a4.16,4.16,0,0,1-1.3,1.76,62.16,62.16,0,0,1-6.2,5.19l-.08.16h.12l-.17.08a1.78,1.78,0,0,1-.72.69c-.17,0,.12-.2.07-.35l-.12.09-.11-.1c0,.06-.09,0-.16.05.39-.6.76-1.21,1.16-1.8-.21,0-.3.16-.38.23a1.43,1.43,0,0,1-.36.59c-.29.52-.93.85-1.33,1.28l-.35.16C433.17,168.36,433.13,168,433.3,167.87Zm7.47-5.76a4.43,4.43,0,0,1-.62.3c0,.06-.11.11-.16.16a.46.46,0,0,0-.15.23l-.93.74a2.84,2.84,0,0,0,1.21-.7A10.39,10.39,0,0,1,437.2,165c-.24.25-.48.51-.7.79a3.38,3.38,0,0,0-.36.64c2.36-2.09,5.18-3.82,7.08-6.29C442.37,160.8,441.64,161.48,440.77,162.11Zm0-.42a9,9,0,0,0,.69-1,4.93,4.93,0,0,0,1.29-2.65,18.47,18.47,0,0,1-1.29,2.65c.58-.77.12-.24-.61.82A.28.28,0,0,1,440.79,161.69Z"/><path d="M437.24,166.41c-.45.23-.88.5-1.33.73a4.17,4.17,0,0,0,.8-.1,8,8,0,0,0,1.5-1,15.18,15.18,0,0,0,3.78-3.54.72.72,0,0,0,.23-.35A29.44,29.44,0,0,1,437.24,166.41Z"/><path d="M444.1,160a4.33,4.33,0,0,1,.43-.83,2.07,2.07,0,0,0-.7.68c-.21.36-.42.73-.65,1.08A4.77,4.77,0,0,0,444.1,160Z"/><path d="M442.22,162.1l.18-.19a6.14,6.14,0,0,0,.78-1c-.37.3-.75.57-1.11.86A.28.28,0,0,1,442.22,162.1Z"/></g><g fill="#8b85ca" opacity=".8"><path d="M439,161.21a4.22,4.22,0,0,0-.75-1.23,10.49,10.49,0,0,1-.79-2.06,6.55,6.55,0,0,0-.5-1,8.1,8.1,0,0,0-1-2.25c0-.09-.09-.37-.36-.16a5.41,5.41,0,0,0-1.07-2.19c-.22-.26-.17-.7-.38-1-.4-.39-.4-1-.73-1.45-.08,0-.31-.08-.33-.14-.11-.8-.93-1.07-1.49-1.53a2.67,2.67,0,0,1-.51-.56c-.14.06-.16,0-.24,0a3.66,3.66,0,0,1-.3-1.48c.05-.09,1.33,1.72,1.45,1.59a14.75,14.75,0,0,0-.83-1.32c4.27,3.41,2.49,1.6,1.11.62-.11-.23-.52-.38-.8-.77.27.17,1,.36,1.13.46.55.39.67.19,1,.81a11.45,11.45,0,0,0,1.59,1.47c-.36-.08-1.17-.27-1.33-.63.2.87,1.11.41,1.52,1.19a.71.71,0,0,0,.22.18c0,.1,0,.19.08.31a19.09,19.09,0,0,1,1.22,1.66c0-.05.08-.17.06-.24-.08-.67-.66-.9-.95-1.49,0-.12-.34-.13-.41-.24a2.09,2.09,0,0,1-.21-.76,5.23,5.23,0,0,1,1.05,1.24.9.9,0,0,0,.42.12,6.65,6.65,0,0,0-.39-.63c-.54-.68-1.79-1.22-1.76-2l-.08,0a.11.11,0,0,0,0,0,.62.62,0,0,1-.12-.4l.16.3c.92.44,1.24,1.42,1.92,2.11.19.13.14.57.32.71a3.05,3.05,0,0,1,.92,1.64,48.61,48.61,0,0,1,1.66,6.88l.1.12,0-.11v.17a1.32,1.32,0,0,1,.26.82c0,.16-.11-.16-.26-.16a.91.91,0,0,0,0,.12l-.14.07c.05,0,0,.09,0,.15-.33-.51-.69-1-1-1.54-.13.17,0,.3,0,.39a1.07,1.07,0,0,1,.34.49c.32.41.31,1.06.5,1.53a2,2,0,0,1,0,.34C439.35,161.47,439,161.4,439,161.21Zm-1.58-8.12c0,.19,0,.4,0,.62l.06.18a.37.37,0,0,0,.14.19l.21,1a2.39,2.39,0,0,0-.05-1.25,8.59,8.59,0,0,1,.55,3.15,6.2,6.2,0,0,0,.35.84,3.27,3.27,0,0,0,.39.51c-.73-2.65-1-5.59-2.2-8C437,151.32,437.26,152.15,437.41,153.09Zm-.34-.15a7.2,7.2,0,0,0-.53-.89c-.44-.81-.94-1.68-1.68-1.91a14,14,0,0,1,1.68,1.91c-.39-.72-.14-.17.43.77C437,152.83,437,152.88,437.07,152.94Z"/><path d="m439.5 157.41v1.35a4 4 0 0 0 0.27-0.7 6.45 6.45 0 0 0-0.23-1.61 11.43 11.43 0 0 0-1.33-4.3 0.48 0.48 0 0 0-0.19-0.3 22.62 22.62 0 0 1 1.48 5.56z"/><path d="M437.11,149.6a2.52,2.52,0,0,1-.52-.62,1.62,1.62,0,0,0,.26.81c.22.29.44.58.64.89A3.65,3.65,0,0,0,437.11,149.6Z"/><path d="M438.05,151.85c0-.07-.05-.14-.08-.22a4.71,4.71,0,0,0-.48-.95c.09.4.14.81.24,1.2A.28.28,0,0,1,438.05,151.85Z"/></g><g fill="#8b85ca" opacity=".8"><path d="M434.91,167.41a4.32,4.32,0,0,0-.72-1.26,10.13,10.13,0,0,1-.76-2.09,7.87,7.87,0,0,0-.49-1,8,8,0,0,0-.95-2.28c0-.1-.08-.38-.35-.18a5.38,5.38,0,0,0-1.05-2.22c-.2-.27-.15-.71-.36-1-.39-.41-.38-1-.7-1.48-.09,0-.32-.08-.33-.14-.11-.81-.92-1.11-1.48-1.58a2.66,2.66,0,0,1-.5-.57c-.14.06-.15,0-.24,0a3.54,3.54,0,0,1-.27-1.49c.05-.1,1.3,1.75,1.43,1.63a15.74,15.74,0,0,0-.82-1.35c4.23,3.53,2.47,1.67,1.1.65-.11-.23-.51-.4-.78-.79.26.17,1,.38,1.12.48.54.41.67.22,1,.84a10.73,10.73,0,0,0,1.58,1.52c-.37-.08-1.18-.3-1.33-.66.19.88,1.1.44,1.5,1.23a1.08,1.08,0,0,0,.22.19,2.21,2.21,0,0,1,.07.32,16.22,16.22,0,0,1,1.2,1.69c0-.05.09-.17.07-.23-.07-.68-.65-.94-.94-1.53,0-.13-.33-.14-.4-.25a2.19,2.19,0,0,1-.2-.77,5.08,5.08,0,0,1,1,1.27c.08.08.3.1.42.13-.12-.22-.24-.43-.38-.64-.53-.7-1.77-1.27-1.72-2l-.09,0a.09.09,0,0,0,0-.05.58.58,0,0,1-.11-.4l.16.3c.91.46,1.21,1.47,1.89,2.17.18.13.13.58.31.72a3.16,3.16,0,0,1,.89,1.68,49.7,49.7,0,0,1,1.56,7l.09.13.05-.11a1,1,0,0,1,0,.17,1.31,1.31,0,0,1,.25.84c0,.15-.11-.17-.26-.18a.84.84,0,0,0,0,.13l-.14.06s0,.1,0,.15c-.32-.52-.67-1-1-1.57-.14.17,0,.31,0,.4a1.15,1.15,0,0,1,.34.49,6.4,6.4,0,0,1,.47,1.56,2,2,0,0,1,0,.34C435.28,167.68,435,167.6,434.91,167.41Zm-1.45-8.21a4.36,4.36,0,0,1,0,.62l.06.18a.46.46,0,0,0,.13.21c.07.34.13.69.2,1a2.34,2.34,0,0,0,0-1.26,8.58,8.58,0,0,1,.5,3.19,8.86,8.86,0,0,0,.34.85,3.31,3.31,0,0,0,.38.52c-.69-2.69-.86-5.64-2.08-8.06C433.08,157.41,433.33,158.25,433.46,159.2Zm-.34-.16a6.55,6.55,0,0,0-.51-.9c-.43-.83-.92-1.72-1.65-2a15.1,15.1,0,0,1,1.65,2c-.39-.74-.14-.19.42.78C433.06,158.93,433.09,159,433.12,159Z"/><path d="m435.49 163.6v1.36a3.88 3.88 0 0 0 0.28-0.71 6.07 6.07 0 0 0-0.21-1.61 11.57 11.57 0 0 0-1.26-4.37 0.46 0.46 0 0 0-0.19-0.3 23.07 23.07 0 0 1 1.38 5.63z"/><path d="M433.22,155.68a3.06,3.06,0,0,1-.52-.63,1.62,1.62,0,0,0,.26.81c.21.3.43.6.62.91A4.11,4.11,0,0,0,433.22,155.68Z"/><path d="M434.12,158l-.07-.22a5.19,5.19,0,0,0-.47-1c.08.41.13.82.22,1.22A.29.29,0,0,1,434.12,158Z"/></g><g fill="#8b85ca" opacity=".8"><path d="M453,124.23a38.08,38.08,0,0,0,4.42,0,27.28,27.28,0,0,1,3.27.11l.2,0H461l.05,0a.8.8,0,0,0,.16.08,1.71,1.71,0,0,0,.45.13h.08a2.71,2.71,0,0,0-.13-.69.91.91,0,0,0-.06-.31l-.1-.43-.21-.87-.48-1.77c-.15-.58-.39-1.34-.41-1.46s-.15-.55-.24-.83-.11-.69-.25-.06l-.12-.7a4.16,4.16,0,0,0-.75.79,5.39,5.39,0,0,0-.43.6l-.31.51-.38.65c-.53.88-1.34,1.63-1.87,2.51-.82,1.46-2,2.65-2.86,4a4.75,4.75,0,0,1-.32.88c-1.51,1.7-2.19,3.73-3.17,5.64-.4.73-.69,1.31-1.13,2,.08.15,0,.29-.12.51a26.79,26.79,0,0,1-2.8,3.3c-.17.08,3.46-5.67,3.26-5.66s-2.39,3.72-2.63,4c7.24-14.3,3.5-7.62,1.38-3.21-.44.62-.81,1.66-1.6,2.9.37-.8.89-2.58,1.09-2.95a17.11,17.11,0,0,1,1.73-3.45c1-1.51,2.32-4.36,3.08-5.71a13.43,13.43,0,0,1-1.45,3.66c1.65-2,1-2.83,2.52-5a6.85,6.85,0,0,0,.39-.77l.6-.72c.61-.92,1.13-1.82,1.65-2.7l.8-1.33.58-.9.65-1c-.14.23-.33.22-.5.44a19.61,19.61,0,0,0-1.8,2.61c-.44.76-.87,1.55-1.44,2.35-.24.3-.32.88-.54,1.21a15.53,15.53,0,0,1-1.45,1.81,44.34,44.34,0,0,1,2.52-4.26,4.57,4.57,0,0,0,.31-1c-.42.62-.84,1.25-1.25,1.9-1.39,2.27-2.65,5.59-4.07,7l-.08.22a.28.28,0,0,0-.09.07,4.57,4.57,0,0,1-.77,1l.59-.84c1-2.54,2.92-5,4.33-7.51.29-.59,1.1-1.33,1.39-1.92.22-.42.46-.84.71-1.25l.45-.7.72-1.09c1-1.45,1.95-2.83,2.84-4l1.08-1.45c.5,1.81,1,3.61,1.52,5.43l.65,2.41.37,1.61.71,3.18c.32,1.3.57,2.44.76,3.41-1.34-.11-2.52-.23-3.49-.35l-3.18-.39-.47,0,.2.1-.44-.09a11.44,11.44,0,0,1-2.55-.18c-.35-.12.61,0,.87-.15l-.38,0,.07-.15c-.15,0-.24,0-.34-.1l5.65-.11c-.22-.2-.78-.15-1.05-.18a9.44,9.44,0,0,1-1.83.05c-1.59.08-3.24-.25-4.78-.32l-.84-.19C451.7,124.41,452.41,124.17,453,124.23Zm7.66-10.86c.18.84.33,1.67.45,2.42l.18.67a4.89,4.89,0,0,0,.27.79l.37,1.66.3,1.48c0-.52,0-1-.12-1.6a15.85,15.85,0,0,0-.48-2.12,29.08,29.08,0,0,1,1.18,4.91c.11.71.24,1.52.32,2.16s.11,1.14.13,1.57l.08.39c-.55,0-1.05-.07-1.53-.08-.22,0-.43,0-.64,0l-.9.06c.77.06,1.17.12,1.74.19l1.88.21c-.11-.75-.28-1.66-.51-2.75l-.65-3.18-.34-1.61c-.18-.73-.36-1.45-.53-2.16q-.58-2.3-1.35-5c-.95,1.25-2,2.69-3.12,4.27-.88,1.23-1.74,2.45-2.6,3.67l1.18-1.39.29-.35.43-.56.82-1.08c1.08-1.39,2-2.63,2.89-3.62Zm-.54-.05c-.7,1-1.43,2.09-2.12,3.18l-1.4,2.07c-.39.6-.78,1.19-1.13,1.77a16,16,0,0,0-1.57,3.14c.61-1.1,1.24-2.2,1.87-3.32l1-1.68,1.24-2c-1.77,2.61-.43.69,1.81-2.69A5.62,5.62,0,0,1,460.1,113.32Z"/><path d="M462,126.56l-3.58-.64a10.26,10.26,0,0,0,1.37.59,39.25,39.25,0,0,0,5.45.57h.1c-.19-1.09-.48-2.44-.86-4l-.36-1.64-.37-1.57c-.14-.53-.27-1.06-.4-1.58-.27-.91-.54-1.82-.82-2.72-.6-1.94-1.21-3.86-1.81-5.79l-.34.5a15.52,15.52,0,0,0-1.08,1.67l1.39-1.93c.56,1.92,1.12,3.82,1.68,5.72l.73,2.58.38,1.59c.24,1,.48,2.1.72,3.18.36,1.42.64,2.69.84,3.75C463.89,126.79,462.86,126.68,462,126.56Z"/><path d="M453.35,120.29c-.41.73-.81,1.47-1.26,2.13a14.24,14.24,0,0,0,1.55-2c.59-1,1.18-1.91,1.79-2.84A32.08,32.08,0,0,0,453.35,120.29Z"/><path d="M459.27,112l-.69,1c-.54.76-1.1,1.57-1.67,2.4l-1.48,2.24.28-.34.48-.63.94-1.22,1.73-2.26A2.41,2.41,0,0,1,459.27,112Z"/></g><polygon points="273.95 365.39 284.65 371.11 193.55 534.63 181.98 528.38" fill="#b6b8dd"/><polygon points="279.38 368.31 271.9 368.95 275.43 375.12 282.54 375.11" fill="#8b85ca"/><polygon points="275.4 375.07 267.92 375.72 271.46 381.88 278.57 381.88" fill="#8b85ca"/><polygon points="271.68 382 264.2 382.65 267.74 388.81 274.85 388.81" fill="#8b85ca"/><polygon points="267.83 388.85 260.35 389.49 263.89 395.66 271 395.65" fill="#8b85ca"/><polygon points="264 395.61 256.52 396.26 260.05 402.43 267.16 402.42" fill="#8b85ca"/><polygon points="260.23 402.33 252.75 402.98 256.29 409.14 263.4 409.14" fill="#8b85ca"/><polygon points="256.42 409.11 248.94 409.76 252.48 415.93 259.59 415.92" fill="#8b85ca"/><polygon points="252.69 415.85 245.21 416.5 248.75 422.67 255.86 422.66" fill="#8b85ca"/><polygon points="248.71 422.62 241.23 423.26 244.77 429.43 251.88 429.43" fill="#8b85ca"/><polygon points="244.99 429.55 237.51 430.19 241.05 436.36 248.16 436.36" fill="#8b85ca"/><polygon points="241.14 436.39 233.66 437.04 237.2 443.21 244.31 443.2" fill="#8b85ca"/><polygon points="237.31 443.16 229.83 443.81 233.37 449.97 240.47 449.97" fill="#8b85ca"/><polygon points="233.54 449.88 226.06 450.52 229.6 456.69 236.71 456.69" fill="#8b85ca"/><polygon points="229.74 456.66 222.26 457.31 225.79 463.48 232.9 463.47" fill="#8b85ca"/><polygon points="226.43 463.68 218.95 464.32 222.48 470.49 229.59 470.48" fill="#8b85ca"/><polygon points="222.45 470.44 214.97 471.08 218.51 477.25 225.62 477.25" fill="#8b85ca"/><polygon points="218.73 477.37 211.25 478.01 214.79 484.18 221.9 484.18" fill="#8b85ca"/><polygon points="214.88 484.22 207.4 484.86 210.94 491.03 218.05 491.02" fill="#8b85ca"/><polygon points="211.04 490.98 203.56 491.63 207.1 497.8 214.21 497.79" fill="#8b85ca"/><polygon points="207.28 497.7 199.8 498.35 203.34 504.51 210.45 504.51" fill="#8b85ca"/><polygon points="199.4 511.09 191.92 511.74 195.45 517.91 202.56 517.9" fill="#8b85ca"/><polygon points="195.55 517.94 188.07 518.59 191.61 524.75 198.72 524.75" fill="#8b85ca"/><polygon points="191.71 524.71 184.23 525.35 187.77 531.52 194.88 531.51" fill="#8b85ca"/><polygon points="203.47 504.48 195.99 505.13 199.53 511.3 206.64 511.29" fill="#8b85ca"/></svg>