<svg xmlns="http://www.w3.org/2000/svg" viewBox="0 0 639.4 657.85">
    <defs>
        <style>
            .cls-1,
            .cls-2 {
                fill: #e8e7bf;
            }
            .cls-2 {
                stroke: #e8e7bf;
            }
            .cls-2,
            .cls-4,
            .cls-5,
            .cls-6 {
                stroke-miterlimit: 10;
            }
            .cls-3 {
                fill: #f0597b;
            }
            .cls-4,
            .cls-5,
            .cls-6 {
                fill: none;
            }
            .cls-4 {
                stroke: #000;
            }
            .cls-5 {
                stroke: #fff;
            }
            .cls-6 {
                stroke: #f0597b;
            }
            .cls-7 {
                fill: #d5ebd8;
            }
            .cls-8 {
                fill: #231f20;
            }
        </style>
    </defs>
    <title>solaris</title>
    <g id="sunrays"><path class="cls-1" d="M236.17,37.22,271.64,175l5.08,19.73c.8,3.11,5.62,1.79,4.82-1.33L246.07,55.62,241,35.89c-.8-3.11-5.62-1.79-4.82,1.33Z" transform="translate(13.68 -6.18)"/><path class="cls-1" d="M266.34,8l5.2,41.59c.29,2.36,4,2.39,3.75,0L270.09,8c-.3-2.36-4-2.39-3.75,0Z" transform="translate(13.68 -6.18)"/><path class="cls-1" d="M272.64,63.83l5.59,37.81c.35,2.38,4,1.37,3.62-1l-5.59-37.82c-.35-2.38-4-1.37-3.62,1Z" transform="translate(13.68 -6.18)"/><path class="cls-1" d="M261.47,55.64,269,96.71c.44,2.37,4.05,1.36,3.62-1l-7.54-41.07c-.43-2.37-4.05-1.37-3.61,1Z" transform="translate(13.68 -6.18)"/><path class="cls-1" d="M287.34,160.54l5.2,39.51c.1.78,1.36.8,1.25,0l-5.2-39.51c-.1-.79-1.35-.8-1.25,0Z" transform="translate(13.68 -6.18)"/><path class="cls-1" d="M293.84,148.84l7,69.14c.08.8,1.33.8,1.25,0l-7-69.14c-.08-.79-1.33-.8-1.25,0Z" transform="translate(13.68 -6.18)"/><path class="cls-1" d="M300.34,141.82l3.38,67.33c0,.8,1.29.8,1.25,0l-3.38-67.33c0-.8-1.29-.8-1.25,0Z" transform="translate(13.68 -6.18)"/><path class="cls-1" d="M275.37,116.87l3.44,25.73c.32,2.36,4.07,2.39,3.75,0l-3.44-25.73c-.31-2.35-4.07-2.39-3.75,0Z" transform="translate(13.68 -6.18)"/><path class="cls-1" d="M216.73,103.93l33.19,74.34,4.76,10.66c.32.73,1.4.1,1.08-.63L222.56,114l-4.75-10.66c-.33-.73-1.41-.1-1.08.63Z" transform="translate(13.68 -6.18)"/><path class="cls-1" d="M315.45,84.38l-2.29,137L312.83,241c-.05,3.22,4.95,3.22,5,0l2.29-137,.33-19.62c.05-3.22-4.95-3.22-5,0Z" transform="translate(13.68 -6.18)"/><path class="cls-1" d="M330.35,14l-4.1,67.62-6.54,107.72L318.22,214c-.2,3.21,4.8,3.2,5,0l4.1-67.63,6.53-107.72L335.35,14c.19-3.22-4.81-3.21-5,0Z" transform="translate(13.68 -6.18)"/><circle class="cls-2" cx="305.47" cy="22.58" r="5.11"/><circle class="cls-2" cx="325.2" cy="46.3" r="4.37"/><circle class="cls-2" cx="314.06" cy="77.39" r="4.37"/><circle class="cls-2" cx="317.11" cy="113.51" r="4.37"/><circle class="cls-2" cx="255.45" cy="120.01" r="5.51"/><circle class="cls-2" cx="232.56" cy="78.33" r="5.51"/><path class="cls-1" d="M345.75,51.6l-10.92,94.29-1.55,13.44c-.28,2.4,3.47,2.38,3.75,0L348,65,349.5,51.6c.28-2.39-3.47-2.37-3.75,0Z" transform="translate(13.68 -6.18)"/><path class="cls-1" d="M77.12,134l109.69,90.63,15.7,13c2.46,2,6-1.48,3.54-3.53L96.36,143.41l-15.7-13c-2.47-2-6,1.48-3.54,3.53Z" transform="translate(13.68 -6.18)"/><path class="cls-1" d="M84.73,93l28.65,30.59c1.65,1.77,4.3-.89,2.65-2.65L87.38,90.32c-1.65-1.76-4.3.89-2.65,2.65Z" transform="translate(13.68 -6.18)"/><path class="cls-1" d="M122.32,134.1l26.75,27.31c1.69,1.73,4.34-.93,2.65-2.65L125,131.45c-1.69-1.73-4.34.92-2.65,2.65Z" transform="translate(13.68 -6.18)"/><path class="cls-1" d="M108.46,134l30.24,28.8c1.75,1.66,4.41-1,2.65-2.65l-30.23-28.8c-1.75-1.66-4.41,1-2.66,2.65Z" transform="translate(13.68 -6.18)"/><path class="cls-1" d="M191.28,203.92l27.43,28.9c.55.59,1.43-.3.88-.88L192.16,203c-.55-.58-1.44.3-.88.89Z" transform="translate(13.68 -6.18)"/><path class="cls-1" d="M189.66,190.63,236,242.44c.53.61,1.42-.28.88-.88l-46.32-51.81c-.53-.6-1.41.29-.88.88Z" transform="translate(13.68 -6.18)"/><path class="cls-1" d="M190.79,181.14l42.31,52.47c.5.63,1.38-.26.88-.88l-42.3-52.48c-.51-.62-1.39.27-.89.89Z" transform="translate(13.68 -6.18)"/><path class="cls-1" d="M156.05,175.77,174,194.57c1.67,1.75,4.32-.91,2.66-2.65l-17.92-18.8c-1.66-1.75-4.31.91-2.65,2.65Z" transform="translate(13.68 -6.18)"/><path class="cls-1" d="M100.75,199.52l70.55,40.63L181.41,246a.63.63,0,0,0,.63-1.08l-70.55-40.64-10.11-5.82a.63.63,0,0,0-.63,1.08Z" transform="translate(13.68 -6.18)"/><path class="cls-1" d="M169.05,125.5l78.69,112.21L259,253.77c1.84,2.61,6.18.12,4.32-2.53L184.63,139,173.37,123c-1.84-2.62-6.17-.12-4.32,2.52Z" transform="translate(13.68 -6.18)"/><path class="cls-1" d="M139.75,59.82,176.18,117l58,91,13.27,20.8c1.72,2.71,6.05.2,4.32-2.52l-36.43-57.12-58-91L144.07,57.3c-1.73-2.7-6-.2-4.32,2.52Z" transform="translate(13.68 -6.18)"/><circle class="cls-2" cx="131.03" cy="88.43" r="5.11"/><circle class="cls-2" cx="160.94" cy="96.03" r="4.37"/><circle class="cls-2" cx="170.2" cy="127.73" r="4.37"/><circle class="cls-2" cx="193.9" cy="155.15" r="4.37"/><circle class="cls-2" cx="147.83" cy="196.66" r="5.51"/><circle class="cls-2" cx="104.82" cy="176.4" r="5.51"/><path class="cls-1" d="M174.33,81.22l46.59,82.7,6.64,11.79c1.19,2.1,4.43.21,3.24-1.89l-46.59-82.7-6.64-11.8c-1.18-2.1-4.42-.21-3.24,1.9Z" transform="translate(13.68 -6.18)"/><path class="cls-1" d="M6.21,305.49l142,8.85,20.34,1.27c3.21.2,3.2-4.8,0-5l-142-8.85L6.21,300.49c-3.21-.2-3.2,4.81,0,5Z" transform="translate(13.68 -6.18)"/><path class="cls-1" d="M-12.32,267.79l41.15,7.9c2.36.46,3.37-3.16,1-3.61l-41.16-7.91c-2.36-.45-3.37,3.16-1,3.62Z" transform="translate(13.68 -6.18)"/><path class="cls-1" d="M42.26,279,80,285.33c2.36.4,3.38-3.21,1-3.61l-37.7-6.37c-2.36-.4-3.37,3.21-1,3.61Z" transform="translate(13.68 -6.18)"/><path class="cls-1" d="M31.52,287.13l41.38,5.52c2.39.32,2.36-3.43,0-3.75l-41.38-5.52c-2.39-.32-2.37,3.43,0,3.75Z" transform="translate(13.68 -6.18)"/><path class="cls-1" d="M139.22,294.94l39.18,7.27c.79.14,1.13-1.06.34-1.21l-39.19-7.26c-.78-.15-1.12,1.06-.33,1.2Z" transform="translate(13.68 -6.18)"/><path class="cls-1" d="M130.11,285.15,198,299.84c.79.17,1.12-1,.33-1.21l-67.92-14.69c-.79-.17-1.12,1-.33,1.21Z" transform="translate(13.68 -6.18)"/><path class="cls-1" d="M125.44,276.8l65.07,17.59a.63.63,0,0,0,.33-1.21l-65.07-17.59a.63.63,0,0,0-.33,1.21Z" transform="translate(13.68 -6.18)"/><path class="cls-1" d="M94.05,292.85l25.53,4.68c2.36.43,3.37-3.18,1-3.62L95,289.23c-2.36-.43-3.37,3.19-1,3.62Z" transform="translate(13.68 -6.18)"/><path class="cls-1" d="M63.4,344.61l81-8.59L156,334.79c.79-.09.8-1.34,0-1.25l-81,8.59L63.4,343.36c-.79.09-.8,1.34,0,1.25Z" transform="translate(13.68 -6.18)"/><path class="cls-1" d="M75.56,244.7l129.61,44.53,18.55,6.37c3.05,1,4.36-3.78,1.33-4.82L95.44,246.26l-18.55-6.38c-3-1-4.36,3.78-1.33,4.82Z" transform="translate(13.68 -6.18)"/><path class="cls-1" d="M13.25,208.79l63.05,24.8,100.43,39.5,23,9c3,1.18,4.29-3.65,1.33-4.82L138,252.5,37.54,213l-23-9c-3-1.18-4.29,3.65-1.33,4.82Z" transform="translate(13.68 -6.18)"/><circle class="cls-2" cx="28.91" cy="243.8" r="5.11"/><circle class="cls-2" cx="57.58" cy="232.36" r="4.37"/><circle class="cls-2" cx="83.7" cy="252.57" r="4.37"/><circle class="cls-2" cx="118.99" cy="260.82" r="4.37"/><circle class="cls-2" cx="106.12" cy="321.48" r="5.51"/><circle class="cls-2" cx="59.41" cy="330.37" r="5.51"/><path class="cls-1" d="M53.27,205.55l86.3,39.52,12.3,5.64c2.18,1,4.09-2.23,1.9-3.24L67.47,208l-12.31-5.64c-2.18-1-4.08,2.24-1.89,3.24Z" transform="translate(13.68 -6.18)"/><path class="cls-1" d="M48.85,487.36l120.08-76.31,17.2-10.93c2.7-1.72.2-6.05-2.53-4.31L63.52,472.12,46.33,483.05c-2.71,1.72-.21,6.05,2.52,4.31Z" transform="translate(13.68 -6.18)"/><path class="cls-1" d="M12.19,467.48l37.94-17.8c2.19-1,.28-4.26-1.89-3.24l-37.95,17.8c-2.18,1-.28,4.26,1.9,3.24Z" transform="translate(13.68 -6.18)"/><path class="cls-1" d="M62.91,444.44l34.24-17c2.17-1.07.27-4.31-1.89-3.23L61,441.2c-2.16,1.07-.26,4.31,1.89,3.24Z" transform="translate(13.68 -6.18)"/><path class="cls-1" d="M58.58,457.6l36.73-19.86c2.12-1.15.23-4.39-1.89-3.24L56.69,454.36c-2.13,1.15-.24,4.38,1.89,3.24Z" transform="translate(13.68 -6.18)"/><path class="cls-1" d="M150.56,400.46l36-17.15c.72-.35.09-1.43-.63-1.08l-36,17.15c-.73.35-.09,1.43.63,1.08Z" transform="translate(13.68 -6.18)"/><path class="cls-1" d="M137.43,397.89l63.59-28c.73-.32.09-1.4-.64-1.07l-63.58,28c-.74.32-.1,1.4.63,1.07Z" transform="translate(13.68 -6.18)"/><path class="cls-1" d="M128.6,394l63-24c.74-.28.42-1.49-.33-1.21l-63,24c-.74.28-.42,1.49.34,1.21Z" transform="translate(13.68 -6.18)"/><path class="cls-1" d="M113,425.23,136.38,414c2.18-1,.28-4.27-1.89-3.23L111.08,422c-2.17,1.05-.27,4.28,1.89,3.24Z" transform="translate(13.68 -6.18)"/><path class="cls-1" d="M118.4,485.19l60.44-54.54,8.67-7.81c.59-.54-.29-1.43-.89-.89l-60.44,54.54-8.67,7.82c-.6.54.29,1.42.89.88Z" transform="translate(13.68 -6.18)"/><path class="cls-1" d="M69.21,397.35l131-40.16L219,351.44c3.07-.94,1.76-5.77-1.33-4.82l-131,40.16-18.76,5.75c-3.06.94-1.75,5.77,1.33,4.82Z" transform="translate(13.68 -6.18)"/><path class="cls-1" d="M-2.3,404.92l65.58-17,104.47-27.08,23.88-6.19c3.11-.8,1.79-5.63-1.33-4.82l-65.58,17L20.25,393.91-3.63,400.1c-3.11.81-1.79,5.63,1.33,4.82Z" transform="translate(13.68 -6.18)"/><circle class="cls-2" cx="37.41" cy="430.83" r="5.11"/><circle class="cls-2" cx="53.87" cy="404.73" r="4.37"/><circle class="cls-2" cx="86.89" cy="405.72" r="4.37"/><circle class="cls-2" cx="120.29" cy="391.66" r="4.37"/><circle class="cls-2" cx="145.53" cy="448.29" r="5.51"/><circle class="cls-2" cx="112.96" cy="482.94" r="5.51"/><path class="cls-1" d="M28.7,378.65l93.05-18.75L135,357.23c2.37-.48,1.37-4.09-1-3.62L41,372.36,27.7,375c-2.36.47-1.36,4.09,1,3.61Z" transform="translate(13.68 -6.18)"/><path class="cls-1" d="M190.05,608.4l52.29-132.32,7.49-18.94c1.19-3-3.65-4.3-4.82-1.33L192.72,588.13l-7.49,18.94c-1.18,3,3.65,4.3,4.82,1.33Z" transform="translate(13.68 -6.18)"/><path class="cls-1" d="M148.48,614.4l20.24-36.7c1.17-2.12-2.07-4-3.24-1.89l-20.24,36.7c-1.16,2.11,2.07,4,3.24,1.89Z" transform="translate(13.68 -6.18)"/><path class="cls-1" d="M176,565.94l17.7-33.88c1.12-2.14-2.11-4-3.23-1.89l-17.71,33.88c-1.12,2.14,2.12,4,3.24,1.89Z" transform="translate(13.68 -6.18)"/><path class="cls-1" d="M180.21,579.14l18-37.66c1-2.17-2.2-4.07-3.24-1.89l-18,37.65c-1,2.17,2.19,4.07,3.24,1.9Z" transform="translate(13.68 -6.18)"/><path class="cls-1" d="M221.1,478.72l19-35c.38-.71-.7-1.34-1.08-.63l-19,35c-.38.71.7,1.34,1.08.63Z" transform="translate(13.68 -6.18)"/><path class="cls-1" d="M209,484.36l35-60.06a.63.63,0,0,0-1.08-.63l-35,60.06a.63.63,0,0,0,1.08.63Z" transform="translate(13.68 -6.18)"/><path class="cls-1" d="M199.59,486.22l36.83-56.45c.45-.67-.64-1.3-1.07-.63l-36.84,56.45c-.44.68.64,1.3,1.08.63Z" transform="translate(13.68 -6.18)"/><path class="cls-1" d="M205.19,521l12.34-22.84c1.14-2.13-2.09-4-3.24-1.89L202,519.09c-1.15,2.12,2.09,4,3.24,1.89Z" transform="translate(13.68 -6.18)"/><path class="cls-1" d="M244.9,566.18l16.85-79.65,2.41-11.42c.17-.78-1-1.12-1.2-.33l-16.85,79.65-2.41,11.42c-.17.78,1,1.12,1.2.33Z" transform="translate(13.68 -6.18)"/><path class="cls-1" d="M153.7,523.66l82.4-109.51,11.79-15.68c1.94-2.57-2.4-5.07-4.31-2.52l-82.4,109.51-11.79,15.68c-1.94,2.57,2.4,5.06,4.31,2.52Z" transform="translate(13.68 -6.18)"/><path class="cls-1" d="M99.9,572.32,143,520l68.6-83.3,15.69-19.05c2-2.46-1.49-6-3.54-3.53l-43.07,52.3-68.6,83.3-15.68,19c-2,2.46,1.49,6,3.53,3.53Z" transform="translate(13.68 -6.18)"/><circle class="cls-2" cx="153.69" cy="576.59" r="5.11"/><circle class="cls-2" cx="151.67" cy="545.8" r="4.37"/><circle class="cls-2" cx="178.96" cy="527.2" r="4.37"/><circle class="cls-2" cx="197.71" cy="496.19" r="4.37"/><circle class="cls-2" cx="251.42" cy="527.17" r="5.51"/><circle class="cls-2" cx="245.44" cy="574.34" r="5.51"/><path class="cls-1" d="M109.59,532.8l64.25-69.87L183,453c1.63-1.77-1-4.43-2.66-2.65L116.1,520.18l-9.16,10c-1.64,1.77,1,4.43,2.65,2.65Z" transform="translate(13.68 -6.18)"/><path class="cls-1" d="M375.93,622.68,340.46,484.89l-5.08-19.73c-.8-3.11-5.62-1.79-4.82,1.33L366,604.28,371.11,624c.8,3.11,5.63,1.79,4.82-1.33Z" transform="translate(13.68 -6.18)"/><path class="cls-1" d="M345.77,651.93l-5.2-41.59c-.3-2.36-4.05-2.39-3.75,0l5.2,41.59c.29,2.37,4,2.4,3.75,0Z" transform="translate(13.68 -6.18)"/><path class="cls-1" d="M339.46,596.07l-5.59-37.82c-.35-2.38-4-1.37-3.61,1l5.58,37.82c.36,2.38,4,1.36,3.62-1Z" transform="translate(13.68 -6.18)"/><path class="cls-1" d="M350.64,604.26l-7.54-41.07c-.44-2.37-4.05-1.37-3.62,1L347,605.25c.44,2.37,4.05,1.37,3.62-1Z" transform="translate(13.68 -6.18)"/><path class="cls-1" d="M324.76,499.35l-5.2-39.5c-.1-.79-1.35-.8-1.25,0l5.2,39.5c.1.79,1.36.8,1.25,0Z" transform="translate(13.68 -6.18)"/><path class="cls-1" d="M318.26,511.05l-7-69.14c-.08-.79-1.33-.8-1.25,0l7,69.14c.08.79,1.33.8,1.25,0Z" transform="translate(13.68 -6.18)"/><path class="cls-1" d="M311.76,518.07l-3.37-67.32c0-.8-1.29-.81-1.25,0l3.37,67.32c0,.8,1.3.81,1.25,0Z" transform="translate(13.68 -6.18)"/><path class="cls-1" d="M336.73,543l-3.44-25.73c-.32-2.36-4.07-2.39-3.75,0L333,543c.32,2.36,4.07,2.39,3.75,0Z" transform="translate(13.68 -6.18)"/><path class="cls-1" d="M395.38,556l-33.2-74.34L357.43,471c-.33-.74-1.41-.1-1.08.63l33.19,74.34,4.76,10.65c.32.74,1.4.1,1.08-.63Z" transform="translate(13.68 -6.18)"/><path class="cls-1" d="M296.66,575.51l2.29-137,.32-19.62c.06-3.22-4.94-3.22-5,0L292,555.9l-.33,19.61c-.06,3.22,4.94,3.22,5,0Z" transform="translate(13.68 -6.18)"/><path class="cls-1" d="M281.76,645.87l4.1-67.63,6.53-107.72,1.5-24.62c.19-3.22-4.81-3.21-5,0l-4.11,67.62-6.53,107.72-1.49,24.63c-.2,3.21,4.8,3.2,5,0Z" transform="translate(13.68 -6.18)"/><circle class="cls-2" cx="333.99" cy="624.96" r="5.11"/><circle class="cls-2" cx="314.26" cy="601.23" r="4.37"/><circle class="cls-2" cx="325.4" cy="570.14" r="4.37"/><circle class="cls-2" cx="322.34" cy="534.03" r="4.37"/><circle class="cls-2" cx="384.01" cy="527.53" r="5.51"/><circle class="cls-2" cx="406.9" cy="569.2" r="5.51"/><path class="cls-1" d="M266.35,608.3,277.27,514l1.56-13.45c.27-2.39-3.48-2.37-3.75,0l-10.92,94.29L262.6,608.3c-.28,2.39,3.48,2.37,3.75,0Z" transform="translate(13.68 -6.18)"/><path class="cls-1" d="M534.29,526.18,424.61,435.56l-15.71-13c-2.46-2-6,1.49-3.54,3.54l109.69,90.62,15.71,13c2.46,2,6-1.48,3.53-3.54Z" transform="translate(13.68 -6.18)"/><path class="cls-1" d="M526.68,567.17,498,536.58c-1.65-1.76-4.3.89-2.65,2.66L524,569.83c1.65,1.76,4.3-.9,2.65-2.66Z" transform="translate(13.68 -6.18)"/><path class="cls-1" d="M489.09,526.05l-26.75-27.31c-1.69-1.73-4.34.92-2.65,2.65l26.75,27.31c1.69,1.73,4.34-.92,2.65-2.65Z" transform="translate(13.68 -6.18)"/><path class="cls-1" d="M503,526.1l-30.24-28.79c-1.75-1.66-4.4,1-2.65,2.65l30.24,28.8c1.74,1.66,4.4-1,2.65-2.66Z" transform="translate(13.68 -6.18)"/><path class="cls-1" d="M420.13,456.23l-27.42-28.91c-.56-.58-1.44.3-.89.89l27.43,28.91c.55.58,1.44-.31.88-.89Z" transform="translate(13.68 -6.18)"/><path class="cls-1" d="M421.75,469.51,375.43,417.7c-.53-.6-1.41.29-.88.89l46.32,51.81c.54.6,1.42-.29.88-.89Z" transform="translate(13.68 -6.18)"/><path class="cls-1" d="M420.62,479l-42.3-52.48c-.51-.62-1.39.27-.89.89l42.31,52.47c.5.63,1.38-.26.88-.88Z" transform="translate(13.68 -6.18)"/><path class="cls-1" d="M455.36,484.37l-17.91-18.79c-1.67-1.75-4.32.9-2.65,2.65L452.71,487c1.67,1.76,4.31-.9,2.65-2.65Z" transform="translate(13.68 -6.18)"/><path class="cls-1" d="M510.66,460.63,440.12,420,430,414.17a.63.63,0,0,0-.63,1.08l70.55,40.63L510,461.71a.63.63,0,0,0,.63-1.08Z" transform="translate(13.68 -6.18)"/><path class="cls-1" d="M442.36,534.65,363.67,422.44l-11.26-16.06c-1.84-2.61-6.17-.12-4.32,2.52l78.69,112.21,11.27,16.06c1.83,2.61,6.17.12,4.31-2.52Z" transform="translate(13.68 -6.18)"/><path class="cls-1" d="M471.66,600.32,435.23,543.2l-58-91-13.27-20.8c-1.72-2.7-6.05-.2-4.32,2.53l36.44,57.12,58,91,13.27,20.81c1.73,2.7,6.06.2,4.32-2.53Z" transform="translate(13.68 -6.18)"/><circle class="cls-2" cx="507.74" cy="559.36" r="5.11"/><circle class="cls-2" cx="477.82" cy="551.76" r="4.37"/><circle class="cls-2" cx="468.57" cy="520.06" r="4.37"/><circle class="cls-2" cx="444.87" cy="492.64" r="4.37"/><circle class="cls-2" cx="490.93" cy="451.13" r="5.51"/><circle class="cls-2" cx="533.95" cy="471.39" r="5.51"/><path class="cls-1" d="M437.08,578.93l-46.59-82.7-6.64-11.79c-1.19-2.11-4.43-.22-3.24,1.89L427.2,569l6.64,11.79c1.18,2.11,4.43.22,3.24-1.89Z" transform="translate(13.68 -6.18)"/><path class="cls-1" d="M605.84,354l-142-8.85L443.5,343.9c-3.22-.2-3.2,4.8,0,5l142,8.84L605.84,359c3.21.2,3.2-4.8,0-5Z" transform="translate(13.68 -6.18)"/><path class="cls-1" d="M624.37,391.72l-41.16-7.91c-2.36-.45-3.37,3.16-1,3.62l41.16,7.9c2.36.46,3.37-3.16,1-3.61Z" transform="translate(13.68 -6.18)"/><path class="cls-1" d="M569.79,380.54l-37.7-6.37c-2.36-.4-3.37,3.21-1,3.62l37.7,6.37c2.36.4,3.38-3.22,1-3.62Z" transform="translate(13.68 -6.18)"/><path class="cls-1" d="M580.53,372.38l-41.39-5.53c-2.38-.31-2.36,3.44,0,3.75l41.39,5.53c2.38.31,2.36-3.44,0-3.75Z" transform="translate(13.68 -6.18)"/><path class="cls-1" d="M472.82,364.56l-39.18-7.26c-.79-.15-1.12,1.06-.33,1.2l39.18,7.27c.79.14,1.12-1.06.33-1.21Z" transform="translate(13.68 -6.18)"/><path class="cls-1" d="M481.94,374.36,414,359.67c-.78-.17-1.12,1-.33,1.2l67.93,14.69c.78.17,1.12-1,.33-1.2Z" transform="translate(13.68 -6.18)"/><path class="cls-1" d="M486.61,382.71l-65.07-17.59a.62.62,0,0,0-.34,1.2l65.07,17.59a.62.62,0,0,0,.34-1.2Z" transform="translate(13.68 -6.18)"/><path class="cls-1" d="M518,366.65,492.46,362c-2.36-.44-3.37,3.18-1,3.61L517,370.27c2.36.43,3.37-3.18,1-3.62Z" transform="translate(13.68 -6.18)"/><path class="cls-1" d="M548.64,314.89l-81,8.59-11.6,1.24c-.79.08-.8,1.33,0,1.25l81-8.6,11.6-1.23c.79-.08.8-1.33,0-1.25Z" transform="translate(13.68 -6.18)"/><path class="cls-1" d="M536.49,414.8,406.87,370.28l-18.55-6.38c-3.05-1-4.36,3.79-1.33,4.83l129.62,44.52,18.55,6.37c3.05,1.05,4.36-3.78,1.33-4.82Z" transform="translate(13.68 -6.18)"/><path class="cls-1" d="M598.79,450.71l-63-24.8-100.42-39.5-23-9c-3-1.18-4.3,3.66-1.33,4.82L474.08,407l100.43,39.5,23,9c3,1.18,4.29-3.65,1.32-4.82Z" transform="translate(13.68 -6.18)"/><circle class="cls-2" cx="610.49" cy="403.34" r="5.11"/><circle class="cls-2" cx="581.82" cy="414.78" r="4.37"/><circle class="cls-2" cx="555.7" cy="394.57" r="4.37"/><circle class="cls-2" cx="520.41" cy="386.32" r="4.37"/><circle class="cls-2" cx="533.28" cy="325.67" r="5.51"/><circle class="cls-2" cx="579.99" cy="316.77" r="5.51"/><path class="cls-1" d="M558.78,454l-86.3-39.52-12.31-5.64c-2.18-1-4.09,2.24-1.89,3.24l86.3,39.52,12.3,5.64c2.18,1,4.09-2.23,1.9-3.24Z" transform="translate(13.68 -6.18)"/><path class="cls-1" d="M563.28,173,443.19,249.29,426,260.22c-2.71,1.72-.2,6,2.52,4.31L548.6,188.22l17.2-10.92c2.71-1.73.2-6.05-2.52-4.32Z" transform="translate(13.68 -6.18)"/><path class="cls-1" d="M599.94,192.86l-38,17.8c-2.18,1-.28,4.26,1.9,3.24l37.94-17.8c2.19-1,.28-4.26-1.89-3.24Z" transform="translate(13.68 -6.18)"/><path class="cls-1" d="M549.21,215.91l-34.24,17c-2.16,1.07-.26,4.31,1.89,3.24l34.25-17c2.16-1.07.26-4.31-1.9-3.23Z" transform="translate(13.68 -6.18)"/><path class="cls-1" d="M553.55,202.75l-36.73,19.86c-2.13,1.14-.24,4.38,1.89,3.23L555.44,206c2.12-1.14.23-4.38-1.89-3.23Z" transform="translate(13.68 -6.18)"/><path class="cls-1" d="M461.57,259.88,425.6,277c-.73.35-.1,1.43.63,1.08l36-17.15c.72-.35.09-1.43-.63-1.08Z" transform="translate(13.68 -6.18)"/><path class="cls-1" d="M474.7,262.45l-63.59,28c-.73.32-.1,1.4.63,1.08l63.59-28.05c.73-.32.1-1.4-.63-1.07Z" transform="translate(13.68 -6.18)"/><path class="cls-1" d="M483.53,266.39l-63,24c-.75.28-.42,1.49.33,1.21l63-24c.75-.28.42-1.49-.33-1.21Z" transform="translate(13.68 -6.18)"/><path class="cls-1" d="M499.15,235.11l-23.41,11.23c-2.17,1-.27,4.27,1.9,3.23L501,238.35c2.18-1,.28-4.28-1.89-3.24Z" transform="translate(13.68 -6.18)"/><path class="cls-1" d="M493.73,175.15l-60.45,54.54-8.66,7.81c-.6.54.29,1.43.88.89L486,183.85l8.66-7.82c.6-.54-.28-1.42-.88-.88Z" transform="translate(13.68 -6.18)"/><path class="cls-1" d="M542.91,263l-131,40.16-18.75,5.75c-3.07.94-1.76,5.77,1.32,4.82l131-40.16,18.76-5.75c3.07-.94,1.76-5.77-1.33-4.82Z" transform="translate(13.68 -6.18)"/><path class="cls-1" d="M614.43,255.42l-65.59,17L444.38,299.49l-23.89,6.19c-3.11.8-1.79,5.63,1.33,4.82l65.59-17,104.46-27.07,23.89-6.19c3.11-.81,1.79-5.63-1.33-4.82Z" transform="translate(13.68 -6.18)"/><circle class="cls-2" cx="602.07" cy="217.15" r="5.11"/><circle class="cls-2" cx="585.61" cy="243.25" r="4.37"/><circle class="cls-2" cx="552.59" cy="242.26" r="4.37"/><circle class="cls-2" cx="519.19" cy="256.33" r="4.37"/><circle class="cls-2" cx="493.95" cy="199.69" r="5.51"/><circle class="cls-2" cx="526.51" cy="165.04" r="5.51"/><path class="cls-1" d="M583.43,281.69l-93,18.75-13.27,2.67c-2.36.48-1.36,4.1,1,3.62l93-18.75,13.26-2.68c2.37-.47,1.37-4.09-1-3.61Z" transform="translate(13.68 -6.18)"/><path class="cls-1" d="M421.86,52,369.57,184.3l-7.49,18.95c-1.18,3,3.65,4.29,4.82,1.33L419.2,72.26l7.48-19c1.19-3-3.65-4.29-4.82-1.33Z" transform="translate(13.68 -6.18)"/><path class="cls-1" d="M463.43,46l-20.24,36.7c-1.16,2.11,2.07,4,3.24,1.89l20.24-36.7c1.17-2.11-2.07-4-3.24-1.89Z" transform="translate(13.68 -6.18)"/><path class="cls-1" d="M435.94,94.45l-17.71,33.88c-1.12,2.13,2.12,4,3.24,1.89l17.71-33.88c1.11-2.14-2.12-4-3.24-1.89Z" transform="translate(13.68 -6.18)"/><path class="cls-1" d="M431.71,81.25l-18,37.66c-1,2.16,2.19,4.07,3.23,1.89L435,83.15c1-2.17-2.2-4.08-3.24-1.9Z" transform="translate(13.68 -6.18)"/><path class="cls-1" d="M390.81,181.67l-19,35c-.38.7.7,1.34,1.08.63l19-35c.38-.71-.69-1.34-1.08-.63Z" transform="translate(13.68 -6.18)"/><path class="cls-1" d="M402.94,176l-35,60.06a.63.63,0,0,0,1.08.63l35-60.06a.63.63,0,0,0-1.08-.63Z" transform="translate(13.68 -6.18)"/><path class="cls-1" d="M412.33,174.17l-36.84,56.45c-.44.67.64,1.3,1.08.63L413.4,174.8c.45-.68-.64-1.3-1.07-.63Z" transform="translate(13.68 -6.18)"/><path class="cls-1" d="M406.72,139.41l-12.33,22.84c-1.15,2.12,2.08,4,3.23,1.89L410,141.3c1.15-2.12-2.09-4-3.24-1.89Z" transform="translate(13.68 -6.18)"/><path class="cls-1" d="M367,94.21l-16.84,79.65-2.42,11.42c-.16.78,1,1.12,1.21.33L365.8,106l2.41-11.42c.17-.78-1-1.12-1.2-.33Z" transform="translate(13.68 -6.18)"/><path class="cls-1" d="M458.21,136.73l-82.4,109.51L364,261.92c-1.94,2.57,2.4,5.07,4.32,2.52l82.39-109.51,11.8-15.68c1.93-2.57-2.41-5.06-4.32-2.52Z" transform="translate(13.68 -6.18)"/><path class="cls-1" d="M512,88.07l-43.07,52.3-68.6,83.3-15.68,19.05c-2,2.46,1.48,6,3.53,3.53L431.26,194l68.6-83.3L515.55,91.6c2-2.46-1.49-6-3.54-3.53Z" transform="translate(13.68 -6.18)"/><circle class="cls-2" cx="485.58" cy="71.44" r="5.11"/><circle class="cls-2" cx="487.6" cy="102.23" r="4.37"/><circle class="cls-2" cx="460.31" cy="120.83" r="4.37"/><circle class="cls-2" cx="441.56" cy="151.85" r="4.37"/><circle class="cls-2" cx="387.85" cy="120.86" r="5.51"/><circle class="cls-2" cx="393.82" cy="73.69" r="5.51"/><path class="cls-1" d="M502.33,127.59l-64.26,69.86-9.16,10c-1.63,1.77,1,4.43,2.65,2.65l64.26-69.87,9.16-10c1.63-1.77-1-4.43-2.65-2.65Z" transform="translate(13.68 -6.18)"/></g>
    <g id="lamp"><rect x="275.1" y="614.49" width="107.55" height="43.35"/><path class="cls-3" d="M254.65,127.87a18,18,0,0,0-10.28,2.3,18.4,18.4,0,0,0-8.11,10L236,155.8" transform="translate(13.68 -6.18)"/><path class="cls-3" d="M332.75,70.13V44.87c-5.19-13-15.62-21.34-25.23-20.57-7.53.61-13.77,6.71-15.68,8.58a34.72,34.72,0,0,0-7.95,12V70.13S208.42,82,204.86,90s36.06,21.66,40.24,22,63.43,0,63.43,0" transform="translate(13.68 -6.18)"/><path class="cls-3" d="M332.57,70.06S408,81.92,411.6,90s-36.06,21.66-40.24,22-63.43,0-63.43,0" transform="translate(13.68 -6.18)"/><path class="cls-3" d="M307.93,129.87c-9.22-.23-48.85,4.17-53.28,3.71s-4.08-21.5-4.08-21.5H363s.34,21-4.09,21.5-44.05-3.94-53.27-3.71" transform="translate(13.68 -6.18)"/><path
        class="cls-3"
        d="M305.6,155.8c-10.92-.19-21.11-.27-30.47-.28-15.4,0-28.57.12-39.14.28-4.54.06-16.7.34-27.13,5.2a94.93,94.93,0,0,0-12.41,7.22s-3.92,2.75-7.15,5.61c-11,9.7-19.43,35-19.79,36.12L138,467.89s-16.57,57.88,38.74,80.75a39.57,39.57,0,0,0-1.86,12.13c.23,5.84.46,31.74.46,31.74s-23.57,20.31-25.2,27.07,1.86,7.18,5.13,9.34,133.3,2.16,150.32,2.16"
        transform="translate(13.68 -6.18)"/><path
        class="cls-3"
        d="M305.6,155.8c10.92-.19,21.1-.27,30.47-.28,15.39,0,28.56.12,39.13.28,4.55.06,16.7.34,27.14,5.2a95.23,95.23,0,0,1,12.4,7.22s3.92,2.75,7.15,5.61c11,9.7,19.43,35,19.8,36.12l31.49,257.94s16.57,57.88-38.74,80.75a39.76,39.76,0,0,1,1.87,12.13c-.24,5.84-.47,31.74-.47,31.74s23.57,20.31,25.2,27.07-1.86,7.18-5.13,9.34-133.3,2.16-150.31,2.16"
        transform="translate(13.68 -6.18)"/><path class="cls-3" d="M254.65,127.87H356.54a18,18,0,0,1,10.28,2.3,18.4,18.4,0,0,1,8.11,10l.27,15.67H236" transform="translate(13.68 -6.18)"/><line class="cls-4" x1="183.78" y1="542.43" x2="458.49" y2="542.43"/><line class="cls-4" x1="181.63" y1="585.43" x2="456.33" y2="585.43"/><circle class="cls-1" cx="208.17" cy="563.93" r="10.89"/><circle class="cls-1" cx="265.16" cy="563.93" r="10.89"/><circle class="cls-1" cx="322.35" cy="563.93" r="10.89"/><circle class="cls-1" cx="376.72" cy="563.93" r="10.89"/><circle class="cls-1" cx="430.49" cy="563.93" r="10.89"/><path class="cls-4" d="M249.57,112.28s46.9-12.45,116.73,0" transform="translate(13.68 -6.18)"/><circle class="cls-1" cx="321.98" cy="135.37" r="10.89"/><circle class="cls-1" cx="373.55" cy="135.37" r="10.89"/><circle class="cls-1" cx="265.16" cy="135.37" r="10.89"/><polygon class="cls-3" points="317.76 105.31 342.92 105.63 323.25 111.44 317.76 105.31"/><path
        d="M305.6,270.38S224.08,268.3,212.84,284c-3.82,5.34,7.8-10.61,7.8-10.61v-8.68a6.56,6.56,0,0,1,3.72-5.9c19.29-9.35,16.24-16.09,16.24-16.09V234c-24.26-4.93-27.25-8.72-27.76-11.37s-1.77-4.73,3.91-5.68,12.88-9.84,12.88-9.84v-9.47s-19.13,0-21.21,16.28-32.19,265.49-32.19,265.49-5.49,27.08,15.91,29.54,50.75,3.79,50.75,3.79,2.27-31.25,10.22-31.06c0,0-36.36-5.11-36.36-16.28,0-1.4,1.39-2.61,3.82-3.65a44.27,44.27,0,0,1,8.54-2.38c24.41-4.75,76.49-4.2,76.49-4.2"
        transform="translate(13.68 -6.18)"/><path
        d="M304.93,270.38s81.52-2.08,92.75,13.64c3.82,5.34-7.79-10.61-7.79-10.61v-8.68a6.56,6.56,0,0,0-3.73-5.9c-19.29-9.35-16.23-16.09-16.23-16.09V234c24.25-4.93,27.25-8.72,27.75-11.37s1.77-4.73-3.91-5.68-12.87-9.84-12.87-9.84v-9.47s19.12,0,21.2,16.28,32.2,265.49,32.2,265.49,5.49,27.08-15.91,29.54-50.75,3.79-50.75,3.79-2.27-31.25-10.23-31.06c0,0,36.36-5.11,36.36-16.28,0-1.4-1.39-2.61-3.81-3.65a44.27,44.27,0,0,0-8.54-2.38c-24.41-4.75-76.49-4.2-76.49-4.2"
        transform="translate(13.68 -6.18)"/><path d="M329.52,70.13V46.71C325.06,35.5,316.1,28.37,307.84,29c-6.47.52-11.83,5.77-13.47,7.37a29.7,29.7,0,0,0-6.83,10.31V70.13s9.29-12,21-12S329.52,70.13,329.52,70.13Z" transform="translate(13.68 -6.18)"/><path class="cls-5" d="M227.33,154.54" transform="translate(13.68 -6.18)"/><path class="cls-5" d="M205.78,162.3" transform="translate(13.68 -6.18)"/><path class="cls-4" d="M216.75,216A506,506,0,0,1,305.6,208" transform="translate(13.68 -6.18)"/><path class="cls-4" d="M222.91,258.83s53.23-8.14,82.69-8.14" transform="translate(13.68 -6.18)"/><path class="cls-6" d="M215.53,281.21a914.94,914.94,0,0,0-13.08,99c-1.15,15.36-1.91,31.24,5.48,49.06a87.43,87.43,0,0,0,23.86,32.52" transform="translate(13.68 -6.18)"/><path class="cls-4" d="M393.77,216A506,506,0,0,0,304.93,208" transform="translate(13.68 -6.18)"/><path class="cls-4" d="M387.66,258.83s-53.25-8.14-82.73-8.14" transform="translate(13.68 -6.18)"/><path class="cls-6" d="M395,281.21a917.48,917.48,0,0,1,13.08,99c1.15,15.36,1.91,31.24-5.48,49.06a87.43,87.43,0,0,1-23.87,32.52" transform="translate(13.68 -6.18)"/><line class="cls-4" x1="265.03" y1="121.04" x2="375.83" y2="121.66"/><polygon points="176.71 248.58 186.14 255.65 169.4 386.02 159.41 390.31 176.71 248.58"/><polygon points="461.34 248.55 451.91 255.62 468.65 385.99 478.64 390.27 461.34 248.55"/><polyline class="cls-1" points="186.13 255.67 200.33 266.36 198.31 276.94 184.64 267.34"/><line class="cls-7" x1="176.71" y1="248.58" x2="186.13" y2="255.67"/><polyline class="cls-3" points="180.56 264.56 195.04 274.87 193.31 285.5 179.38 276.27"/><polyline class="cls-1" points="183.08 278.8 197.28 289.49 195.27 300.07 181.59 290.47"/><polyline class="cls-3" points="177.52 287.69 192 298 190.26 308.63 176.34 299.4"/><polyline class="cls-1" points="180.01 301.93 194.21 312.62 192.19 323.2 178.52 313.6"/><polyline class="cls-3" points="174.44 310.82 188.93 321.13 187.19 331.76 173.27 322.53"/><polyline class="cls-1" points="452.58 255.19 438.38 265.88 440.4 276.46 454.07 266.86"/><polyline class="cls-3" points="458.15 264.08 443.67 274.39 445.4 285.02 459.32 275.79"/><polyline class="cls-1" points="455.63 278.32 441.43 289.01 443.44 299.59 457.12 289.99"/><polyline class="cls-3" points="461.19 287.21 446.71 297.52 448.44 308.15 462.37 298.92"/><polyline class="cls-1" points="458.7 301.45 444.5 312.14 446.52 322.73 460.19 313.12"/><polyline class="cls-3" points="464.26 310.35 449.78 320.66 451.52 331.29 465.44 322.05"/><path class="cls-1" d="M357.41,481.71c-55.5,2.52-104.3,0-104.3,0s-6.63-2.66-10.22,31.06c0,0,113.08.62,124.75,0C367.64,512.77,365.22,481.36,357.41,481.71Z" transform="translate(13.68 -6.18)"/><polyline class="cls-1" points="236.58 440.47 246.03 439.15 249.64 444.77 240.09 445.56 236.58 440.47"/><polyline class="cls-1" points="402.01 440.81 392.56 439.49 388.95 445.1 398.5 445.89 402.01 440.81"/><path class="cls-3" d="M246.91,495.88s26.62,3.65,38.69,3.22,9.37,4.24.51,4.56-39-3.18-39-3.18Z" transform="translate(13.68 -6.18)"/><path class="cls-8" d="M247.08,500.48l-3,3.2c-4.25-5.44,2.15-11.52,2.15-11.52l.71,3.72" transform="translate(13.68 -6.18)"/><path class="cls-3" d="M363.6,496.31S337,500,324.91,499.53s-9.37,4.24-.52,4.56,39-3.18,39-3.18Z" transform="translate(13.68 -6.18)"/><path class="cls-8" d="M363.43,500.91l3,3.2c4.25-5.44-2.15-11.52-2.15-11.52l-.71,3.72" transform="translate(13.68 -6.18)"/><path class="cls-1" d="M329.52,70.13c-20.33-2.87-42,0-42,0s9.35-12,21-12S329.52,70.13,329.52,70.13Z" transform="translate(13.68 -6.18)"/><rect x="313.68" y="201.89" width="11.16" height="5.84"/><path class="cls-3" d="M220.57,461.78l-9.71-15.13,4.85-10.48h7.2l3.5,6.08-3.5,4.4,3.5,5.08s41.31-3.67,54.74-2.76l3.27,6.36Z" transform="translate(13.68 -6.18)"/><polyline class="cls-3" points="261.26 453.72 255.75 454.28 246.03 439.15 250.89 428.67 258.08 428.67 261.59 434.75 258.08 439.15 261.59 444.23"/><path class="cls-3" d="M390.67,462.12,400.38,447l-4.86-10.48h-7.19l-3.5,6.08,3.5,4.4-3.5,5.08s-41.32-3.68-54.74-2.76l-3.28,6.36Z" transform="translate(13.68 -6.18)"/><polyline class="cls-3" points="377.33 454.06 382.85 454.62 392.56 439.49 387.7 429 380.51 429 377.01 435.09 380.51 439.49 377.01 444.57"/></g>
    <g id="sun"><path d="M308.76,309" transform="translate(13.68 -6.18)"/><path class="cls-1" d="M291.67,319.38c-3.53-13.87-15.69-18.25-28.23-14.72,7.67.49,21.17,7.06,18.74,14s-14.36,8-17.4-3.16c-1.34,19.1,9.61,16.3,9.61,16.3" transform="translate(13.68 -6.18)"/><path class="cls-1" d="M286.34,309.38c-.39-5,6.67-10.07,6.67-10.07s-4.75,10.46,1.58,12" transform="translate(13.68 -6.18)"/><path class="cls-1" d="M320.08,318.32c5.25-13.31-2.07-24-14.29-28.44,5.93,4.88,13,18.1,7,22.3s-16.34-1.87-12.27-12.73c-12.25,14.71-1.73,18.84-1.73,18.84" transform="translate(13.68 -6.18)"/><path class="cls-1" d="M259.11,332.08c-3.34-3.69-.87-12-.87-12s2.63,11.18,8.61,8.57" transform="translate(13.68 -6.18)"/><path class="cls-1" d="M267.8,336.27c-11.49-8.54-23.69-4.26-31.19,6.38,6.26-4.46,20.88-7.88,23.36-1s-6.07,15.28-15.49,8.52c11,15.66,17.74,6.58,17.74,6.58" transform="translate(13.68 -6.18)"/><path class="cls-1" d="M261.41,364c-14.24-1.35-22.46,8.64-23.36,21.62,3-7.05,13.77-17.56,19.48-12.93s2.73,16.22-8.83,15.32c17.53,7.69,18.58-3.57,18.58-3.57" transform="translate(13.68 -6.18)"/><path class="cls-1" d="M249.39,366c-4.76-1.43-7-9.86-7-9.86s8,8.21,11.79,2.89" transform="translate(13.68 -6.18)"/><path class="cls-1" d="M343.11,335.52c12.28-7.35,13-20.26,6-31.26,1.73,7.49-.7,22.31-8,22s-11.8-11.46-2-17.58c-18.68,4.19-12.87,13.88-12.87,13.88" transform="translate(13.68 -6.18)"/><path class="cls-1" d="M321.85,308.09c1.6-4.71,10.1-6.61,10.1-6.61s-8.5,7.73-3.31,11.68" transform="translate(13.68 -6.18)"/><path class="cls-1" d="M352.32,361.65C366.57,363,374.78,353,375.65,340c-3,7.06-13.74,17.58-19.46,13s-2.75-16.21,8.81-15.33c-17.54-7.66-18.58,3.59-18.58,3.59" transform="translate(13.68 -6.18)"/><path class="cls-1" d="M345.41,389.62c11.39,8.66,23.64,4.52,31.26-6-6.31,4.39-21,7.65-23.38.7s6.24-15.21,15.59-8.35c-10.84-15.78-17.67-6.78-17.67-6.78" transform="translate(13.68 -6.18)"/><path class="cls-1" d="M322.17,406.21c3.5,13.88,15.66,18.28,28.19,14.78-7.66-.5-21.15-7.1-18.71-14s14.38-8,17.4,3.2c1.37-19.1-9.58-16.32-9.58-16.32" transform="translate(13.68 -6.18)"/><path class="cls-1" d="M293.67,407c-5.18,13.34,2.18,24,14.43,28.37-6-4.84-13.13-18-7.13-22.27s16.35,1.81,12.33,12.68c12.18-14.77,1.64-18.85,1.64-18.85" transform="translate(13.68 -6.18)"/><path class="cls-1" d="M270.76,391.19c-12.08,7.67-12.46,20.59-5.21,31.4-1.92-7.43.12-22.31,7.47-22.15s12.09,11.14,2.4,17.51c18.57-4.66,12.51-14.2,12.51-14.2" transform="translate(13.68 -6.18)"/><path class="cls-1" d="M351.45,326.74c4.19-2.68,12,1.14,12,1.14s-11.46.75-9.88,7.07" transform="translate(13.68 -6.18)"/><path class="cls-1" d="M363.49,359.9c4.84,1.12,7.58,9.39,7.58,9.39s-8.54-7.68-12-2.13" transform="translate(13.68 -6.18)"/><path class="cls-1" d="M355,393.84c3.62,3.41,1.83,11.94,1.83,11.94s-3.52-10.94-9.26-7.86" transform="translate(13.68 -6.18)"/><path class="cls-1" d="M327.49,416.07c.56,4.94-6.31,10.29-6.31,10.29s4.37-10.62-2-12" transform="translate(13.68 -6.18)"/><path class="cls-1" d="M292.21,418.66c-2.25,4.43-10.94,5.1-10.94,5.1s9.51-6.44,4.94-11.1" transform="translate(13.68 -6.18)"/><path class="cls-1" d="M263.14,398.79c-4.45,2.21-11.83-2.41-11.83-2.41s11.48.48,10.57-6" transform="translate(13.68 -6.18)"/><circle class="cls-1" cx="320.23" cy="356.96" r="40.99"/></g>
</svg>