<svg xmlns="http://www.w3.org/2000/svg" xmlns:xlink="http://www.w3.org/1999/xlink" viewBox="70 0 460 735"><defs><clipPath id="clip-path"><polygon points="-326.21 170.36 -98.3 565.1 -554.11 565.1 -326.21 170.36" style="fill:none;stroke:#b6b8dd;stroke-miterlimit:10;stroke-width:4px"/></clipPath></defs><title>the four houses</title><g id="vela"><polyline points="159.63 113.95 159.63 299.31 198.26 262.95 198.26 114.76" style="fill:none;stroke:#0082cb;stroke-miterlimit:10"/><polyline points="217.53 113.95 217.53 192.49 242.47 172.03 242.47 114.76" style="fill:none;stroke:#0082cb;stroke-miterlimit:10"/><path d="M262.19,114.76c-.61.77,0,33.89,0,33.89l24.39-12V114" style="fill:none;stroke:#0082cb;stroke-miterlimit:10"/><path d="M401.89,115.55V242.63s19.51,27.6,20.32,27.6,0-155.48,0-155.48" style="fill:none;stroke:#0082cb;stroke-miterlimit:10"/><path d="M428.48,114.24V276.81s18,24.61,18.83,23.8,0-187.67,0-187.67" style="fill:none;stroke:#0082cb;stroke-miterlimit:10"/><polygon points="419.1 286.65 419.1 457.44 443.74 440.88 443.74 317.5 419.1 286.65" style="fill:none;stroke:#0082cb;stroke-miterlimit:10"/><polyline points="446.66 639.79 446.66 455.41 421.56 473.68 421.56 638.82" style="fill:none;stroke:#0082cb;stroke-miterlimit:10"/><polyline points="158.9 471.57 158.9 321.24 199.65 282.18 199.65 430.67 158.9 469.73" style="fill:none;stroke:#0082cb;stroke-miterlimit:10"/><polyline points="157.4 636.57 157.4 497.9 183.41 523.9 183.41 637.58" style="fill:none;stroke:#0082cb;stroke-miterlimit:10"/><polyline points="190.15 639.6 190.15 554.85 216.67 528.33 216.67 638.95" style="fill:none;stroke:#0082cb;stroke-miterlimit:10"/><path d="M229.14,637.94s-1-78,0-76.92l24.7,24.71V639" style="fill:none;stroke:#0082cb;stroke-miterlimit:10"/><path d="M268.4,639c.81,0,0-51,0-51l22.73,14.61s-.49,36.24,0,36.24" style="fill:none;stroke:#0082cb;stroke-miterlimit:10"/><polyline points="176.88 283.08 176.88 214.49 188.74 222.85 188.74 271.92" style="fill:none;stroke:#0082cb;stroke-miterlimit:10"/><path d="M243.46,575.35c.15.15,0,40.22,0,40.22l5.21,5.21V580.72" style="fill:none;stroke:#0082cb;stroke-miterlimit:10"/><path d="M428.47,468.65v117.7s9.75-6.93,10.29-6.93,0-118.26,0-118.26" style="fill:none;stroke:#0082cb;stroke-miterlimit:10"/><path d="M356,173.77l-14.6,78.87-10,54c-1.42,7.69-4,15.93-4.31,23.77-.33,7.42,1,14.64,2.41,21.85l7.24,36.44L359.12,501l9.63,48.38c1.67,8.42,2.87,17.13,5.06,25.45.1.39.16.8.24,1.2.63,3.16,5.45,1.82,4.82-1.33L366.72,513.6,344.32,401l-8.42-42.31-2.4-12.06c-.19-1-.42-2-.59-3-.24-1.49-.06.61-.14-1.65-.14-3.82-.68-7.67-.64-11.5,0,.74,0-.39.18-1.23.79-4.14,1.54-8.3,2.31-12.45l9.11-49.23c5.6-30.25,11.36-60.48,16.81-90.76.1-.59.21-1.18.32-1.78.59-3.14-4.23-4.49-4.82-1.33Z" style="fill:#6fcfeb"/><path d="M316.62,159.94l5.25,85.14c1.75,28.38,3.57,56.75,5.24,85.13q1.84,31.19,3.74,62.37l7.41,121.61c1.63,26.69,2.44,53.57,4.9,80.2,0,.43,0,.87.08,1.31.19,3.19,5.19,3.22,5,0l-4.08-66.83-7.49-122.81c-1.31-21.44-2.72-42.88-3.92-64.33-1.5-26.93-3.24-53.85-4.9-80.77-2-33-3.83-66.09-6.11-99.1l-.12-1.92c-.19-3.19-5.2-3.21-5,0Z" style="fill:#6fcfeb"/><path d="M375.44,148,352.35,234.9l-16.42,61.81c-2.83,10.63-6.8,21.55-8.61,32.41-1.19,7.1.5,14.71,2.33,21.6l10.23,38.51L373.12,514.3c7.44,28,14.29,56.3,22.35,84.15.13.45.24.91.37,1.37.82,3.1,5.65,1.78,4.82-1.33L382.1,528.64l-33.49-126L336.44,356.8l-3.07-11.55c-.18-.71-.43-1.42-.57-2.14.07.35.05.3,0-.74-.14-2.6-.29-5.19-.43-7.79-.06-1-.1-2.06-.18-3.09,0-.36,0-1.93-.15-.62,0-.22.13-.44.17-.66.26-1.35.71-2.68,1.07-4l4.55-17.13,15.25-57.41c8.89-33.47,18.22-66.86,26.68-100.45.16-.63.34-1.26.51-1.9.82-3.11-4-4.44-4.82-1.32Z" style="fill:#6fcfeb"/><path d="M375.35,148.65l2.6,45.61,6.22,109,7.55,132.34,6.51,114,2.15,37.64c.34,6,.31,12.08,1,18,0,.25,0,.52,0,.78.18,3.19,5.19,3.22,5,0l-2.6-45.61-6.22-109-7.56-132.34-6.5-114-2.15-37.64c-.34-6-.31-12.08-1-18,0-.26,0-.52,0-.78-.19-3.2-5.19-3.22-5,0Z" style="fill:#6fcfeb"/><path d="M263.59,330,288,328l11.56,8.5,23.13-1.63,4,.36s-.54,4.16-1.08,4-27.82,1.8-27.82,1.8l-10.66-8.31-24.75,1.81Z" style="fill:#6fcfeb"/><path d="M375.51,645.82c3.45-3.87,5.95-9.92,6.58-16.86,1.13-12.5-4.27-23.21-12-23.91s-15,8.87-16.13,21.37a34.55,34.55,0,0,0,.56,10.17l-.07-.34.07.34c-5.63-3.09-10.3-6.83-12.91-13.71L343.4,629l2.85,5.45L350,639l4.75,3.76,7.36,3.12s7.84.77,7.87.76Z" style="fill:#6fcfeb"/><path d="M349.42,110.83c3.44,3.87,5.95,9.91,6.57,16.86,1.13,12.5-4.26,23.2-12,23.9s-15-8.86-16.12-21.36a34.2,34.2,0,0,1,.55-10.17l-.07.34.07-.34c-5.63,3.09-10.3,6.83-12.91,13.71l1.84-6.11,2.84-5.45,3.72-4.57,4.75-3.76,7.36-3.12s7.84-.77,7.88-.76Z" style="fill:#6fcfeb"/><path d="M338.44,150.38c-1.49,7.35-2.58,22.09,6.57,30.45a34.11,34.11,0,0,1-10.78-4.14c-2.68-10.24-2.3-19,2.29-27.58C337.05,149.51,338.44,150.38,338.44,150.38Z" style="fill:#0082cb"/><path d="M259.46,375.87c.21.42,25.94,19.77,25.94,19.77l3.4,55.07-16.8,24-4.89-3.83,15.1-21.26-3.41-52.31-23.38-17.22Z" style="fill:#6fcfeb"/><polygon points="250.53 288.26 238.83 303.15 243.51 358.01 255.42 332.7 250.53 288.26" style="fill:#6fcfeb"/><polygon points="378.21 105.83 389.8 111.36 384 114.76 378.21 114.76 372.15 113.7 378.21 105.83" style="fill:#6fcfeb"/><path d="M275.74,170.75c.65-.4,14.12-9.21,14.12-9.21V153L305,142.62l5.79,2.18,6.12,9.08L285,177.27Z" style="fill:#6fcfeb"/><polygon points="238.76 216.58 236.71 240.42 258.54 266.39 250.78 276.81 231.18 272.11 213.88 250.82 217.9 247.19 215.59 229.88 231.97 214.49 238.76 216.58" style="fill:#0082cb"/><polygon points="247.4 536.06 249.69 534.98 241.17 519.39 256.37 479.64 247.29 473.77 247.1 470.78 230.11 482.61 225.49 496.93 233.33 503.26 230.74 520.25 247.4 536.06" style="fill:#0082cb"/><polygon points="378.21 116.57 257.17 204.12 243.3 204.12 247.12 188.33 280.61 167.76 288.75 169.67 310.75 153.88 310.75 144.79 378.21 103.65 378.21 116.57" style="fill:#0082cb"/><polygon points="403.97 647.75 415.56 642.23 409.77 638.82 403.97 638.82 397.91 639.89 403.97 647.75" style="fill:#6fcfeb"/><path d="M300.62,583c.65.4,14.12,9.21,14.12,9.21v8.5l15.1,10.42,5.79-2.18,6.11-9.09-31.89-23.39Z" style="fill:#6fcfeb"/><polygon points="403.09 637.18 282.05 549.63 268.17 549.63 272 565.42 305.49 585.99 313.62 584.08 335.63 599.86 335.63 608.95 403.09 650.1 403.09 637.18" style="fill:#0082cb"/><path d="M350.2,181.3h.16s7.08,0,8.09-6.86-10.11-7.59-8.09-17.45,11.13-7.33,12.65-5.31,3.69,8.74,9.14,5.82a11.27,11.27,0,0,0,5.7-8.85v0A42,42,0,0,0,374.66,134c-7.65-18.61-26.55-28.48-42.22-22s-22.16,26.75-14.51,45.37c6.08,14.79,19.28,24.06,32.31,24" style="fill:none;stroke:#0082cb;stroke-miterlimit:10;stroke-width:6px"/><circle cx="343.16" cy="133.49" r="3.12" style="fill:#6fcfeb"/><path d="M364.54,606.27c-1.49-7.35-2.58-22.09,6.57-30.45A34,34,0,0,0,360.33,580c-2.68,10.24-2.3,19,2.29,27.58C363.15,607.14,364.54,606.27,364.54,606.27Z" style="fill:#0082cb"/><path d="M376.3,575.35h.16s7.08,0,8.09,6.86-10.11,7.59-8.09,17.45S387.59,607,389.1,605s3.7-8.75,9.15-5.82a11.25,11.25,0,0,1,5.69,8.85v0a42.17,42.17,0,0,1-3.19,14.68c-7.65,18.61-26.56,28.48-42.22,22S336.37,618,344,599.35c6.08-14.8,19.28-24.07,32.31-24" style="fill:none;stroke:#0082cb;stroke-miterlimit:10;stroke-width:5px"/><circle cx="369.26" cy="623.16" r="3.12" style="fill:#6fcfeb"/><polygon points="253.29 212.78 279.02 247.23 281.14 296.77 263.07 318.46 265.62 375.02 259.46 388.41 263.92 462.41 293.9 479.2 296.24 525.35 278.17 547.46 269.24 545.33 270.09 537.89 284.12 521.09 282.21 493.66 248.19 473.25 240.11 353.54 248.82 339.3 245.42 286.35 274.76 248.5 249.46 215.55 253.29 212.78" style="fill:#0082cb"/><polygon points="213.9 509.48 217.09 528.19 258.55 567.74 290.02 565.83 272.8 554.34 272.37 535.42 265.36 530.53 246.86 537.12 229.21 520.53 231.97 503.52 223.47 496.93 213.9 509.48" style="fill:#6fcfeb"/><polygon points="198.64 240.85 201.83 222.14 243.3 182.59 274.76 184.5 257.54 195.99 257.12 214.91 250.1 219.8 231.6 213.21 213.95 229.79 216.72 246.8 208.21 253.39 198.64 240.85" style="fill:#6fcfeb"/><polygon points="241.04 365.07 249.35 354.68 249.97 366.04 241.73 375.32 241.04 365.07" style="fill:#6fcfeb"/><polygon points="242.16 382.3 250.47 371.92 251.08 383.27 242.85 392.56 242.16 382.3" style="fill:#6fcfeb"/><polygon points="243.34 399.12 251.66 388.74 252.27 400.09 244.04 409.38 243.34 399.12" style="fill:#6fcfeb"/><polygon points="323.04 332.75 323.04 341.02 326.62 343.65 330.36 343.65 337.38 339.32 337.38 334.52 329.61 330.21 326.62 330.21 323.04 332.75" style="fill:#0082cb"/><path d="M246.35,460.73v8.13L229.5,480.53l-2.76,7.09-40.45,11.64L184,474.19Z" style="fill:#6fcfeb"/><ellipse cx="185.09" cy="486.72" rx="6.73" ry="12.58" transform="translate(-41.08 17.68) rotate(-4.92)" style="fill:#0082cb"/><polygon points="284.34 471.92 313.8 464.26 310.38 446.59 290.83 450.67 278.58 468.46 284.34 471.92" style="fill:#6fcfeb"/><ellipse cx="312.08" cy="455.41" rx="4.41" ry="8.99" transform="translate(-81.19 67.94) rotate(-11)" style="fill:#6fcfeb"/><rect x="389.72" y="427.75" width="8.85" height="17.97" transform="translate(-83.97 93.96) rotate(-12.3)" style="fill:#6fcfeb"/><ellipse cx="398.21" cy="435.86" rx="4.41" ry="8.99" transform="translate(-75.87 84.02) rotate(-11)" style="fill:#6fcfeb"/><ellipse cx="390.13" cy="437.63" rx="4.41" ry="8.99" transform="translate(-76.36 82.51) rotate(-11)" style="fill:#0082cb"/><rect x="290.01" y="445.73" width="101.05" height="6.37" transform="translate(-93.55 89.66) rotate(-13.21)" style="fill:#6fcfeb"/><ellipse cx="389.59" cy="437.39" rx="1.37" ry="3.2" transform="translate(-93.48 106.13) rotate(-13.87)" style="fill:#6fcfeb"/><polygon points="267.71 360 268.79 375.18 267.2 378.6 278.98 387.04 301.37 386.87 313.13 366.36 294.47 366.3 288.5 357.94 267.71 360" style="fill:#6fcfeb"/><polygon points="238.9 363.19 225.01 364.61 220.28 369.14 220.28 372.9 239.97 381.96 238.94 363.89 238.9 363.19" style="fill:#6fcfeb"/><polyline points="341.04 639.79 150.24 639.79 150.24 113.95 315.05 113.95" style="fill:none;stroke:#6fcfeb;stroke-miterlimit:10;stroke-width:4px"/><polyline points="426.97 639.79 452.45 639.79 452.45 113.95 398.41 113.95" style="fill:none;stroke:#6fcfeb;stroke-miterlimit:10;stroke-width:4px"/><polygon points="463.73 475.63 527.35 375.33 463.73 274.86 463.73 475.63" style="fill:#6fcfeb"/><polygon points="315.51 102.75 354.75 102.75 300.89 17.71 247.04 102.75 315.51 102.75" style="fill:#6fcfeb"/><polygon points="137.72 275.38 74.43 375.33 137.72 475.1 137.72 275.38" style="fill:#6fcfeb"/><polygon points="249.16 650.77 300.89 732.33 352.63 650.77 249.16 650.77" style="fill:#6fcfeb"/><polyline points="136.54 185.32 136.54 101.92 218.61 101.92" style="fill:none;stroke:#6fcfeb;stroke-miterlimit:10;stroke-width:4px"/><polyline points="136.34 566.83 136.34 650.23 218.41 650.23" style="fill:none;stroke:#6fcfeb;stroke-miterlimit:10;stroke-width:4px"/><polyline points="462.68 185.18 462.68 101.78 380.61 101.78" style="fill:none;stroke:#6fcfeb;stroke-miterlimit:10;stroke-width:4px"/><polyline points="462.59 566.21 462.59 649.61 380.52 649.61" style="fill:none;stroke:#6fcfeb;stroke-miterlimit:10;stroke-width:4px"/></g></svg>